<?xml version="1.0" encoding="utf-8"?>
<!-- Generator: Adobe Illustrator 27.5.0, SVG Export Plug-In . SVG Version: 6.00 Build 0)  -->
<svg version="1.1" xmlns="http://www.w3.org/2000/svg" xmlns:xlink="http://www.w3.org/1999/xlink" x="0px" y="0px"
	 viewBox="0 0 500 500" style="enable-background:new 0 0 500 500;" xml:space="preserve">
<g id="background">
	<rect style="fill:#FFFFFF;" width="500" height="500"/>
</g>
<g id="objects">
	<rect x="14" y="12" style="opacity:0.3;fill:#A7D6FE;" width="80" height="23"/>
	<rect x="336" y="45" style="opacity:0.3;fill:#A7D6FE;" width="80" height="23"/>
	<rect x="295" y="19" style="opacity:0.3;fill:#A7D6FE;" width="80" height="23"/>
	<rect x="255" y="107" style="opacity:0.3;fill:#A7D6FE;" width="80" height="23"/>
	<rect x="327" y="264" style="opacity:0.3;fill:#A7D6FE;" width="80" height="23"/>
	<rect x="209.5" y="465.5" style="opacity:0.3;fill:#A7D6FE;" width="80" height="23"/>
	<rect x="250" y="440" style="opacity:0.3;fill:#A7D6FE;" width="80" height="23"/>
	<rect x="210" y="45" style="opacity:0.3;fill:#A7D6FE;" width="80" height="23"/>
	<path style="opacity:0.3;fill:#A7D6FE;" d="M12.757,104.644c0.776-11.368,1.745-22.987,6.397-33.388
		c6.554-14.653,19.617-25.21,32.489-34.798c10.649-7.932,21.917-15.795,34.928-18.446c8.172-1.665,16.61-1.177,24.935-0.681
		c7.334,0.437,15.687,1.412,19.932,7.408c4.976,7.029,1.43,16.827-3.198,24.091C116.27,67.62,98.235,81.667,84.134,98.917
		c-20.62,25.224-32.274,56.633-39.951,88.296c-2.694,11.111-5.004,22.497-10.402,32.575c-2.686,5.014-16.563,24.112-23.412,18.308
		c-5.256-4.455-1.102-35.271-1.051-42.245C9.539,165.423,10.686,135.002,12.757,104.644z"/>
	<path style="opacity:0.3;fill:#A7D6FE;" d="M500,270.37c-4.39,61.98-24.72,122.43-47.31,167.37
		c-18.35,40.08-96.83,37.91-125.49,49.69c-19.42,4.34-39.48,8.58-59.87,12.57H0V390.05c1.19-3.79,2.18-7.04,2.86-9.6
		c10.26-31.34,20.43-62.19,25.45-89.01c5.14-37.41,2.73-86.69,24.33-127.33C65.59,108.1,52.84,156.74,115,90
		c37.72-45.13,66.53-70.11,117-70c18.25,1.29,53,4,74.35,31.66c8.29,10.74,5.53,49.07,30.34,53.87c14.22,2.29,24.71-1.99,38.32-7.23
		c50.55-25.17,91.53,8.46,108.8,50.98c9.19,23.46,14.29,48.19,16.19,73.25C501.21,238.41,501.13,254.44,500,270.37z"/>
	<g>
		<path d="M228.318,452.158H34.144c-5.307,0-9.609-4.302-9.609-9.609V57.446c0-5.307,4.302-9.609,9.609-9.609h194.174
			c5.307,0,9.609,4.302,9.609,9.609v385.103C237.927,447.856,233.625,452.158,228.318,452.158z"/>
		<path style="fill:#C7B299;" d="M229.188,67.083v364.583c0,5.118-4.138,9.257-9.257,9.257H42.535c-5.118,0-9.266-4.138-9.266-9.257
			V67.083c0-5.118,4.148-9.266,9.266-9.266h177.397C225.05,57.817,229.188,61.965,229.188,67.083z"/>
		<path style="fill:#C7B299;" d="M220.721,441.381H43.319c-5.114,0-9.26-4.146-9.26-9.259V67.534c0-5.114,4.146-9.259,9.26-9.259
			h177.402c5.114,0,9.259,4.146,9.259,9.259v364.587C229.98,437.236,225.834,441.381,220.721,441.381z"/>
		<g>
			<path style="fill:none;" d="M49.838,58.275h-6.003l1.448,9.752l-11.223,1.666v5.124l12.374-1.837l2.655,17.88l-15.029,2.231
				v60.325c9.448-3.128,19.086-5.333,28.927-6.741C58.234,117.266,53.854,87.797,49.838,58.275z M34.231,98.999l15.056-2.236
				l2.655,17.88l-15.056,2.236L34.231,98.999z M38.036,121.831l15.056-2.236l2.655,17.88l-15.056,2.236L38.036,121.831z"/>
			<path style="fill:none;" d="M74.882,400.703c0.734-0.251,1.605-0.657,2.416-0.995c-0.268-0.774-0.499-1.547-0.713-2.023
				c-0.989-2.199-1.97-4.401-2.913-6.62c-2.121-4.994-4.232-10.107-5.331-15.44c-0.793-3.845-1.702-8.646,1.277-11.772
				c2.533-2.659,6.442-4.281,9.714-5.773c6.735-3.071,14.266-6.424,21.811-7.848c-5.785-28.568-11.605-57.127-17.167-85.739
				c-7.948,0.732-16.414,1.531-24.025,3.956c0.386,1.608,0.666,3.977,0.82,4.549c1.146,4.247,2.503,8.431,3.757,12.646
				c0.864,2.905,1.819,5.769-0.569,8.278c-2.044,2.149-5.671,3.249-8.302,4.358c-7.005,2.952-14.234,5.722-21.597,7.779v106.86
				c8.861-3.085,18.031-5.408,27.012-7.999C65.694,403.585,70.329,402.262,74.882,400.703z M93.801,342.965l-15.056,2.236
				l-2.655-17.88l15.056-2.236L93.801,342.965z M89.996,320.133l-15.056,2.236l-2.655-17.879l15.056-2.236L89.996,320.133z
				 M83.536,279.421l2.655,17.879l-15.056,2.236l-2.655-17.879L83.536,279.421z M36.134,312.1l15.056-2.236l2.655,17.879
				l-15.056,2.236L36.134,312.1z M39.939,334.932l15.056-2.236l2.655,17.88l-15.056,2.236L39.939,334.932z M43.744,357.764
				l15.056-2.236l2.655,17.879l-15.056,2.236L43.744,357.764z M47.55,380.596l15.056-2.236l2.655,17.88l-15.056,2.236L47.55,380.596
				z"/>
			<path style="fill:none;" d="M55.274,287.906c-1.171-3.958-2.446-7.883-3.538-11.865c-0.926-3.377-2.95-8.515-1.543-11.939
				c1.305-3.175,5.052-4.241,8.072-5.064c7.718-2.104,15.9-3.113,23.898-3.886c-1.194-6.213-2.375-12.429-3.537-18.649
				c-5.004-26.786-9.703-53.626-14.119-80.511c-10.377,1.437-20.548,3.981-30.438,7.444c-0.003,0.001-0.006,0.002-0.009,0.003v4.277
				l25.612-3.803l3.633,24.467l-27.29,4.052l-1.956-13.17v51.516l1.829-0.272l3.633,24.467l-5.462,0.811v8.046l6.585-0.978
				l3.633,24.467l-10.218,1.517v7.344c6.686-1.982,13.295-4.5,19.575-7.312C53.965,288.72,54.596,288.315,55.274,287.906z
				 M37.139,197.456l27.29-4.052l3.633,24.467l-27.29,4.052L37.139,197.456z M41.895,226.947l27.29-4.052l3.633,24.467l-27.29,4.052
				L41.895,226.947z"/>
			<path style="fill:none;" d="M166.6,364.008c10.088-2.412,20.514-4.823,30.233-8.485c4.874-1.836,6.808-4.678,7.248-9.874
				c0.407-4.812,0.347-9.707,0.498-14.533c0.018-0.581,0.121-1.105,0.291-1.576c0.117-2.329,0.269-5.598-0.982-7.191
				c-0.46-0.585-1.201-0.456-2.529-0.473c-4.372-0.057-8.442,0.062-12.358-2.262c-1.863-1.105-2.671-3.297-2.186-5.372
				c2.593-11.092,2.041-22.606-0.255-33.701c-29.116,4.072-58.612,6.264-87.089,13.607c1.81,9.098,3.632,18.193,5.476,27.284
				c3.495,17.228,7.085,34.446,10.563,51.687c6.921-1.939,14.286-2.174,21.366-3.167C146.86,368.551,156.8,366.351,166.6,364.008z
				 M106.351,298.992c0,0,74.205-14.27,78.01-13.319c3.805,0.951-1.903,37.102,0,38.054c1.903,0.951,16.173,3.805,16.173,3.805
				s-2.854,22.832-4.757,24.735s-72.302,15.221-75.156,15.221C117.767,367.489,106.351,298.992,106.351,298.992z"/>
			<path style="fill:none;" d="M195.958,279.151c2.167,10.997,2.792,22.226,0.905,33.262c3.177,0.446,6.729-0.388,9.81,0.701
				c7.263,2.567,7.794,11.21,7.655,17.749c-0.012,0.567-0.105,1.081-0.263,1.544c-0.141,9.393,1.046,21.401-6.698,28.025
				c-3.475,2.972-7.99,4.318-12.275,5.646c-5.714,1.771-11.471,3.409-17.258,4.925c-11.86,3.106-23.864,5.722-35.959,7.736
				c-8.09,1.347-16.594,1.386-24.49,3.74c3.671,18.477,7.166,36.987,10.201,55.574c0.21,1.286-0.049,2.412-0.59,3.331h93.725
				c5.114,0,9.259-4.146,9.259-9.259V272.076C218.78,275.137,207.41,277.35,195.958,279.151z M132.384,439.491l-7.958-49.17
				l21.881-3.805l9.584,52.975H132.384z M160.925,439.791l-8.91-56.78l21.881-3.805l10.536,60.586H160.925z M189.465,439.791
				l-9.861-61.537l21.881-3.805l11.487,65.343H189.465z"/>
			<path style="fill:none;" d="M176.769,220.301c-9.063-0.301-18.301-1.343-26.909-4.327c-5.788-2.006-11.113-4.919-16.561-7.67
				c-15.241-7.698-33.62-7.439-51.217-5.749c4.918,27.464,10.132,54.873,15.534,82.246c43.433-11.07,89.207-10.292,132.363-22.615
				v-45.931C212.39,218.79,194.544,220.892,176.769,220.301z M105.416,208.07l2.655,17.88l-15.056,2.236l-2.655-17.88
				L105.416,208.07z M92.263,233.138l15.056-2.236l2.655,17.88l-15.056,2.236L92.263,233.138z M98.723,273.85l-2.655-17.88
				l15.056-2.236l2.655,17.879L98.723,273.85z M116.046,230.284l15.056-2.236l2.655,17.88l-15.056,2.236L116.046,230.284z
				 M122.507,270.996l-2.655-17.88l15.056-2.236l2.655,17.88L122.507,270.996z M136.976,227.43l15.056-2.236l2.655,17.879
				l-15.056,2.236L136.976,227.43z M143.436,268.142l-2.655-17.88l15.056-2.236l2.655,17.88L143.436,268.142z M159.808,227.43
				l15.056-2.236l2.655,17.879l-15.056,2.236L159.808,227.43z M166.268,268.142l-2.655-17.88l15.056-2.236l2.655,17.88
				L166.268,268.142z M226.038,262.101l-15.056,2.236l-2.655-17.879l15.056-2.236L226.038,262.101z M219.578,221.389l2.655,17.88
				l-15.056,2.236l-2.655-17.88L219.578,221.389z M203.206,265.906l-15.056,2.236l-2.655-17.88l15.056-2.236L203.206,265.906z
				 M199.4,243.074l-15.057,2.236l-2.655-17.879l15.056-2.236L199.4,243.074z"/>
			<path style="fill:none;" d="M132.809,92.834c8.03-0.24,16.138,1.109,23.952-0.969c3.262-0.867,5.944-1.913,7.52-3.619
				c0.145-0.157,0.231-0.244,0.284-0.293c0.036-0.073,0.126-0.228,0.326-0.535c0.108-0.166,0.299-0.603,0.41-0.855
				c0.257-0.762,0.454-1.538,0.612-2.329c0.406-2.032,0.52-4.118,1.054-6.125c1.896-7.121,7.485-11.428,14.051-14.151
				c7.162-2.97,14.929-4.644,22.825-5.683h-13.048l-10.257,1.523l-0.226-1.523h-3.252l0.459,3.093l-15.056,2.236l-0.791-5.328h-8.93
				l-10.257,1.523l-0.226-1.523h-10.863l0.459,3.093l-15.056,2.236l-0.791-5.328h-10.722l0.883,5.947l-15.056,2.236l-1.215-8.182
				h-6.549c1.177,6.033,2.073,15.846,2.073,17.152c0,1.903,22.832-4.757,25.686-2.854c2.854,1.903,3.805,13.319,3.805,17.124
				c0,3.805-40.908,3.805-43.762,3.805c-2.58,0-3.953-29.558-4.192-35.227h-7.632c2.025,14.878,4.149,29.743,6.368,44.594
				C87.512,97.055,110.261,93.507,132.809,92.834z M158.692,62.515l2.655,17.879L146.29,82.63l-2.655-17.879L158.692,62.515z
				 M133.005,66.32l2.655,17.88l-15.056,2.236l-2.655-17.879L133.005,66.32z"/>
			<path style="fill:none;" d="M106.364,192.095l-3.583-24.131l27.29-4.052l3.633,24.467l-25.603,3.802
				c3.845,0.226,7.675,0.654,11.472,1.358c12.327,2.288,22.879,10.015,33.822,13.601c8.62,2.825,17.684,3.616,26.711,3.722
				c9.379,0.111,18.763-0.459,28.113-1.402c-0.517-2.521-1.017-5.048-1.659-7.536c-0.175-0.677-0.803-2.7-0.743-2.557
				c-0.507-1.209-0.277-0.834-1.05-1.514c0.26,0.229-0.964-0.423-1.285-0.537c-1.362-0.485-2.87-0.697-4.29-0.913
				c-4.581-0.697-9.237-0.995-13.846-1.452c-2.291-0.227-5.094-2.032-4.757-4.757c1.473-11.898,0.202-23.966-3.625-35.329
				c-1.382-4.104-3.618-7.67-3.733-12.048c-0.051-1.96,0.034-3.923,0.365-5.858c0.796-4.652,3.466-8.369,8.246-9.346
				c1.777-0.363,3.549-0.245,5.344-0.247c0.626-0.001,1.248-0.013,1.871-0.05c0.261-0.041,0.78-0.13,1.172-0.261
				c0.033-0.044,0.193-0.173,0.343-0.311c0.007-0.127,0.873-1.519,0.748-1.114c1.304-3.191,1.314-5.814,1.366-9.249
				c0.227-14.901-2.862-29.958-5.824-44.529c-2.176,0.758-4.284,1.682-6.238,2.893c-1.96,1.216-2.889,2.083-3.93,4.205
				c0.063-0.079-0.397,1.063-0.474,1.386c-0.12,0.505-0.246,1.003-0.351,1.512c-0.205,0.993-0.319,2.002-0.475,3.003
				c-0.854,5.498-3.108,10.005-8.027,12.973c-11.886,7.171-26.881,4.05-39.974,4.752c-20.313,1.089-40.626,4.456-60.269,9.762
				c2.349,15.425,4.796,30.835,7.352,46.227c1.923,11.584,3.921,23.155,5.962,34.717c0.284-0.078,0.581-0.139,0.898-0.17
				C89.618,192.297,98.021,191.737,106.364,192.095z M185.329,101.52l2.655,17.88l-15.056,2.236l-2.655-17.88L185.329,101.52z
				 M172.709,196.941l-27.29,4.052l-3.633-24.467l27.29-4.052L172.709,196.941z M167.952,167.449l-27.29,4.052l-3.633-24.467
				l27.29-4.052L167.952,167.449z M159.563,113.491l3.633,24.467l-27.29,4.052l-3.633-24.467L159.563,113.491z M128.947,158.887
				l-27.29,4.052l-3.633-24.467l27.29-4.052L128.947,158.887z M120.557,104.929l3.633,24.467l-27.29,4.052l-3.633-24.467
				L120.557,104.929z M91.146,118.644l2.655,17.879l-15.056,2.236L76.09,120.88L91.146,118.644z M80.647,161.592l-2.655-17.88
				l15.056-2.236l2.655,17.88L80.647,161.592z M84.453,184.424l-2.655-17.879l15.056-2.236l2.655,17.88L84.453,184.424z"/>
			<path style="fill:none;" d="M107.111,379.846c-1.354-6.768-2.717-13.533-4.083-20.298c-3.577,0.729-7.153,2.135-10.454,3.333
				c-4.917,1.784-9.878,3.765-14.391,6.436c-0.279,0.165-0.655,0.439-0.973,0.654c0.663,1.631,0.586,4.484,1.069,6.203
				c1.402,4.987,3.427,9.785,5.533,14.509c2.549,5.718,7.403,12.718-0.07,16.686c-7.622,4.047-16.911,5.8-25.14,8.154
				c-8.191,2.344-16.521,4.53-24.542,7.47v9.126c0,2.104,0.71,4.038,1.892,5.593v-11.242c0,0,56.129-18.075,55.178-20.929
				c-0.951-2.854-6.659-32.346-6.659-32.346l14.27-5.708l14.965,73.892h4.908c-0.083-0.25-0.154-0.513-0.201-0.802
				C115.094,420.255,111.15,400.037,107.111,379.846z"/>
			<path style="fill:none;" d="M196.066,69.457c3.291,16.063,7.052,33.166,6.039,49.576c-0.357,5.778-1.471,12.802-6.898,16.083
				c-3.265,1.974-7.158,1.818-10.83,1.737c-0.333-0.007-0.535-0.027-0.651-0.049c-0.055,0.042-0.151,0.098-0.307,0.172
				c-0.102,0.109-0.101,0.165-0.22,0.511c-0.608,1.759-0.357,0.942-0.419,2.373c-0.275,6.392,3.369,11.505,5.147,18.574
				c2.241,8.907,3.199,18.173,2.586,27.34c7.132,0.353,15.659,0.733,20.649,5.079c4.67,4.067,5.442,11.496,6.563,17.529
				c4.096-0.512,8.18-1.081,12.254-1.673v-21.877h-2.461l-8.909-56.781l11.371-1.978v-4.031h-16.731l-9.861-46.589l21.881-2.881
				l4.711,20.29V67.534c0-0.595-0.061-1.175-0.169-1.738c-0.154,0.021-0.31,0.04-0.473,0.049
				C218.214,66.437,206.998,67.207,196.066,69.457z M212.901,131.556l9.584,52.975h-23.507l-7.007-42.51L212.901,131.556z"/>
			<path style="fill:#998675;" d="M127.586,438.051c-3.035-18.587-6.53-37.097-10.201-55.574c7.896-2.354,16.401-2.393,24.49-3.74
				c12.095-2.014,24.099-4.63,35.959-7.736c5.787-1.516,11.544-3.153,17.258-4.925c4.285-1.328,8.8-2.674,12.275-5.646
				c7.744-6.624,6.557-18.631,6.698-28.025c0.158-0.462,0.251-0.976,0.263-1.544c0.139-6.539-0.392-15.182-7.655-17.749
				c-3.082-1.089-6.633-0.255-9.81-0.701c1.887-11.036,1.262-22.265-0.905-33.262c11.452-1.801,22.822-4.014,34.022-7.074v-9.889
				c-43.156,12.323-88.93,11.545-132.363,22.615c-5.403-27.373-10.616-54.782-15.534-82.246c17.597-1.69,35.976-1.949,51.217,5.749
				c5.447,2.751,10.773,5.664,16.561,7.67c8.607,2.984,17.846,4.026,26.909,4.327c17.775,0.59,35.621-1.511,53.211-4.045v-9.548
				c-4.074,0.592-8.158,1.162-12.254,1.673c-1.121-6.033-1.893-13.462-6.563-17.529c-4.99-4.346-13.517-4.726-20.649-5.079
				c0.612-9.167-0.346-18.433-2.586-27.34c-1.779-7.069-5.422-12.182-5.147-18.574c0.061-1.431-0.189-0.615,0.419-2.373
				c0.12-0.347,0.119-0.402,0.22-0.511c0.155-0.074,0.251-0.13,0.307-0.172c0.116,0.023,0.318,0.042,0.651,0.049
				c3.672,0.081,7.566,0.237,10.83-1.737c5.427-3.281,6.541-10.304,6.898-16.083c1.013-16.41-2.748-33.514-6.039-49.576
				c10.932-2.25,22.148-3.02,33.272-3.612c0.163-0.009,0.319-0.027,0.473-0.049c-0.814-4.282-4.572-7.521-9.091-7.521h-16.876
				c-7.896,1.039-15.663,2.713-22.825,5.683c-6.566,2.723-12.155,7.03-14.051,14.151c-0.535,2.008-0.648,4.093-1.054,6.125
				c-0.158,0.791-0.354,1.567-0.612,2.329c-0.111,0.252-0.302,0.689-0.41,0.855c-0.2,0.308-0.29,0.462-0.326,0.535
				c-0.053,0.049-0.139,0.136-0.284,0.293c-1.577,1.706-4.258,2.752-7.52,3.619c-7.814,2.078-15.922,0.729-23.952,0.969
				c-22.548,0.673-45.298,4.221-67.115,10.035c-2.219-14.851-4.343-29.715-6.368-44.594h-9.489
				c4.017,29.522,8.396,58.991,13.149,88.401c-9.841,1.408-19.479,3.612-28.927,6.741v10.022c0.003-0.001,0.006-0.002,0.009-0.003
				c9.89-3.463,20.062-6.007,30.438-7.444c4.416,26.886,9.115,53.725,14.119,80.511c1.162,6.22,2.343,12.436,3.537,18.649
				c-7.999,0.774-16.18,1.782-23.898,3.886c-3.019,0.823-6.767,1.889-8.072,5.064c-1.407,3.423,0.617,8.562,1.543,11.939
				c1.092,3.982,2.367,7.907,3.538,11.865c-0.678,0.409-1.309,0.814-1.639,0.962c-6.28,2.811-12.889,5.33-19.575,7.312v9.877
				c7.363-2.057,14.592-4.827,21.597-7.779c2.63-1.108,6.257-2.209,8.302-4.358c2.388-2.509,1.433-5.373,0.569-8.278
				c-1.254-4.215-2.611-8.399-3.757-12.646c-0.154-0.572-0.434-2.941-0.82-4.549c7.611-2.425,16.077-3.224,24.025-3.956
				c5.562,28.612,11.382,57.172,17.167,85.739c-7.545,1.424-15.076,4.777-21.811,7.848c-3.272,1.492-7.181,3.114-9.714,5.773
				c-2.978,3.126-2.069,7.927-1.277,11.772c1.1,5.334,3.21,10.446,5.331,15.44c0.943,2.22,1.924,4.421,2.913,6.62
				c0.214,0.476,0.445,1.249,0.713,2.023c-0.81,0.338-1.682,0.744-2.416,0.995c-4.553,1.559-9.188,2.882-13.811,4.215
				c-8.982,2.591-18.152,4.914-27.012,7.999v10.078c8.021-2.939,16.352-5.126,24.542-7.47c8.229-2.355,17.518-4.107,25.14-8.154
				c7.474-3.969,2.619-10.968,0.07-16.686c-2.106-4.724-4.131-9.522-5.533-14.509c-0.483-1.719-0.406-4.572-1.069-6.203
				c0.318-0.215,0.694-0.489,0.973-0.654c4.513-2.671,9.474-4.652,14.391-6.436c3.301-1.198,6.877-2.605,10.454-3.333
				c1.367,6.765,2.73,13.53,4.083,20.298c4.039,20.191,7.983,40.41,11.301,60.734c0.047,0.289,0.118,0.552,0.201,0.802h8.382
				C127.538,440.462,127.796,439.336,127.586,438.051z M80.439,193.281c-2.041-11.563-4.039-23.133-5.962-34.717
				c-2.555-15.392-5.003-30.802-7.352-46.227c19.644-5.306,39.956-8.672,60.269-9.762c13.092-0.702,28.087,2.419,39.974-4.752
				c4.92-2.968,7.173-7.475,8.027-12.973c0.156-1.001,0.27-2.01,0.475-3.003c0.105-0.508,0.231-1.007,0.351-1.512
				c0.077-0.323,0.537-1.465,0.474-1.386c1.041-2.121,1.969-2.989,3.93-4.205c1.954-1.212,4.062-2.136,6.238-2.893
				c2.962,14.571,6.051,29.628,5.824,44.529c-0.052,3.435-0.062,6.058-1.366,9.249c0.125-0.405-0.741,0.987-0.748,1.114
				c-0.149,0.138-0.31,0.267-0.343,0.311c-0.392,0.131-0.911,0.219-1.172,0.261c-0.623,0.037-1.245,0.049-1.871,0.05
				c-1.794,0.003-3.567-0.116-5.344,0.247c-4.781,0.978-7.451,4.695-8.246,9.346c-0.331,1.936-0.416,3.899-0.365,5.858
				c0.115,4.378,2.351,7.944,3.733,12.048c3.827,11.363,5.097,23.431,3.625,35.329c-0.337,2.725,2.465,4.53,4.757,4.757
				c4.609,0.457,9.265,0.756,13.846,1.452c1.42,0.216,2.928,0.428,4.29,0.913c0.321,0.114,1.545,0.766,1.285,0.537
				c0.773,0.68,0.542,0.305,1.05,1.514c-0.06-0.143,0.568,1.88,0.743,2.557c0.642,2.488,1.142,5.015,1.659,7.536
				c-9.35,0.943-18.734,1.513-28.113,1.402c-9.026-0.107-18.09-0.898-26.711-3.722c-10.943-3.586-21.495-11.314-33.822-13.601
				c-3.797-0.705-7.627-1.133-11.472-1.358l-1.687,0.251l-0.05-0.336c-8.343-0.357-16.746,0.202-25.027,1.017
				C81.02,193.143,80.723,193.204,80.439,193.281z M104.947,321.432c-1.844-9.091-3.666-18.186-5.476-27.284
				c28.477-7.343,57.973-9.535,87.089-13.607c2.296,11.095,2.848,22.609,0.255,33.701c-0.485,2.074,0.323,4.267,2.186,5.372
				c3.916,2.323,7.986,2.204,12.358,2.262c1.328,0.017,2.069-0.112,2.529,0.473c1.251,1.593,1.099,4.862,0.982,7.191
				c-0.17,0.471-0.273,0.995-0.291,1.576c-0.151,4.826-0.091,9.721-0.498,14.533c-0.44,5.196-2.374,8.038-7.248,9.874
				c-9.72,3.662-20.145,6.073-30.233,8.485c-9.8,2.343-19.74,4.542-29.724,5.943c-7.08,0.994-14.446,1.228-21.366,3.167
				C112.032,355.878,108.442,338.659,104.947,321.432z"/>
			
				<rect x="91.605" y="209.09" transform="matrix(0.9892 -0.1469 0.1469 0.9892 -30.9611 16.9376)" style="opacity:0.3;fill:#C7B299;" width="15.221" height="18.076"/>
			
				<rect x="93.508" y="231.922" transform="matrix(0.9892 -0.1469 0.1469 0.9892 -34.2936 17.4645)" style="opacity:0.3;fill:#C7B299;" width="15.221" height="18.076"/>
			
				<rect x="97.313" y="254.755" transform="matrix(0.9892 -0.1469 0.1469 0.9892 -37.606 18.2712)" style="opacity:0.3;fill:#C7B299;" width="15.221" height="18.076"/>
			
				<rect x="77.335" y="119.664" transform="matrix(0.9892 -0.1469 0.1469 0.9892 -17.9816 13.8719)" style="opacity:0.3;fill:#C7B299;" width="15.221" height="18.076"/>
			
				<rect x="171.518" y="102.54" transform="matrix(0.9892 -0.1469 0.1469 0.9892 -14.4451 27.5191)" style="opacity:0.3;fill:#C7B299;" width="15.221" height="18.076"/>
			
				<rect x="79.238" y="142.496" transform="matrix(0.9892 -0.1469 0.1469 0.9892 -21.3142 14.3988)" style="opacity:0.3;fill:#C7B299;" width="15.221" height="18.076"/>
			
				<rect x="83.043" y="165.328" transform="matrix(0.9892 -0.1469 0.1469 0.9892 -24.6267 15.2056)" style="opacity:0.3;fill:#C7B299;" width="15.221" height="18.075"/>
			<polygon style="opacity:0.3;fill:#C7B299;" points="106.169,64.222 105.286,58.275 89.897,58.275 91.112,66.457 			"/>
			<polygon style="opacity:0.3;fill:#C7B299;" points="131.855,61.368 131.396,58.275 116.007,58.275 116.799,63.603 			"/>
			
				<rect x="119.194" y="67.34" transform="matrix(0.9892 -0.1469 0.1469 0.9892 -9.8427 19.4524)" style="opacity:0.3;fill:#C7B299;" width="15.221" height="18.075"/>
			<polygon style="opacity:0.3;fill:#C7B299;" points="152.742,58.275 142.259,58.275 142.485,59.798 			"/>
			
				<rect x="144.88" y="63.535" transform="matrix(0.9892 -0.1469 0.1469 0.9892 -9.0053 23.1839)" style="opacity:0.3;fill:#C7B299;" width="15.221" height="18.075"/>
			<polygon style="opacity:0.3;fill:#C7B299;" points="190.796,58.275 180.312,58.275 180.538,59.798 			"/>
			<polygon style="opacity:0.3;fill:#C7B299;" points="177.519,61.368 177.06,58.275 161.672,58.275 162.463,63.603 			"/>
			
				<rect x="35.476" y="97.783" transform="matrix(0.9892 -0.1469 0.1469 0.9892 -15.2217 7.4866)" style="opacity:0.3;fill:#C7B299;" width="15.221" height="18.076"/>
			
				<rect x="39.281" y="120.615" transform="matrix(0.9892 -0.1469 0.1469 0.9892 -18.5338 8.2931)" style="opacity:0.3;fill:#C7B299;" width="15.221" height="18.076"/>
			<path style="opacity:0.3;fill:#C7B299;" d="M43.835,58.275h-0.516c-5.114,0-9.26,4.146-9.26,9.259v2.159l11.223-1.666
				L43.835,58.275z"/>
			<polygon style="opacity:0.3;fill:#C7B299;" points="46.433,72.98 34.059,74.817 34.059,93.091 49.088,90.859 			"/>
			
				<rect x="69.724" y="280.441" transform="matrix(0.9892 -0.1469 0.1469 0.9892 -41.6778 14.4977)" style="opacity:0.3;fill:#C7B299;" width="15.221" height="18.076"/>
			
				<rect x="73.529" y="303.273" transform="matrix(0.9892 -0.1469 0.1469 0.9892 -44.9897 15.304)" style="opacity:0.3;fill:#C7B299;" width="15.221" height="18.075"/>
			
				<rect x="77.335" y="326.105" transform="matrix(0.9892 -0.1469 0.1469 0.9892 -48.3039 16.1114)" style="opacity:0.3;fill:#C7B299;" width="15.221" height="18.076"/>
			
				<rect x="41.184" y="333.716" transform="matrix(0.9892 -0.1469 0.1469 0.9892 -49.8116 10.8835)" style="opacity:0.3;fill:#C7B299;" width="15.221" height="18.076"/>
			
				<rect x="37.379" y="310.884" transform="matrix(0.9892 -0.1469 0.1469 0.9892 -46.4995 10.077)" style="opacity:0.3;fill:#C7B299;" width="15.221" height="18.075"/>
			
				<rect x="44.989" y="356.548" transform="matrix(0.9892 -0.1469 0.1469 0.9892 -53.1238 11.69)" style="opacity:0.3;fill:#C7B299;" width="15.221" height="18.076"/>
			
				<rect x="48.795" y="379.381" transform="matrix(0.9892 -0.1469 0.1469 0.9892 -56.4383 12.4972)" style="opacity:0.3;fill:#C7B299;" width="15.221" height="18.076"/>
			
				<rect x="117.291" y="229.068" transform="matrix(0.9892 -0.1469 0.1469 0.9892 -33.6165 20.9267)" style="opacity:0.3;fill:#C7B299;" width="15.221" height="18.076"/>
			
				<rect x="121.097" y="251.901" transform="matrix(0.9892 -0.1469 0.1469 0.9892 -36.9289 21.7334)" style="opacity:0.3;fill:#C7B299;" width="15.221" height="18.076"/>
			
				<rect x="138.221" y="226.214" transform="matrix(0.9892 -0.1469 0.1469 0.9892 -32.9704 23.9697)" style="opacity:0.3;fill:#C7B299;" width="15.221" height="18.075"/>
			
				<rect x="142.026" y="249.047" transform="matrix(0.9892 -0.1469 0.1469 0.9892 -36.2828 24.7764)" style="opacity:0.3;fill:#C7B299;" width="15.221" height="18.076"/>
			
				<rect x="161.053" y="226.214" transform="matrix(0.9892 -0.1469 0.1469 0.9892 -32.7228 27.3231)" style="opacity:0.3;fill:#C7B299;" width="15.221" height="18.075"/>
			
				<rect x="164.858" y="249.047" transform="matrix(0.9892 -0.1469 0.1469 0.9892 -36.0352 28.1298)" style="opacity:0.3;fill:#C7B299;" width="15.221" height="18.076"/>
			
				<rect x="182.934" y="226.214" transform="matrix(0.9892 -0.1469 0.1469 0.9892 -32.4866 30.538)" style="opacity:0.3;fill:#C7B299;" width="15.222" height="18.075"/>
			
				<rect x="186.739" y="249.047" transform="matrix(0.9892 -0.1469 0.1469 0.9892 -35.7976 31.3433)" style="opacity:0.3;fill:#C7B299;" width="15.221" height="18.076"/>
			
				<rect x="205.766" y="222.409" transform="matrix(0.9892 -0.1469 0.1469 0.9892 -31.6792 33.8492)" style="opacity:0.3;fill:#C7B299;" width="15.221" height="18.076"/>
			
				<rect x="209.571" y="245.241" transform="matrix(0.9892 -0.1469 0.1469 0.9892 -34.9911 34.6554)" style="opacity:0.3;fill:#C7B299;" width="15.221" height="18.076"/>
			<path style="opacity:0.5;fill:#127758;" d="M200.534,327.532c0,0-14.27-2.854-16.173-3.805c-1.903-0.951,3.805-37.102,0-38.054
				c-3.805-0.951-78.01,13.319-78.01,13.319s11.416,68.497,14.27,68.497c2.854,0,73.253-13.319,75.156-15.221
				S200.534,327.532,200.534,327.532z"/>
			<polygon style="opacity:0.3;fill:#C7B299;" points="124.426,390.321 132.384,439.491 155.891,439.491 146.307,386.516 			"/>
			<polygon style="opacity:0.3;fill:#C7B299;" points="152.015,383.01 160.925,439.791 184.432,439.791 173.896,379.205 			"/>
			<polygon style="opacity:0.3;fill:#C7B299;" points="179.604,378.254 189.465,439.791 212.972,439.791 201.485,374.448 			"/>
			<polygon style="opacity:0.3;fill:#C7B299;" points="198.979,184.531 222.485,184.531 212.901,131.556 191.972,142.02 			"/>
			<polygon style="opacity:0.3;fill:#C7B299;" points="227.519,184.831 229.98,184.831 229.98,126.073 218.609,128.05 			"/>
			<polygon style="opacity:0.3;fill:#C7B299;" points="203.388,75.453 213.249,122.042 229.98,122.042 229.98,92.863 
				225.269,72.573 			"/>
			<polygon style="opacity:0.3;fill:#C7B299;" points="63.305,188.379 59.672,163.912 34.059,167.715 34.059,179.261 
				36.015,192.431 			"/>
			
				<rect x="38.805" y="195.296" transform="matrix(0.9892 -0.1469 0.1469 0.9892 -29.9298 9.9776)" style="opacity:0.3;fill:#C7B299;" width="27.589" height="24.735"/>
			
				<rect x="43.562" y="224.787" transform="matrix(0.9892 -0.1469 0.1469 0.9892 -34.2098 10.9961)" style="opacity:0.3;fill:#C7B299;" width="27.589" height="24.735"/>
			
				<rect x="133.94" y="115.383" transform="matrix(0.9892 -0.1469 0.1469 0.9892 -17.1615 23.0844)" style="opacity:0.3;fill:#C7B299;" width="27.589" height="24.735"/>
			
				<rect x="138.697" y="144.875" transform="matrix(0.9892 -0.1469 0.1469 0.9892 -21.4411 24.1023)" style="opacity:0.3;fill:#C7B299;" width="27.589" height="24.735"/>
			
				<rect x="143.453" y="174.366" transform="matrix(0.9892 -0.1469 0.1469 0.9892 -25.721 25.1207)" style="opacity:0.3;fill:#C7B299;" width="27.589" height="24.735"/>
			
				<rect x="94.935" y="106.821" transform="matrix(0.9892 -0.1469 0.1469 0.9892 -16.3268 17.2625)" style="opacity:0.3;fill:#C7B299;" width="27.589" height="24.735"/>
			
				<rect x="99.691" y="136.312" transform="matrix(0.9892 -0.1469 0.1469 0.9892 -20.6065 18.2806)" style="opacity:0.3;fill:#C7B299;" width="27.589" height="24.735"/>
			<path style="opacity:0.3;fill:#C7B299;" d="M130.071,163.912l-27.29,4.052l3.583,24.131c0.579,0.025,1.158,0.052,1.737,0.086
				l25.603-3.802L130.071,163.912z"/>
			<path style="fill:#998675;" d="M106.414,192.431l1.687-0.251c-0.578-0.034-1.158-0.061-1.737-0.086L106.414,192.431z"/>
			<path style="opacity:0.3;fill:#C7B299;" d="M106.414,192.431l1.687-0.251c-0.578-0.034-1.158-0.061-1.737-0.086L106.414,192.431z
				"/>
			<polygon style="opacity:0.3;fill:#C7B299;" points="35.888,230.506 34.059,230.778 34.059,255.784 39.521,254.973 			"/>
			<polygon style="opacity:0.3;fill:#C7B299;" points="40.645,262.852 34.059,263.83 34.059,288.836 44.278,287.318 			"/>
			<path style="opacity:0.5;fill:#127758;" d="M84.47,373.197c0,0,5.708,29.492,6.659,32.346
				c0.951,2.854-55.178,20.929-55.178,20.929v11.242c1.691,2.224,4.357,3.667,7.367,3.667h70.387L98.74,367.489L84.47,373.197z"/>
			<path style="opacity:0.5;fill:#127758;" d="M71.151,93.502c2.854,0,43.762,0,43.762-3.805c0-3.805-0.951-15.222-3.805-17.124
				c-2.854-1.903-25.686,4.757-25.686,2.854c0-1.305-0.896-11.119-2.073-17.152h-16.39C67.198,63.944,68.571,93.502,71.151,93.502z"
				/>
		</g>
		<g>
			<path style="fill:#73260A;" d="M74.149,164.842v27.669h58.84v-1.187h-1.174V164.61c0-0.917-0.735-1.66-1.642-1.66l-54.468,0.311
				C74.843,163.266,74.149,163.972,74.149,164.842z"/>
			<path style="fill:#73260A;" d="M52.539,192.511h21.61v-18.164h-8.21c-0.533,0-1.045,0.212-1.426,0.59l-3.987,6.296
				c-0.591,0.588-4.942,1.873-5.785,2.203c-0.395,0.153-0.806,0.251-1.221,0.324c-0.216,0.038-0.402,0.11-0.546,0.226
				c-0.208,0.163-0.329,0.414-0.334,0.78L52.539,192.511z"/>
			<rect x="74.145" y="168.055" style="fill:#BF5B04;" width="57.669" height="1.068"/>
			
				<rect x="131.814" y="186.575" transform="matrix(-1 -1.224647e-16 1.224647e-16 -1 264.5675 375.0495)" style="fill:#D9310B;" width="0.939" height="1.9"/>
			
				<rect x="52.656" y="185.388" transform="matrix(-1 -1.224647e-16 1.224647e-16 -1 106.1346 373.0313)" style="fill:#F15A24;" width="0.822" height="2.256"/>
			<polygon style="fill:#BF5B04;" points="73.092,191.68 73.092,175.415 65.228,175.415 61.582,181.389 62.757,187.412 
				65.677,191.565 			"/>
			<polygon style="fill:#89BADB;" points="72.857,175.653 72.857,181.47 61.817,181.47 62.991,179.571 65.34,175.653 			"/>
			<g style="opacity:0.4;">
				<path style="fill:#1A1A1A;" d="M105.976,192.214c0,0.1,0.002,0.198,0.008,0.297h9.731c0.006-0.099,0.008-0.197,0.008-0.297
					c0-2.721-2.182-4.927-4.874-4.927S105.976,189.493,105.976,192.214z"/>
			</g>
			<g style="opacity:0.4;">
				<path style="fill:#1A1A1A;" d="M53.948,192.214c0,0.1,0.002,0.198,0.008,0.297h9.731c0.006-0.099,0.008-0.197,0.008-0.297
					c0-2.721-2.182-4.927-4.874-4.927C56.13,187.287,53.948,189.493,53.948,192.214z"/>
			</g>
			<g>
				<g>
					<path style="fill:#1A1A1A;" d="M106.784,192.24c0,2.266,1.818,4.103,4.059,4.103c0.817,0,1.578-0.244,2.215-0.664
						c1.11-0.732,1.844-2,1.844-3.439c0-2.266-1.817-4.103-4.059-4.103c-1.755,0-3.249,1.126-3.816,2.701c0,0.001,0,0.001,0,0.001
						C106.87,191.275,106.784,191.747,106.784,192.24z"/>
				</g>
				<g>
					<path d="M107.888,192.24c0,1.65,1.324,2.988,2.956,2.988c0.595,0,1.149-0.178,1.613-0.483c0.809-0.533,1.343-1.456,1.343-2.505
						c0-1.65-1.324-2.988-2.956-2.988c-1.278,0-2.366,0.82-2.779,1.967c0,0.001,0,0.001,0,0.001
						C107.95,191.538,107.888,191.881,107.888,192.24z"/>
				</g>
				<path style="fill:#B3B3B3;" d="M108.36,192.24c0,1.386,1.112,2.51,2.483,2.51s2.483-1.124,2.483-2.51
					c0-1.386-1.112-2.51-2.483-2.51S108.36,190.853,108.36,192.24z M108.597,192.24c0-1.254,1.006-2.271,2.246-2.271
					s2.246,1.017,2.246,2.271c0,1.254-1.006,2.271-2.246,2.271S108.597,193.493,108.597,192.24z"/>
				<path style="fill:#B3B3B3;" d="M108.839,193.622l0.961-0.879c0.223-0.204,0.144-0.576-0.143-0.669l-1.199-0.39l0.173-0.542
					l1.234,0.402c0.286,0.093,0.565-0.162,0.502-0.459l-0.265-1.245l0.545-0.029l0.279,1.19c0.063,0.297,0.421,0.414,0.645,0.21
					l0.934-0.855l0.378,0.423l-0.961,0.879c-0.223,0.204-0.144,0.576,0.143,0.669l1.199,0.39l-0.173,0.542l-1.234-0.402
					c-0.286-0.093-0.565,0.162-0.502,0.459l0.265,1.245l-0.551,0.12l-0.273-1.281c-0.063-0.297-0.421-0.414-0.644-0.21l-0.934,0.855
					L108.839,193.622z"/>
				<path d="M110.567,192.24c0,0.154,0.123,0.279,0.276,0.279c0.152,0,0.276-0.125,0.276-0.279c0-0.154-0.123-0.279-0.276-0.279
					C110.691,191.961,110.567,192.085,110.567,192.24z"/>
				<path style="opacity:0.1;fill:#999999;" d="M107.014,191.084c0,2.64,2.117,4.78,4.729,4.78c0.454,0,0.893-0.064,1.308-0.186
					c1.111-0.732,1.844-2,1.844-3.439c0-2.266-1.817-4.103-4.059-4.103c-1.755,0-3.249,1.126-3.816,2.701c0,0.001,0,0.001,0,0.001
					C107.017,190.919,107.014,191.001,107.014,191.084z"/>
			</g>
			<path style="fill:#BF5B04;" d="M80.491,187.05h7.986h43.337v1.068h-18.256c-0.774-0.526-1.706-0.831-2.708-0.831
				s-1.934,0.305-2.708,0.831H88.477h-7.986h-6.342v-1.068H80.491z"/>
			<path style="opacity:0.2;fill:#736357;" d="M125.371,191.221h2.947c0.419,0,0.758-0.339,0.758-0.758v-1.333
				c0-0.419-0.339-0.758-0.758-0.758h-2.947c-0.419,0-0.758,0.339-0.758,0.758v1.333
				C124.613,190.882,124.952,191.221,125.371,191.221z"/>
			<g style="opacity:0.4;">
				<path style="fill:#1A1A1A;" d="M125.488,191.102h2.947c0.419,0,0.758-0.339,0.758-0.758v-1.333c0-0.419-0.339-0.758-0.758-0.758
					h-2.947c-0.419,0-0.758,0.339-0.758,0.758v1.333C124.73,190.763,125.069,191.102,125.488,191.102z"/>
			</g>
			<path style="fill:#73260A;" d="M125.619,190.865h2.684c0.361,0,0.655-0.293,0.655-0.655v-1.065c0-0.361-0.293-0.655-0.655-0.655
				h-2.684c-0.361,0-0.655,0.293-0.655,0.655v1.065C124.965,190.572,125.258,190.865,125.619,190.865z"/>
			<circle style="fill:#736357;" cx="126.961" cy="190.509" r="0.118"/>
			<g>
				<polygon style="fill:#AFD4E8;" points="69.351,175.653 72.145,181.47 72.857,181.47 72.857,180.224 70.66,175.653 				"/>
				<polygon style="fill:#AFD4E8;" points="67.574,175.653 70.369,181.47 71.304,181.47 68.51,175.653 				"/>
				<polygon style="fill:#AFD4E8;" points="62.998,179.559 63.916,181.47 65.973,181.47 64.14,177.654 				"/>
				<polygon style="fill:#AFD4E8;" points="64.399,177.221 66.441,181.47 67.189,181.47 64.815,176.529 				"/>
				<polygon style="fill:#AFD4E8;" points="62.525,180.326 63.075,181.47 63.448,181.47 62.735,179.985 				"/>
				<polygon style="fill:#AFD4E8;" points="71.222,175.653 72.857,179.057 72.857,178.278 71.595,175.653 				"/>
			</g>
			<g>
				<g>
					<path style="fill:#1A1A1A;" d="M54.756,192.358c0,2.266,1.818,4.103,4.059,4.103c0.817,0,1.578-0.244,2.215-0.664
						c1.111-0.732,1.844-2,1.844-3.439c0-2.266-1.818-4.103-4.059-4.103c-1.755,0-3.249,1.126-3.816,2.701c0,0.001,0,0.001,0,0.001
						C54.842,191.394,54.756,191.866,54.756,192.358z"/>
				</g>
				<g>
					<path d="M55.86,192.358c0,1.65,1.324,2.988,2.956,2.988c0.595,0,1.149-0.178,1.613-0.483c0.809-0.533,1.343-1.456,1.343-2.505
						c0-1.65-1.324-2.988-2.956-2.988c-1.278,0-2.366,0.82-2.779,1.967c0,0.001,0,0.001,0,0.001
						C55.922,191.656,55.86,192,55.86,192.358z"/>
				</g>
				<path style="fill:#B3B3B3;" d="M56.333,192.358c0,1.386,1.112,2.51,2.483,2.51s2.483-1.124,2.483-2.51s-1.112-2.51-2.483-2.51
					S56.333,190.972,56.333,192.358z M56.569,192.358c0-1.254,1.006-2.271,2.246-2.271s2.246,1.017,2.246,2.271
					s-1.006,2.271-2.246,2.271S56.569,193.612,56.569,192.358z"/>
				<path style="fill:#B3B3B3;" d="M56.811,193.741l0.961-0.879c0.223-0.204,0.144-0.576-0.142-0.669l-1.199-0.39l0.173-0.543
					l1.234,0.402c0.286,0.093,0.565-0.162,0.502-0.459l-0.265-1.245l0.545-0.029l0.279,1.19c0.063,0.297,0.421,0.414,0.645,0.21
					l0.934-0.855l0.378,0.423l-0.961,0.879c-0.223,0.204-0.144,0.576,0.143,0.669l1.199,0.39l-0.173,0.543l-1.234-0.402
					c-0.286-0.093-0.565,0.162-0.502,0.459l0.265,1.245l-0.551,0.12l-0.273-1.281c-0.063-0.297-0.421-0.414-0.645-0.21l-0.934,0.855
					L56.811,193.741z"/>
				<ellipse cx="58.815" cy="192.358" rx="0.276" ry="0.279"/>
				<path style="opacity:0.1;fill:#999999;" d="M54.986,191.203c0,2.64,2.117,4.78,4.729,4.78c0.454,0,0.893-0.065,1.308-0.186
					c1.111-0.732,1.844-2,1.844-3.439c0-2.266-1.818-4.103-4.059-4.103c-1.754,0-3.249,1.126-3.816,2.701c0,0.001,0,0.001,0,0.001
					C54.989,191.038,54.986,191.12,54.986,191.203z"/>
			</g>
			<g>
				<g>
					<path style="fill:#DBD8D5;" d="M62.703,183.053c-0.854,0-1.547-0.7-1.547-1.564s0.693-1.564,1.547-1.564
						S63.557,183.053,62.703,183.053z"/>
				</g>
				<g>
					<path style="fill:#73260A;" d="M62.703,183.053c-0.854,0-1.547-0.7-1.547-1.564s0.693-1.564,1.547-1.564
						S63.557,183.053,62.703,183.053z"/>
				</g>
				<g style="opacity:0.5;">
					<path style="fill:#DBD8D5;" d="M62.948,180.025c0.35,0.857,0.198,2.698-0.458,2.698c-0.473,0-0.896-0.215-1.18-0.553
						c0.25,0.523,0.78,0.883,1.393,0.883C63.466,183.053,63.548,180.559,62.948,180.025z"/>
				</g>
				<g style="opacity:0.4;">
					<path style="fill:#FFFFFF;" d="M62.266,180.309c-0.2,0.047-0.379,0.137-0.535,0.272c-0.076,0.066-0.141,0.143-0.199,0.224
						c-0.062,0.087-0.097,0.177-0.122,0.281c-0.017,0.072,0.079,0.114,0.118,0.05c0.185-0.304,0.431-0.574,0.777-0.687
						C62.393,180.422,62.357,180.288,62.266,180.309z"/>
				</g>
			</g>
			
				<rect x="74.145" y="171.745" transform="matrix(-1 -1.224647e-16 1.224647e-16 -1 177.6363 349.0317)" style="fill:#BF5B04;" width="29.346" height="5.542"/>
			
				<rect x="74.145" y="179.54" transform="matrix(-1 -1.224647e-16 1.224647e-16 -1 163.9308 364.6211)" style="fill:#BF5B04;" width="15.64" height="5.542"/>
			
				<rect x="119.615" y="171.745" transform="matrix(-1 -1.224647e-16 1.224647e-16 -1 251.3237 349.5206)" style="fill:#BF5B04;" width="12.093" height="6.031"/>
			
				<rect x="116.068" y="179.636" transform="matrix(-1 -1.224647e-16 1.224647e-16 -1 247.7763 364.8129)" style="fill:#BF5B04;" width="15.641" height="5.542"/>
			
				<text transform="matrix(0.9893 0 0 1 90.2715 185.0166)" style="fill:#BF5B04; font-family:'Bangers-Regular'; font-size:8.5116px;">Delivery</text>
			
				<text transform="matrix(0.9893 0 0 1 103.98 177.7773)" style="fill:#BF5B04; font-family:'Bangers-Regular'; font-size:8.5116px;">food</text>
		</g>
		<path style="opacity:0.8;fill:#FFFFFF;" d="M215.108,118.237H48.014c-4.035,0-7.306-3.271-7.306-7.306V80.83
			c0-4.035,3.271-7.306,7.306-7.306h167.094c4.035,0,7.306,3.271,7.306,7.306v30.101
			C222.415,114.966,219.143,118.237,215.108,118.237z"/>
		<text transform="matrix(1 0 0 1 58.8979 91.8994)"><tspan x="0" y="0" style="font-family:'BebasNeue-Regular'; font-size:15.5017px;">Your order has</tspan><tspan x="0" y="18.602" style="font-family:'BebasNeue-Regular'; font-size:15.5017px;">arrived</tspan></text>
		<g>
			<path style="fill:#73260A;" d="M200.703,97.511h-26.025c-0.432,0-0.782-0.35-0.782-0.782v-0.797c0-0.432,0.35-0.782,0.782-0.782
				h26.025c0.432,0,0.782,0.35,0.782,0.782v0.797C201.485,97.161,201.135,97.511,200.703,97.511z"/>
			<path style="fill:#73260A;" d="M176.257,97.216l3.036,11.508h17.238l3.036-11.508H176.257z M182.01,107.328
				c0,0.282-0.229,0.51-0.51,0.51h-0.897c-0.282,0-0.51-0.229-0.51-0.51v-8.569c0-0.282,0.229-0.511,0.51-0.511h0.897
				c0.282,0,0.51,0.229,0.51,0.511V107.328z M185.256,107.328c0,0.282-0.229,0.51-0.511,0.51h-0.897c-0.282,0-0.51-0.229-0.51-0.51
				v-8.569c0-0.282,0.229-0.511,0.51-0.511h0.897c0.282,0,0.511,0.229,0.511,0.511V107.328z M188.502,107.328
				c0,0.282-0.229,0.51-0.51,0.51h-0.897c-0.282,0-0.51-0.229-0.51-0.51v-8.569c0-0.282,0.229-0.511,0.51-0.511h0.897
				c0.282,0,0.51,0.229,0.51,0.511V107.328z M191.748,107.328c0,0.282-0.229,0.51-0.511,0.51h-0.897c-0.282,0-0.51-0.229-0.51-0.51
				v-8.569c0-0.282,0.229-0.511,0.51-0.511h0.897c0.282,0,0.511,0.229,0.511,0.511V107.328z M194.994,107.328
				c0,0.282-0.229,0.51-0.51,0.51h-0.897c-0.282,0-0.51-0.229-0.51-0.51v-8.569c0-0.282,0.229-0.511,0.51-0.511h0.897
				c0.282,0,0.51,0.229,0.51,0.511V107.328z"/>
			<polygon style="fill:#73260A;" points="176.471,95.792 176.193,95.395 186.517,83.832 186.795,84.229 			"/>
			<polygon style="fill:#73260A;" points="199.358,95.787 199.636,95.39 189.301,83.837 189.023,84.234 			"/>
			<path style="fill:#73260A;" d="M187.617,84.085c0,0.57-0.462,1.033-1.033,1.033c-0.57,0-1.033-0.462-1.033-1.033
				c0-0.57,0.462-1.033,1.033-1.033C187.154,83.052,187.617,83.515,187.617,84.085z"/>
			<path style="fill:#73260A;" d="M190.125,84.085c0,0.57-0.462,1.033-1.033,1.033s-1.033-0.462-1.033-1.033
				c0-0.57,0.462-1.033,1.033-1.033S190.125,83.515,190.125,84.085z"/>
		</g>
		<path style="fill:#BF5B04;" d="M114.194,115.535c-8.629,0-15.624,6.995-15.624,15.625c0,8.125,15.624,27.499,15.624,27.499
			s15-17.5,15.624-27.499C130.356,122.547,122.823,115.535,114.194,115.535z M114.26,138.406c-4.267,0-7.726-3.459-7.726-7.726
			c0-4.267,3.459-7.726,7.726-7.726c4.267,0,7.726,3.459,7.726,7.726C121.986,134.947,118.527,138.406,114.26,138.406z"/>
	</g>
	<g>
		<polygon style="fill:#1F526B;" points="240.49,350.365 231.928,441.694 196.728,441.694 195.392,390.939 179.001,351.312 		"/>
		<polygon style="fill:#1F526B;" points="149.388,349.577 146.307,441.694 196.728,441.694 202.13,350.513 		"/>
		<path style="fill:#3E6E8C;" d="M133.069,225.867c0,0,81.484-5.305,85.905,0c5.922,7.106,27.519,37.68,28.635,47.163
			c2.369,20.134-8.198,95.507-8.422,90.958c-0.083-1.673-90.523,6.865-91.707,3.312
			C146.295,363.748,127.147,237.711,133.069,225.867z"/>
		<path style="fill:#3E6E8C;" d="M133.069,225.867c0,0-54.815,65.314-45.992,86.953c8.764,21.493,85.275,36.715,85.275,36.715
			l3.553-24.872c0,0-51.23-9.353-56.85-23.687c-4.159-10.609,22.436-34.683,22.436-34.683L133.069,225.867z"/>
		<path style="fill:#EAB39F;" d="M169.529,168.941c-13.589,2.024-17.348,43.947,2.313,45.682
			c11.531,1.017,15.902-15.324,10.119-29.202C178.214,176.426,177.13,167.809,169.529,168.941z"/>
		<path style="fill:#EAB39F;" d="M159.41,202.19l3.469,22.552c0,0,0.578,8.674,10.409,9.252c9.881,0.581,9.83-9.252,9.83-9.252
			l-3.47-17.347L159.41,202.19z"/>
		<path style="fill:#736357;" d="M162.089,183.174c2.018-0.186-0.486-14.486-6.461-13.581c-0.56,0.085-1.189,0.239-1.462,0.734
			c-0.148,0.268-0.16,0.588-0.169,0.894c-0.139,4.913-0.272,9.891,0.84,14.679c0.415,1.786,1.002,3.539,1.216,5.361
			c0.107,0.91,0.122,1.842,0.417,2.709c0.257,0.753,0.714,1.403,1.093,2.095c0.329,0.599,0.491,1.288,0.832,1.872
			c0.544,0.933,1.85,1.05,2.238-0.059c0.389-1.112,0.296-2.508,0.609-3.678c0.454-1.699,0.758-3.439,0.91-5.191
			C162.193,188.527,162.315,183.154,162.089,183.174z"/>
		<path style="fill:#EAB39F;" d="M160.855,194.383c0,0-0.388-6.874-5.204-4.626c-4.337,2.024,0.796,12.005,3.867,11.785
			C162.59,201.322,160.855,194.383,160.855,194.383z"/>
		<g>
			<g>
				<path style="fill:#534741;" d="M174.455,186.776c0.505,3.785,1.275,7.747,3.545,10.912c0.047-0.181,0.095-0.361,0.142-0.542
					c-0.613,0.457-1.317,0.635-2.076,0.568c-0.403-0.036-0.495,0.631-0.096,0.71c0.928,0.183,1.817-0.017,2.571-0.594
					c0.156-0.119,0.281-0.353,0.142-0.542c-2.287-3.105-2.943-6.898-3.753-10.577C174.873,186.45,174.418,186.502,174.455,186.776
					L174.455,186.776z"/>
			</g>
		</g>
		<g>
			<g>
				<path style="fill:#534741;" d="M170.506,185.477c-0.394-0.358-1.126-0.158-1.592-0.055c-0.51,0.113-1.006,0.31-1.47,0.548
					c-0.465,0.239-0.906,0.535-1.3,0.879c-0.189,0.165-0.377,0.341-0.537,0.534c-0.151,0.181-0.434,0.466-0.402,0.716
					c0.024,0.185,0.148,0.281,0.334,0.254c0.217-0.032,0.362-0.274,0.511-0.42c0.172-0.168,0.339-0.34,0.521-0.497
					c0.351-0.302,0.731-0.566,1.139-0.785c0.398-0.214,0.815-0.372,1.248-0.499c0.23-0.068,0.464-0.123,0.7-0.163
					c0.244-0.042,0.491-0.036,0.733-0.079C170.582,185.878,170.643,185.602,170.506,185.477L170.506,185.477z"/>
			</g>
		</g>
		<g>
			<g>
				<path style="fill:#534741;" d="M177.043,185.369c0.196-0.053,0.406-0.064,0.605-0.108c0.175-0.039,0.349-0.079,0.527-0.106
					c0.372-0.057,0.753-0.069,1.129-0.057c0.377,0.011,0.749,0.06,1.116,0.147c0.322,0.076,0.794,0.328,1.102,0.133
					c0.096-0.061,0.143-0.172,0.115-0.282c-0.101-0.4-0.713-0.504-1.055-0.579c-0.418-0.093-0.848-0.146-1.277-0.155
					c-0.415-0.009-0.831,0.034-1.239,0.109c-0.212,0.039-0.427,0.085-0.632,0.155c-0.212,0.072-0.386,0.188-0.583,0.287
					C176.593,185.041,176.774,185.441,177.043,185.369L177.043,185.369z"/>
			</g>
		</g>
		<g>
			<g>
				<path style="fill:#534741;" d="M158.597,192.585c-0.301-0.312-0.632-0.679-1.077-0.764c-0.396-0.075-0.798,0.071-1.101,0.324
					c-0.749,0.627-0.799,1.818-0.732,2.717c0.073,0.959,0.371,1.899,0.958,2.669c0.269,0.352,0.582,0.655,0.946,0.908
					c0.272,0.189,0.867,0.565,1.182,0.324c0.092-0.071,0.143-0.164,0.115-0.282c-0.069-0.291-0.436-0.394-0.669-0.54
					c-0.292-0.183-0.552-0.394-0.787-0.647c-0.497-0.533-0.802-1.207-0.952-1.915c-0.148-0.699-0.185-1.55,0.042-2.237
					c0.117-0.355,0.365-0.73,0.765-0.784c0.408-0.055,0.785,0.211,1.086,0.45C158.529,192.933,158.742,192.735,158.597,192.585
					L158.597,192.585z"/>
			</g>
		</g>
		<g>
			<g>
				<path style="fill:#534741;" d="M159.238,196.459c-0.133-0.12-0.263-0.176-0.444-0.15c-0.167,0.024-0.318,0.108-0.439,0.226
					c-0.221,0.216-0.321,0.537-0.342,0.838c-0.021,0.299,0.067,0.601,0.206,0.863c0.146,0.275,0.376,0.574,0.678,0.678
					c0.115,0.04,0.255-0.018,0.325-0.111c0.078-0.105,0.08-0.227,0.024-0.343c-0.053-0.11-0.142-0.195-0.218-0.289
					c-0.031-0.038-0.064-0.076-0.094-0.115c0.037,0.048-0.007-0.012-0.013-0.021c-0.016-0.022-0.031-0.045-0.045-0.068
					c-0.026-0.042-0.05-0.084-0.073-0.128c-0.012-0.024-0.024-0.049-0.035-0.074c0.02,0.046,0.001-0.001-0.007-0.023
					c-0.016-0.045-0.029-0.09-0.04-0.137c-0.006-0.025-0.01-0.051-0.015-0.076c-0.011-0.054,0.005,0.081-0.001-0.016
					c-0.003-0.047-0.006-0.093-0.004-0.14c0.001-0.026,0.004-0.051,0.005-0.077c-0.001,0.033-0.006,0.032,0-0.001
					c0.01-0.051,0.023-0.099,0.038-0.149c0.008-0.026,0.013-0.037-0.001-0.005c0.01-0.024,0.022-0.046,0.034-0.069
					c0.012-0.022,0.025-0.044,0.039-0.066c0.004-0.006,0.052-0.071,0.028-0.041c-0.021,0.027,0.083-0.082,0.039-0.045
					c0.019-0.016,0.041-0.03,0.062-0.043c0.009-0.006,0.064-0.029,0.021-0.014c0.017-0.006,0.036-0.01,0.053-0.016
					c0.042-0.013,0.073-0.009,0.004-0.019c0.099,0.014,0.196-0.01,0.249-0.102C159.32,196.645,159.31,196.524,159.238,196.459
					L159.238,196.459z"/>
			</g>
		</g>
		<g>
			<g>
				<path style="fill:#534741;" d="M179.564,211.039c-0.712,0.548-1.348,1.15-2.147,1.581c-0.793,0.429-1.659,0.722-2.55,0.862
					c-0.976,0.153-1.983,0.115-2.946-0.102c-0.465-0.105-0.919-0.251-1.359-0.432c-0.435-0.179-0.839-0.439-1.281-0.595
					c-0.191-0.067-0.326,0.197-0.192,0.33c0.666,0.663,1.797,1.007,2.691,1.208c1.004,0.225,2.043,0.27,3.061,0.123
					c1.781-0.258,3.935-1.18,4.971-2.727C179.909,211.143,179.709,210.927,179.564,211.039L179.564,211.039z"/>
			</g>
		</g>
		<path style="fill:#534741;" d="M169.247,191.018c0.091,0.632,0.486,1.098,0.881,1.041c0.395-0.057,0.641-0.616,0.549-1.248
			c-0.091-0.632-0.486-1.098-0.881-1.041C169.402,189.827,169.156,190.385,169.247,191.018z"/>
		<path style="fill:#534741;" d="M177.921,189.861c0.091,0.632,0.486,1.098,0.881,1.041c0.395-0.057,0.641-0.616,0.549-1.248
			c-0.091-0.632-0.486-1.098-0.881-1.041C178.076,188.67,177.829,189.229,177.921,189.861z"/>
		<path style="fill:#1F526B;" d="M153.282,183.757c0,0-3.369-13.475,3.369-16.844c8.113-4.057,11.791-3.369,16.844-1.684
			c3.573,1.191,7.773,12.992,7.773,12.992L153.282,183.757z"/>
		<path style="fill:#1F526B;" d="M153.906,183.633c0,0,31.379-1.561,38.117-3.245c6.738-1.684-13.475-3.369-13.475-3.369
			L153.906,183.633z"/>
		<g>
			<g>
				<g>
					<path style="fill:#487238;" d="M203.722,245.446c-1.073-1.827-1.667-3.895-1.721-6.013c-0.016-0.642-1.016-0.645-1,0
						c0.058,2.292,0.696,4.54,1.857,6.518C203.184,246.505,204.049,246.003,203.722,245.446L203.722,245.446z"/>
				</g>
			</g>
			<g>
				<path style="fill:#487238;" d="M201.478,240.11c-0.393-0.204-0.523-0.697-0.575-1.136c-0.327-2.766,0.833-5.479,2.126-7.947
					c0.827,0.5,1.3,1.458,1.411,2.419c0.11,0.96-0.099,1.929-0.378,2.855c-0.227,0.751-0.505,1.497-0.959,2.137
					s-1.1,1.169-1.863,1.351"/>
				<g>
					<path style="fill:#487238;" d="M201.73,239.678c-0.491-0.305-0.392-1.35-0.382-1.84c0.015-0.768,0.14-1.524,0.335-2.266
						c0.395-1.506,1.06-2.917,1.777-4.293c-0.228,0.06-0.456,0.12-0.684,0.179c1.441,0.927,1.309,2.856,0.92,4.298
						c-0.384,1.423-1.006,3.126-2.59,3.55c-0.621,0.166-0.358,1.131,0.266,0.964c2.001-0.535,2.867-2.584,3.332-4.414
						c0.476-1.875,0.362-4.112-1.423-5.261c-0.219-0.141-0.563-0.053-0.684,0.179c-0.854,1.637-1.654,3.346-2.027,5.165
						c-0.176,0.862-0.264,1.748-0.205,2.627c0.05,0.751,0.168,1.545,0.86,1.974C201.774,240.882,202.276,240.017,201.73,239.678
						L201.73,239.678z"/>
				</g>
			</g>
			<path style="fill:#F2C849;" d="M202.673,245.001c0.313-0.332,0.198-4.201,3.677-6.564c5.133-3.486,10.395,2.272,11.819,6.748
				c1.275,4.008-0.025,10.005-6.671,14.398c-6.646,4.393-12.271-0.28-13.268-1.218c-0.996-0.939-5.015-4.374-3.474-8.287
				C196.557,245.506,202.673,245.001,202.673,245.001z"/>
		</g>
		<g>
			<g>
				<g>
					<path style="fill:#487238;" d="M189.528,248.474c0.037-2.119,0.612-4.191,1.671-6.027c0.322-0.559-0.542-1.063-0.863-0.505
						c-1.146,1.987-1.767,4.239-1.807,6.532C188.517,249.118,189.517,249.118,189.528,248.474L189.528,248.474z"/>
				</g>
			</g>
			<g>
				<path style="fill:#487238;" d="M190.394,242.76c-0.229-0.379-0.083-0.867,0.101-1.27c1.162-2.531,3.567-4.242,5.956-5.674
					c0.446,0.858,0.35,1.922-0.057,2.799c-0.407,0.877-1.09,1.595-1.811,2.239c-0.585,0.523-1.211,1.014-1.932,1.324
					c-0.72,0.31-1.549,0.424-2.294,0.182"/>
				<g>
					<path style="fill:#487238;" d="M190.826,242.507c-0.152-0.298,0.063-0.694,0.196-0.963c0.168-0.342,0.361-0.671,0.575-0.986
						c0.413-0.612,0.91-1.161,1.446-1.667c1.099-1.037,2.371-1.867,3.662-2.643c-0.228-0.06-0.456-0.12-0.684-0.179
						c0.734,1.499-0.358,3.068-1.405,4.077c-1.075,1.036-2.529,2.211-4.123,1.733c-0.618-0.185-0.882,0.78-0.266,0.964
						c2,0.599,3.829-0.743,5.18-2.072c1.372-1.35,2.405-3.314,1.478-5.207c-0.118-0.241-0.466-0.311-0.684-0.179
						c-1.486,0.893-2.953,1.868-4.178,3.105c-0.589,0.595-1.122,1.256-1.551,1.976c-0.45,0.755-0.95,1.683-0.508,2.547
						C190.256,243.585,191.119,243.08,190.826,242.507L190.826,242.507z"/>
				</g>
			</g>
			<path style="fill:#D9310B;" d="M188.865,247.557c0.44-0.12,2.358-3.482,6.559-3.685c6.198-0.299,7.687,7.357,6.569,11.919
				c-1.001,4.085-5.236,8.526-13.198,8.811c-7.962,0.285-10.327-6.635-10.688-7.955c-0.361-1.32-2-6.346,1.354-8.883
				C183.382,244.8,188.865,247.557,188.865,247.557z"/>
		</g>
		<g>
			<g>
				<g>
					<path style="fill:#487238;" d="M223.776,249.425c0.037-2.119,0.612-4.191,1.671-6.027c0.322-0.559-0.542-1.063-0.863-0.505
						c-1.145,1.987-1.767,4.239-1.807,6.532C222.765,250.069,223.765,250.069,223.776,249.425L223.776,249.425z"/>
				</g>
			</g>
			<g>
				<path style="fill:#487238;" d="M224.642,243.711c-0.229-0.379-0.083-0.867,0.101-1.27c1.162-2.531,3.567-4.242,5.956-5.674
					c0.445,0.858,0.35,1.922-0.057,2.799c-0.406,0.877-1.09,1.595-1.81,2.239c-0.585,0.523-1.211,1.014-1.932,1.324
					c-0.72,0.31-1.549,0.424-2.294,0.182"/>
				<g>
					<path style="fill:#487238;" d="M225.074,243.459c-0.152-0.298,0.063-0.695,0.196-0.963c0.168-0.342,0.361-0.671,0.575-0.987
						c0.413-0.612,0.91-1.161,1.446-1.667c1.099-1.037,2.371-1.867,3.662-2.643c-0.228-0.06-0.456-0.12-0.684-0.179
						c0.734,1.499-0.358,3.068-1.405,4.077c-1.075,1.036-2.529,2.211-4.123,1.733c-0.618-0.185-0.882,0.78-0.266,0.964
						c2,0.599,3.829-0.743,5.18-2.071c1.372-1.35,2.405-3.314,1.478-5.207c-0.118-0.241-0.466-0.311-0.684-0.179
						c-1.486,0.893-2.953,1.867-4.178,3.105c-0.589,0.595-1.122,1.256-1.551,1.976c-0.45,0.755-0.951,1.683-0.508,2.547
						C224.504,244.536,225.367,244.031,225.074,243.459L225.074,243.459z"/>
				</g>
			</g>
			<path style="fill:#D9310B;" d="M223.114,248.508c0.44-0.12,2.358-3.482,6.559-3.685c6.198-0.299,7.687,7.357,6.569,11.919
				c-1.001,4.085-5.236,8.526-13.198,8.811c-7.962,0.285-10.327-6.635-10.688-7.955c-0.361-1.32-2-6.346,1.355-8.883
				C217.631,245.751,223.114,248.508,223.114,248.508z"/>
		</g>
		<g>
			<path style="fill:#487238;stroke:#487238;stroke-miterlimit:10;" d="M215.941,249.48c0,0-4.964-10.341,0.414-11.996
				c5.378-1.655,7.032,1.655,8.273,2.482c1.241,0.827,1.241-7.859,4.964-7.446c3.723,0.414,8.687,7.032,8.273,8.273
				c-0.414,1.241-1.241-3.309,3.309-2.482c4.55,0.827,4.137,9.1,3.723,10.341c-0.414,1.241,3.309-15.719,9.1-10.755
				c5.791,4.964,0.827,16.96-2.482,18.201C248.206,257.34,224.628,265.199,215.941,249.48z"/>
			<path style="fill:#527C41;" d="M220.149,264.543c-0.965-4.936-1.691-10.108-0.292-14.939c0.219-0.755,0.829-1.668,1.559-1.378
				c0.377,0.15,0.56,0.568,0.705,0.947c0.409,1.066,0.818,2.131,1.227,3.197c0.205,0.534,0.469,1.127,1.008,1.317
				c0.697,0.245,1.413-0.335,1.81-0.958c0.794-1.245,0.994-2.765,1.503-4.15c0.504-1.373,1.326-2.629,2.381-3.641
				c0.467-0.448,1.189-0.861,1.714-0.484c0.274,0.197,0.383,0.549,0.457,0.878c0.571,2.536,0.108,5.185,0.32,7.775
				c0.05,0.614,0.202,1.319,0.752,1.597c1.224,0.619,2.411-1.573,3.733-1.204c-0.063,0.706-0.125,1.433,0.081,2.112
				c0.206,0.679,0.745,1.306,1.449,1.395c0.889,0.112,1.637-0.619,2.232-1.289c1.179-1.327,2.358-2.654,3.537-3.982
				c0.019,1.123,1.424,1.785,2.51,1.499c1.086-0.286,1.89-1.173,2.652-1.998c0.557-0.603,1.127-1.194,1.708-1.774
				c0.281-0.28,0.598-0.573,0.993-0.606c0.459-0.039,0.883,0.307,1.075,0.726c0.192,0.419,0.199,0.897,0.184,1.357
				c-0.166,5.122-2.602,9.851-4.764,14.498c-1.53,3.289-2.948,6.631-4.249,10.017c-0.373,0.97-0.774,1.996-1.601,2.626
				c-0.73,0.556-1.677,0.714-2.573,0.911c-2.083,0.457-4.1,1.215-5.968,2.243c-0.562,0.309-1.121,0.647-1.744,0.8
				c-1.132,0.278-2.342-0.095-3.325-0.721c-0.984-0.626-1.79-1.487-2.625-2.301c-1.021-0.994-2.179-1.823-3.216-2.79
				c-0.782-0.729-0.891-1.412-1.148-2.439C221.467,270.721,220.756,267.645,220.149,264.543z"/>
			<path style="fill:#61894E;" d="M225.673,267.679c-0.406-3.137-0.9-6.314-0.454-9.446c-0.123,0.45,0.209,0.969,0.669,1.046
				c0.204-1.332,1.126-2.532,2.36-3.072c-0.053,0.537-0.029,1.082,0.07,1.612c0.273-0.506,0.546-1.012,0.819-1.517
				c-0.168,3.958-0.337,7.917-0.505,11.875c-0.098,2.311-0.139,4.821,1.225,6.688c0.169,0.232,0.37,0.458,0.638,0.56
				c0.511,0.195,1.101-0.143,1.376-0.616c0.275-0.473,0.314-1.042,0.346-1.588c0.009,0.849,0.937,1.488,1.78,1.391
				c0.844-0.097,1.538-0.754,1.917-1.514c0.38-0.759,0.501-1.617,0.628-2.457c0.654-4.296,1.613-8.545,2.868-12.705
				c0.766,1.582,0.917,3.453,0.415,5.138c-0.101,0.339-0.229,0.679-0.223,1.032c0.006,0.353,0.186,0.733,0.52,0.848
				c0.334,0.115,0.772-0.184,0.691-0.529c-0.326,1.579-0.651,3.157-0.977,4.736c-0.121,0.585-0.24,1.2-0.06,1.769
				c0.18,0.569,0.771,1.055,1.347,0.899c0.977-0.265,0.821-1.775,1.525-2.502c0.133,0.207,0.347,0.36,0.586,0.418
				c2-4.025,3.755-8.172,5.253-12.409c0.147-0.416,0.816-0.379,1.077-0.023c0.261,0.355,0.227,0.841,0.161,1.277
				c-0.449,2.972-1.815,5.715-3.123,8.421c-2.854,5.906-5.518,11.905-7.984,17.983c-0.109,0.269-0.431,0.371-0.713,0.44
				c-0.916,0.225-1.836,0.45-2.774,0.549c-1.86,0.197-3.77-0.113-5.472-0.889c-1.025-0.467-2.571-1.399-2.871-2.594
				c-0.292-1.164-0.011-3.128-0.1-4.454C226.458,274.582,226.118,271.124,225.673,267.679z"/>
		</g>
		<g>
			<path style="fill:#487238;stroke:#487238;stroke-miterlimit:10;" d="M232.449,237.256c0,0-4.826-11.079,0.899-12.614
				c5.725-1.534,7.34,2.014,8.614,2.933c1.274,0.919,1.61-8.227,5.514-7.647c3.903,0.579,8.874,7.74,8.39,9.03
				c-0.484,1.291-1.178-3.532,3.58-2.485c4.759,1.047,4.003,9.741,3.52,11.032c-0.484,1.29,4.092-16.421,9.997-10.971
				c5.905,5.45,0.215,17.888-3.317,19.066C266.115,246.779,240.987,254.141,232.449,237.256z"/>
			<path style="fill:#527C41;" d="M236.298,253.278c-0.825-5.234-1.39-10.707,0.271-15.739c0.259-0.786,0.937-1.724,1.695-1.39
				c0.391,0.172,0.568,0.62,0.706,1.024c0.389,1.138,0.779,2.276,1.169,3.413c0.195,0.57,0.45,1.205,1.011,1.425
				c0.724,0.285,1.501-0.298,1.943-0.938c0.884-1.28,1.153-2.873,1.743-4.312c0.584-1.426,1.497-2.716,2.648-3.742
				c0.508-0.453,1.285-0.861,1.823-0.443c0.281,0.218,0.382,0.593,0.447,0.942c0.504,2.692-0.086,5.463,0.037,8.198
				c0.029,0.648,0.162,1.397,0.73,1.711c1.264,0.699,2.6-1.562,3.976-1.123c-0.094,0.741-0.187,1.504,0.004,2.227
				c0.19,0.722,0.734,1.404,1.471,1.524c0.932,0.152,1.747-0.589,2.4-1.271c1.293-1.352,2.585-2.703,3.878-4.055
				c-0.024,1.183,1.431,1.935,2.585,1.675c1.154-0.259,2.035-1.162,2.87-2.001c0.61-0.613,1.232-1.214,1.867-1.801
				c0.306-0.284,0.652-0.58,1.068-0.6c0.485-0.023,0.918,0.357,1.104,0.806c0.186,0.448,0.175,0.952,0.142,1.436
				c-0.372,5.387-3.121,10.271-5.577,15.08c-1.738,3.404-3.36,6.867-4.86,10.382c-0.43,1.007-0.892,2.072-1.787,2.703
				c-0.79,0.557-1.793,0.687-2.744,0.859c-2.211,0.4-4.364,1.12-6.37,2.131c-0.604,0.304-1.205,0.638-1.867,0.775
				c-1.203,0.249-2.462-0.19-3.473-0.887c-1.012-0.697-1.827-1.635-2.675-2.524c-1.036-1.086-2.224-2.004-3.278-3.061
				c-0.795-0.798-0.883-1.521-1.115-2.612C237.446,259.833,236.816,256.567,236.298,253.278z"/>
			<path style="fill:#61894E;" d="M241.991,256.793c-0.306-3.318-0.703-6.683-0.113-9.962c-0.147,0.469,0.182,1.029,0.664,1.127
				c0.266-1.395,1.283-2.622,2.604-3.143c-0.076,0.563-0.072,1.138,0.012,1.7c0.307-0.522,0.614-1.044,0.921-1.566
				c-0.33,4.161-0.66,8.322-0.991,12.483c-0.193,2.429-0.333,5.07,1.031,7.088c0.169,0.251,0.372,0.496,0.65,0.614
				c0.531,0.225,1.165-0.108,1.473-0.595c0.308-0.487,0.371-1.085,0.426-1.658c-0.023,0.894,0.929,1.602,1.82,1.533
				c0.892-0.069,1.648-0.735,2.077-1.52s0.59-1.683,0.757-2.562c0.854-4.497,2.029-8.934,3.511-13.265
				c0.746,1.695,0.832,3.671,0.238,5.425c-0.12,0.353-0.267,0.706-0.274,1.078c-0.007,0.372,0.168,0.779,0.515,0.913
				c0.347,0.134,0.82-0.164,0.748-0.53c-0.404,1.649-0.807,3.299-1.211,4.949c-0.149,0.611-0.299,1.254-0.132,1.86
				c0.168,0.606,0.772,1.141,1.384,0.999c1.039-0.241,0.933-1.836,1.702-2.576c0.132,0.223,0.352,0.392,0.601,0.462
				c2.261-4.16,4.269-8.458,6.01-12.862c0.171-0.432,0.874-0.367,1.135,0.017c0.261,0.384,0.207,0.895,0.12,1.351
				c-0.588,3.112-2.132,5.946-3.614,8.745c-3.233,6.108-6.269,12.32-9.101,18.624c-0.126,0.279-0.468,0.374-0.768,0.436
				c-0.973,0.201-1.95,0.402-2.942,0.471c-1.965,0.136-3.965-0.265-5.727-1.147c-1.061-0.532-2.652-1.572-2.922-2.842
				c-0.263-1.237,0.109-3.294,0.067-4.693C242.551,264.091,242.327,260.437,241.991,256.793z"/>
		</g>
		<g>
			<path style="fill:#BF9A78;" d="M223.372,308.299c-3.091-1.251-2.817-8.275-1.443-15.263c0.555-2.827,1.284-5.646,2.047-8.069
				c0.641-2.053,1.313-3.826,1.907-5.084c0.201-0.429,0.405-0.869,0.602-1.321c1.071-2.385,2.124-5.073,3.19-7.988
				c0.791-2.167,1.585-4.454,2.393-6.842c0.879-2.586,1.774-5.283,2.681-8.054c0.669-2,1.347-4.03,2.038-6.084
				c0.89-2.643,1.807-5.318,2.763-7.979c0.737-2.079,1.501-4.138,2.282-6.182c1.004-2.62,2.05-5.211,3.143-7.744
				c0.544-1.256,1.101-2.503,1.673-3.723c1.262-2.707,2.587-5.313,3.986-7.781c3.556-6.282,7.605-11.661,12.305-15.402
				C282.495,185.212,238.905,314.562,223.372,308.299z"/>
			<path style="fill:#C7B299;" d="M232.747,287.974c0.479,0.876,0.092,2.031-0.642,2.713c-0.727,0.678-1.719,0.99-2.695,1.235
				c-2.317,0.584-4.935,1.05-7.48,1.114c0.555-2.827,1.284-5.646,2.047-8.069c0.05-0.001,0.097,0.007,0.14,0.009
				c2.223,0.202,4.371,0.91,6.496,1.622C231.438,286.875,232.338,287.213,232.747,287.974z"/>
			<path style="fill:#C7B299;" d="M237.662,273.494c0.479,0.876,0.092,2.031-0.642,2.713c-0.727,0.678-1.719,0.99-2.695,1.235
				c-2.426,0.617-5.19,1.094-7.84,1.121c1.071-2.385,2.124-5.073,3.19-7.988c1.991,0.259,3.934,0.9,5.853,1.544
				C236.354,272.395,237.254,272.732,237.662,273.494z"/>
			<path style="fill:#C7B299;" d="M243.235,258.661c0.479,0.876,0.092,2.031-0.642,2.713c-0.727,0.678-1.719,0.99-2.695,1.235
				c-2.426,0.617-5.184,1.09-7.83,1.124c0.879-2.586,1.774-5.283,2.681-8.054c2.174,0.22,4.271,0.913,6.352,1.607
				C241.926,257.562,242.826,257.899,243.235,258.661z"/>
			<path style="fill:#C7B299;" d="M247.494,244.533c0.479,0.876,0.092,2.031-0.642,2.713c-0.727,0.678-1.719,0.99-2.695,1.235
				c-2.287,0.576-4.865,1.038-7.37,1.114c0.89-2.643,1.807-5.318,2.763-7.979c1.978,0.266,3.904,0.907,5.81,1.542
				C246.185,243.434,247.085,243.771,247.494,244.533z"/>
			<path style="fill:#C7B299;" d="M251.753,230.405c0.479,0.876,0.092,2.031-0.642,2.713c-0.727,0.678-1.719,0.99-2.695,1.235
				c-2.049,0.516-4.334,0.939-6.584,1.081c1.004-2.62,2.05-5.211,3.143-7.744c1.573,0.315,3.115,0.824,4.644,1.339
				C250.444,229.305,251.344,229.643,251.753,230.405z"/>
			<path style="fill:#C7B299;" d="M257.422,218.903c0.479,0.876,0.092,2.031-0.642,2.713c-0.727,0.678-1.719,0.99-2.695,1.235
				c-2.301,0.583-4.905,1.042-7.437,1.116c1.262-2.707,2.587-5.313,3.986-7.781c1.573,0.315,3.118,0.83,4.654,1.342
				C256.113,217.804,257.013,218.141,257.422,218.903z"/>
		</g>
		<g>
			<path style="fill:#BF5B04;" d="M259.298,279.54c0,0,6.387-40.023,14.608-37.011C282.129,245.542,259.298,279.54,259.298,279.54z"
				/>
			<path style="fill:#527C41;" d="M280.524,229.197c1.731-2.748,3.992-5.626,7.21-6.065c0.315-0.043,0.681-0.044,0.897,0.19
				c0.184,0.199,0.194,0.506,0.135,0.771c-0.395,1.767-2.926,2.123-3.807,3.705c0.913,0.517,2.073,0.571,3.03,0.141
				c-0.606,1.173-1.749,2.054-3.038,2.341c-0.481,0.107-0.988,0.138-1.428,0.359c-0.441,0.22-0.803,0.714-0.666,1.187
				c-1.336-0.185-2.276,1.22-2.955,2.386c-1.167,2.004-2.584,3.863-4.208,5.519c-0.93,0.949-2.281,2.106-2.388,3.511
				c1.382-1.617,1.937-4.16,2.835-6.07C277.432,234.424,278.906,231.764,280.524,229.197z"/>
			<path style="fill:#487238;" d="M280.177,223.335c-0.014,0.439-0.264,0.863-0.64,1.089c-0.646-1.463-1.293-2.927-1.939-4.39
				c-0.287,1.817-0.172,3.696,0.334,5.464c-0.569-0.852-1.372-1.546-2.297-1.985c-0.484,0.374-0.504,1.135-0.212,1.673
				c0.292,0.538,0.815,0.904,1.319,1.251c-0.6-0.389-1.458,0.268-1.447,0.982c0.011,0.714,0.613,1.298,1.272,1.576
				c-0.637,2.479-1.275,4.959-1.912,7.438c-0.47,1.829-1.814,4.699-1.492,6.548c2.308-0.588,3.56-6.241,4.221-8.177
				C278.592,231.268,280.053,227.1,280.177,223.335z"/>
		</g>
		<g>
			<path style="fill:#BF5B04;" d="M254.378,279.271c0,0-0.238-46.799,9.696-44.911C274.008,236.248,254.378,279.271,254.378,279.271
				z"/>
			<path style="fill:#527C41;" d="M264.684,223.937c-0.295-2.215-1.014-4.647-2.965-5.736c-0.135-0.075-0.284-0.145-0.437-0.124
				c-0.398,0.053-0.468,0.6-0.4,0.995c0.15,0.871,0.46,1.714,0.912,2.474c-0.322-0.282-0.67-0.576-1.093-0.638
				c-0.424-0.062-0.926,0.224-0.924,0.652c0.001,0.182,0.09,0.353,0.198,0.5c0.297,0.405,0.755,0.688,1.25,0.772
				c-0.551-0.178-1.123-0.292-1.701-0.337c0.43,1.115,1.831,1.452,2.693,2.279c1.107,1.064,1.189,2.779,1.197,4.314
				c0.014,2.49,0.052,4.981,0.035,7.471C265.57,233.233,265.183,227.679,264.684,223.937z"/>
			<path style="fill:#487238;" d="M265.796,225.044c0.357-2.519,0.694-5.214,2.351-7.146c0.224-0.261,0.626-0.514,0.877-0.278
				c-0.241,1.675-0.678,3.321-1.3,4.895c0.131-0.398,0.581-0.663,0.992-0.583c-0.208,1.35-0.682,2.658-1.386,3.827
				c0.452-0.131,0.904-0.262,1.356-0.393c0.051,1.078-0.915,1.882-1.575,2.736c-0.72,0.931-1.123,2.062-1.515,3.171
				c-0.498,1.41-0.902,2.933-1.548,4.274c-0.503-1.19,0.585-3.752,0.836-5.051C265.23,228.699,265.372,226.819,265.796,225.044z"/>
		</g>
		<g>
			<g>
				<g>
					<path style="fill:#487238;" d="M234.021,248.539c0.424-1.457,1.215-2.78,2.293-3.847c0.458-0.453-0.249-1.161-0.707-0.707
						c-1.199,1.186-2.079,2.67-2.551,4.288C232.876,248.892,233.841,249.156,234.021,248.539L234.021,248.539z"/>
				</g>
			</g>
			<g>
				<path style="fill:#487238;" d="M235.591,244.663c-0.088-0.309,0.108-0.624,0.314-0.87c1.3-1.551,3.313-2.289,5.262-2.835
					c0.148,0.687-0.123,1.414-0.576,1.951c-0.453,0.537-1.069,0.909-1.698,1.222c-0.51,0.254-1.043,0.479-1.607,0.558
					c-0.564,0.079-1.167,0.001-1.643-0.312"/>
				<g>
					<path style="fill:#487238;" d="M236.073,244.53c-0.036-0.179,0.193-0.396,0.301-0.517c0.183-0.206,0.382-0.398,0.591-0.578
						c0.397-0.34,0.845-0.621,1.306-0.866c0.956-0.507,1.991-0.838,3.029-1.13c-0.205-0.116-0.41-0.233-0.615-0.349
						c0.207,1.092-0.796,1.924-1.638,2.395c-0.921,0.514-2.149,1.084-3.152,0.46c-0.548-0.341-1.051,0.524-0.505,0.863
						c1.355,0.843,2.985,0.217,4.242-0.505c1.251-0.718,2.308-1.946,2.017-3.479c-0.05-0.265-0.372-0.418-0.615-0.349
						c-1.231,0.346-2.464,0.756-3.574,1.401c-0.536,0.311-1.046,0.683-1.491,1.115c-0.498,0.484-1.01,1.062-0.86,1.805
						C235.237,245.426,236.201,245.16,236.073,244.53L236.073,244.53z"/>
				</g>
			</g>
			<path style="fill:#F2C849;" d="M233.6,247.732c0.331,0,2.32-1.989,5.303-1.326c4.401,0.978,3.977,6.629,2.32,9.612
				c-1.484,2.671-5.303,4.972-10.938,3.646s-5.966-6.629-5.966-7.623c0-0.994-0.186-4.831,2.652-5.966
				C230.286,244.749,233.6,247.732,233.6,247.732z"/>
		</g>
		<polygon style="fill:#E8DBCD;" points="270.933,257.133 268.079,253.328 267.128,257.133 264.274,253.328 259.517,258.084 
			255.712,252.376 250.955,256.182 248.101,253.328 243.344,257.133 237.636,253.328 233.831,257.133 229.074,253.328 
			226.22,257.133 221.463,253.328 216.707,257.133 212.901,253.328 209.096,257.133 204.339,253.328 199.582,257.133 
			197.68,253.328 193.874,257.133 189.118,253.328 187.215,257.133 183.41,253.328 180.555,257.133 176.75,253.328 176.75,258.339 
			176.75,260.938 176.75,368.44 274.738,368.44 274.738,260.938 274.738,258.339 274.738,252.376 		"/>
		<path style="fill:#EAB39F;" d="M167.359,327.844c0,0,12.402,1.135,14.367,1.449c3.532,0.565,14.855,2.184,14.855,2.184
			s1.508,0.568,1.042,1.452c-0.931,1.768-17.057,0.417-17.057,0.417s20.146,3.454,18.917,5.729
			c-0.95,1.758-20.076-1.675-20.076-1.675s16.384,3.028,15.816,4.536c-0.705,1.87-17.099-0.912-17.099-0.912
			s13.044,2.525,12.839,3.772c-0.261,1.59-16.594-1.366-16.594-1.366l-6.063-0.978L167.359,327.844z"/>
		<g>
			<path style="fill:#EAB39F;" d="M262.046,333.741c-0.417-0.848,0.648-1.473,1.129-1.855c2.771-2.2,10.002-4.37,10.002-4.37
				s-8.858,1.057-8.865-1.946c-0.005-2.11,10.384-2.917,10.384-2.917c2.467-0.173,4.577,2.654,2.622,4.295
				c1.274,0.525,3.41,2.437,0.138,4.528c2.747,0.979,2.99,3.94-0.165,5.59c1.441,1.138,1.184,3.004-2.483,4.178
				c-1.422,0.455-5.547,2.058-5.792,0.456c-0.239-1.569,5.19-3.696,5.19-3.696s-4.482,0.735-8.459,0.646
				c-0.843-0.019-2.845,0.128-2.888-1.054c-0.066-1.792,2.184-2.682,2.184-2.682S262.503,334.671,262.046,333.741z"/>
		</g>
	</g>
	<g>
		<path style="fill:#FFFFFF;" d="M173.562,204.423c2.021,0.296,4.087,0.279,6.102-0.048c0.284,1.223-4.768,7.674-6.127,0.084"/>
		<g>
			<path style="fill:#534741;" d="M173.456,204.807c2.097,0.356,4.227,0.323,6.325-0.009c-0.18-0.102-0.36-0.204-0.54-0.307
				c-0.036-0.172-0.028,0.165,0.001,0.005c-0.017,0.096-0.041,0.19-0.073,0.283c-0.017,0.049-0.035,0.097-0.055,0.145
				c0.044-0.109-0.025,0.054-0.038,0.08c-0.056,0.118-0.118,0.233-0.184,0.346c-0.314,0.537-0.634,0.937-1.096,1.375
				c-0.405,0.384-0.884,0.729-1.383,0.867c-0.063,0.018-0.128,0.032-0.192,0.044c-0.123,0.023,0.06-0.005-0.016,0.004
				c-0.032,0.004-0.064,0.007-0.096,0.008c-0.064,0.002-0.127,0.002-0.191,0.001c-0.025-0.001-0.051-0.003-0.076-0.006
				c0.111,0.011-0.048-0.009-0.07-0.014c-0.242-0.062-0.416-0.153-0.593-0.318c-0.765-0.713-1.025-1.962-1.209-2.971
				c-0.104-0.57-0.975-0.329-0.87,0.24c0.293,1.592,1.053,4.198,3.161,3.944c1.411-0.17,2.584-1.43,3.296-2.574
				c0.298-0.478,0.651-1.106,0.528-1.691c-0.053-0.25-0.318-0.342-0.54-0.307c-1.983,0.318-3.995,0.305-5.986,0.073
				C173.12,203.972,173.014,204.732,173.456,204.807L173.456,204.807z"/>
		</g>
	</g>
	<g>
		<g>
			<path d="M198.148,393.674c-1.195,11.427-2.376,22.856-3.842,34.253c-0.2,1.556-0.406,3.112-0.612,4.667
				c-0.211,1.599-0.62,3.293-0.547,4.909c0.022,0.49,0.687,0.576,0.844,0.114c0.458-1.345,0.533-2.857,0.729-4.259
				c0.196-1.4,0.385-2.801,0.569-4.202c0.376-2.866,0.743-5.734,1.072-8.606c0.653-5.699,1.266-11.407,1.732-17.125
				c0.265-3.249,0.496-6.497,0.679-9.751C198.796,393.267,198.189,393.282,198.148,393.674L198.148,393.674z"/>
		</g>
	</g>
	<g>
		<g>
			<path d="M171.437,372.886c-0.889,4.941-1.781,9.983-3.609,14.68c-1.608,4.133-4.388,7.513-8.394,9.497
				c-2.102,1.042-4.417,1.608-6.762,1.65c-0.894,0.016-0.897,1.408,0,1.391c4.424-0.084,8.719-1.904,11.867-5.014
				c3.515-3.473,4.895-8.315,5.975-12.995c0.695-3.01,1.253-6.049,1.513-9.129C172.056,372.631,171.497,372.552,171.437,372.886
				L171.437,372.886z"/>
		</g>
	</g>
	<g>
		<g>
			<path d="M222.578,370.5c-1.631,7.118-1.462,15.959,3.402,21.876c0.572,0.696,1.233,1.321,1.982,1.826
				c0.815,0.55,1.642,0.804,2.623,0.809c0.561,0.003,0.649-0.795,0.13-0.959c-4.014-1.273-6.092-5.625-7.066-9.417
				c-1.19-4.636-0.747-9.345-0.541-14.063C223.121,370.27,222.646,370.203,222.578,370.5L222.578,370.5z"/>
		</g>
	</g>
	<g>
		<g>
			<path d="M192.569,375.864c-0.277,4.023-0.645,8.039-0.942,12.06c-0.073,0.994-0.147,1.988-0.206,2.984
				c-0.042,0.709-0.071,1.456,0.341,2.072c0.845,1.262,2.991,1.526,4.35,1.25c0.465-0.095,0.348-0.811-0.11-0.813
				c-0.84-0.004-1.661-0.033-2.463-0.31c-0.853-0.295-1.25-0.784-1.249-1.695c0.001-1.698,0.122-3.406,0.176-5.103
				c0.109-3.481,0.149-6.963,0.275-10.444C192.745,375.753,192.577,375.755,192.569,375.864L192.569,375.864z"/>
		</g>
	</g>
	<path style="fill:#FFFFFF;" d="M403.5,169.5l-5.94-11.881c0.888-9.555,0.715-30.023-0.06-33.119c-1-4-30-1-42,0s-9,35-9,35
		c3.561,3.561,34.248,3.744,47.19,3.256L403.5,169.5z"/>
	<path style="fill:#FFFFFF;" d="M313.5,159.5c-1.857-4.642-56.789-1.809-57.581,1.359c-0.613,2.452-0.751,18.663-0.047,26.231
		l-4.705,9.41l7.77-5.342c10.251,0.387,51.98-0.551,54.8-3.371C313.736,187.788,315.5,164.5,313.5,159.5z"/>
	<g>
		<path style="fill:#BF5B04;" d="M377.907,142.381v-0.499c0-0.976-3.784-4.688-4.799-6.567c-0.759-1.406-2.054-3.189-2.526-3.283
			c-1.263-0.253-1.447,2.411,0,5.304c0.253,0.505,0.693,2.778-0.886,2.778c-1.339,0-5.355,0-5.355,0
			c-0.964,0-1.805,0.739-1.84,1.702c-0.028,0.774,0.441,1.44,1.113,1.708c-0.653,0.26-1.114,0.896-1.114,1.642
			c0,0.745,0.462,1.382,1.114,1.642c-0.653,0.26-1.114,0.896-1.114,1.642c0,0.745,0.462,1.382,1.114,1.642
			c-0.672,0.268-1.141,0.934-1.113,1.708c0.035,0.963,0.876,1.702,1.84,1.702h11.798c0.976,0,1.768-0.792,1.768-1.768h6.062v-9.345
			L377.907,142.381z"/>
		<rect x="381.191" y="140.618" style="fill:#73260A;" width="5.809" height="12.882"/>
	</g>
	<circle style="fill:#73260A;" cx="267.5" cy="173.5" r="3.5"/>
	<circle style="fill:#73260A;" cx="284.5" cy="173.5" r="3.5"/>
	<circle style="fill:#73260A;" cx="301.5" cy="173.5" r="3.5"/>
	<circle style="fill:none;stroke:#000000;stroke-miterlimit:10;" cx="171.5" cy="23.5" r="4"/>
	<circle style="fill:none;stroke:#000000;stroke-miterlimit:10;" cx="335.25" cy="86.75" r="6.75"/>
	<circle style="fill:none;stroke:#000000;stroke-miterlimit:10;" cx="451" cy="31" r="2.5"/>
	<circle style="fill:none;stroke:#000000;stroke-miterlimit:10;" cx="270" cy="388" r="3"/>
	<circle style="fill:none;stroke:#000000;stroke-miterlimit:10;" cx="482" cy="376" r="3"/>
	<polyline style="fill:none;stroke:#000000;stroke-miterlimit:10;" points="441.981,108.226 446.501,121.476 459.751,116.956 
		463.948,129.26 478.145,124.417 482.019,135.774 	"/>
	<polyline style="fill:none;stroke:#000000;stroke-miterlimit:10;" points="105.784,467.526 108.499,481.405 119.831,477.459 
		124.106,489.736 141.105,483.817 	"/>
	<line style="fill:none;stroke:#000000;stroke-miterlimit:10;" x1="391.5" y1="183.5" x2="383.5" y2="178.5"/>
	<line style="fill:none;stroke:#000000;stroke-miterlimit:10;" x1="395.5" y1="180.5" x2="391.5" y2="171.5"/>
	<g>
		<defs>
			<rect id="SVGID_1_" width="500" height="500"/>
		</defs>
		<clipPath id="SVGID_00000011730356919884593720000010028748066522366394_">
			<use xlink:href="#SVGID_1_"  style="overflow:visible;"/>
		</clipPath>
		<g style="clip-path:url(#SVGID_00000011730356919884593720000010028748066522366394_);">
			<path style="fill:#8F654D;" d="M299.415,311.27c0,0,76.311,45.97,96.72,33.23c6.993-4.372,8.505-19.523,7.851-35.933
				c-0.95-23.782-6.451-50.2-6.451-50.2s-20.516-35.111-23.949-25.345c-3.919,11.148-3.001,45.45-1.586,66.977
				c0.61,9.255,3.607,16.674,2.581,18.007c-3.945,5.075-70.418-17.782-70.418-17.782L299.415,311.27z"/>
			<path style="fill:#8F654D;" d="M296.398,291.702c-1.551-2.09-3.873-6.521-5.295-5.652c-0.973,0.281,0.496,2.306,1.071,3.348
				c1.498,2.717,2.996,5.434,4.495,8.151c-1.169,0.317-2.364-0.317-3.41-0.927c-5.415-3.16-13.859-8.089-14.482-6.316
				c-0.623,1.772,7.061,5.826,13.468,9.039c-4.44-1.453-15.289-6.692-17.516-4.647c-0.792,0.877,10.416,5.682,15.066,7.976
				c-3.164-1.068-12.766-4.152-13.559-2.309c-0.453,1.702,7.98,4.048,12.297,5.418c-3.563-0.341-10.573-1.825-10.676,0.226
				c0.008,0.555,4.798,1.59,8.342,2.836c1.539,0.541,3.734,1.478,5.317,1.869c3.267,0.806,5.32,1.916,8.667,1.568
				c2.45-0.255,4.705-1.907,5.687-4.165c1.248-2.872,0.308-5.929-1.759-8.055C301.436,297.311,298.703,294.808,296.398,291.702z"/>
			<path style="fill:#73260A;" d="M367,299l36.986,9.568c-0.95-23.782-6.451-50.2-6.451-50.2s-20.516-35.111-23.949-25.345
				C369.668,244.172,365.585,277.474,367,299z"/>
			<path style="fill:#8F654D;" d="M454.44,364.948c0,0,10.01,16.023,11.447,37.587c1.438,21.564-35.941,122.198-35.941,122.198
				l30.19,133.699l-14.376,7.188c0,0-48.582-100.2-51.754-136.574c-2.671-30.617,23.002-120.76,23.002-120.76v-53.192
				L454.44,364.948z"/>
			<path style="fill:#5E498B;" d="M459.004,655.19c0,0,3.271,9.846,1.329,14.793c-1.941,4.946-50.058,7.167-50.295,4.52
				c-0.532-5.917,22.119-12.725,26.8-13.742c4.681-1.017,4.9-5.212,4.9-5.212C447.687,658.419,453.439,658.247,459.004,655.19z"/>
			<path style="fill:#8F654D;" d="M402.782,373.515c0,0,11.674-3.786,13.111,17.778c1.438,21.564-35.941,122.198-35.941,122.198
				l30.19,133.699l-14.376,7.188c0,0-48.582-100.199-51.754-136.574c-2.671-30.617,40.375-123.851,40.375-123.851l16.351-11.241
				L402.782,373.515z"/>
			<path style="fill:#5E498B;" d="M409.01,643.948c0,0,3.271,9.846,1.329,14.793c-1.941,4.946-50.057,7.167-50.295,4.52
				c-0.532-5.917,22.119-12.725,26.8-13.742c4.681-1.017,4.9-5.212,4.9-5.212C397.693,647.177,403.445,647.006,409.01,643.948z"/>
			<path style="fill:#534741;" d="M420.811,171.416c-0.054-1.465,0.831-2.853,2.024-3.706c1.193-0.853,2.657-1.24,4.108-1.45
				c5.539-0.799,11.339,0.86,15.784,4.26c4.445,3.401,7.529,8.463,8.778,13.919c0.559,2.442,0.757,5.038-0.007,7.424
				c-1.46,4.559-6.112,7.526-7.621,12.07c-1.244,3.745,0.134,8.273,3.395,10.495c3.036,2.068,7.047,1.997,10.649,1.276
				c-2.018,3.635-6.291,5.785-10.444,5.574c-4.153-0.211-8.056-2.629-10.397-6.065c-2.341-3.437-3.171-7.791-2.625-11.913"/>
			<path style="fill:#534741;" d="M424.704,168.964c4.617-0.218,9.019,2.283,12.205,5.633c5.699,5.993,8.084,15.153,5.388,22.972
				c-2.124,6.158-7.045,11.126-8.727,17.419c-1.469,5.497-0.253,11.45,2.302,16.534c0.566,1.127,1.223,2.252,2.224,3.019
				c1.422,1.089,3.314,1.296,5.103,1.38c4.708,0.22,9.443-0.142,14.063-1.074c0.324,4.822-2.184,9.537-5.809,12.733
				c-3.625,3.196-8.255,5.041-12.938,6.236c-6.1,1.557-12.835,2.039-18.463-0.783c-6.997-3.509-10.804-11.473-11.69-19.251
				c-0.885-7.777,0.632-15.596,1.606-23.363c0.436-3.479,0.764-7.01,0.292-10.484c-0.373-2.744-1.239-5.408-1.542-8.161
				c-0.61-5.542,1.439-9.931,5.255-13.73c1.694-1.686,1.911-4.07,3.715-5.918C419.509,170.258,422.097,169.087,424.704,168.964z"/>
			<path style="opacity:0.3;fill:#C6B198;" d="M430.281,181.452c2.515,2.856,3.521,6.721,4.134,10.477
				c0.347,2.125,0.593,4.301,0.248,6.426c-0.397,2.448-1.554,4.695-2.596,6.946c-1.621,3.503-2.996,7.119-4.112,10.813
				c-1.433,4.744-2.416,9.961-0.589,14.568c1.164,2.936,3.359,5.325,5.507,7.64c1.124,1.212,2.272,2.443,3.706,3.266
				c1.41,0.808,3.029,1.181,4.642,1.379c3.785,0.465,7.68,0.012,11.257-1.309c-1.362,4.245-6.176,6.628-10.633,6.502
				c-4.457-0.126-8.603-2.224-12.442-4.491c-2.292-1.353-4.547-2.791-6.562-4.531c-4.943-4.27-8.232-10.205-10.239-16.421
				c-2.007-6.216-2.814-12.749-3.453-19.25c-0.509-5.176-0.87-10.649,1.384-15.336c1.301-2.706,3.385-4.942,5.437-7.134
				C419.822,176.889,426.478,177.133,430.281,181.452z"/>
			<path style="fill:#534741;" d="M415.113,175.178c-4.734,0.072-9.136,3.083-11.581,7.138c-0.595,0.986-1.091,2.038-1.395,3.149
				c-0.335,1.223-0.431,2.497-0.525,3.762c-0.121,1.621-0.242,3.242-0.364,4.862c-0.058,0.778-0.115,1.573,0.087,2.326
				c0.342,1.279,1.378,2.269,1.807,3.521c0.111,0.325,0.215,0.708,0.529,0.847c0.416,0.185,0.856-0.192,1.141-0.547
				c2.694-3.361,3.83-7.966,7.217-10.625c2.033-1.596,4.71-2.33,6.469-4.225c1.693-1.824,2.215-4.445,1.96-6.861
				C420.171,175.798,417.613,175.14,415.113,175.178z"/>
			<path style="fill:#8F654D;" d="M413.276,177.638c12.797,0.638,20.11,39.205,2.021,42.609
				c-10.609,1.996-16.157-12.771-12.056-26.179C405.899,185.378,406.119,177.281,413.276,177.638z"/>
			<path style="fill:#8F654D;" d="M425.702,207.574l-1.277,25.593c0,0,0.034,11.376-8.983,13.346c-9.018,1.97-9.8-11.499-9.8-11.499
				l1.752-20.763L425.702,207.574z"/>
			<path style="fill:#534741;" d="M410.219,185.813c0.245,3.148,2.797,5.212,5.393,7.01c2.934,2.032,9.701,2.48,10.419,2.665
				c0.972,0.251,1.689,1.133,1.976,2.095c0.288,0.962,0.209,1.994,0.043,2.984c-0.318,1.894-0.95,3.734-1.862,5.424
				c1.51-0.814,2.628-2.185,3.704-3.521c0.446-0.553,0.901-1.124,1.114-1.803c0.15-0.478,0.171-0.986,0.182-1.486
				c0.139-6.305-1.166-12.637-3.785-18.373c-0.607-1.331-1.316-2.67-2.451-3.593c-1.535-1.248-3.609-1.555-5.578-1.754
				c-2.392-0.241-6.506-0.619-8.353,1.387C410.156,177.788,410.081,184.04,410.219,185.813z"/>
			<path style="fill:#8F654D;" d="M423.648,199.922c0,0-0.267-6.415,4.408-4.768c4.21,1.483,0.356,11.214-2.514,11.29
				C422.671,206.52,423.648,199.922,423.648,199.922z"/>
			<g>
				<g>
					<path style="fill:#68362D;" d="M404.448,193.969c0.201-0.094,0.378-0.255,0.579-0.357c0.137-0.069,0.168-0.082,0.326-0.133
						c0.148-0.048,0.301-0.084,0.455-0.109c0.344-0.057,0.763-0.042,1.135-0.005c0.23,0.023,0.457,0.059,0.683,0.106
						c0.277,0.057,0.641,0.189,0.901,0.034c0.126-0.075,0.162-0.234,0.095-0.361c-0.15-0.284-0.579-0.35-0.867-0.409
						c-0.268-0.055-0.54-0.098-0.812-0.124c-0.441-0.042-0.892-0.022-1.327,0.061c-0.327,0.063-0.648,0.176-0.941,0.335
						c-0.236,0.127-0.508,0.303-0.658,0.53C403.824,193.824,404.185,194.092,404.448,193.969L404.448,193.969z"/>
				</g>
			</g>
			<g>
				<g>
					<path style="fill:#68362D;" d="M417.247,194.137c-0.127-0.2-0.367-0.348-0.572-0.458c-0.264-0.142-0.547-0.257-0.832-0.35
						c-0.65-0.211-1.353-0.312-2.034-0.225c-0.364,0.047-0.733,0.123-1.033,0.348c-0.154,0.116-0.223,0.332-0.08,0.489
						c0.148,0.162,0.378,0.087,0.562,0.044c0.319-0.075,0.614-0.153,0.945-0.16c0.328-0.007,0.655,0.016,0.978,0.08
						c0.324,0.064,0.647,0.156,0.951,0.286c0.242,0.104,0.449,0.264,0.682,0.379C417.081,194.701,417.428,194.422,417.247,194.137
						L417.247,194.137z"/>
				</g>
			</g>
			<g>
				<g>
					<path style="fill:#68362D;" d="M426.512,197.746c0.188,0.526,0.576,0.947,0.756,1.485c0.19,0.565,0.252,1.174,0.166,1.765
						c-0.085,0.588-0.304,1.15-0.614,1.655c-0.152,0.247-0.324,0.481-0.513,0.7c-0.187,0.218-0.454,0.45-0.53,0.732
						c-0.058,0.214,0.133,0.354,0.327,0.327c0.315-0.045,0.606-0.372,0.804-0.602c0.232-0.268,0.436-0.559,0.609-0.867
						c0.337-0.603,0.552-1.262,0.627-1.948c0.073-0.664-0.014-1.36-0.246-1.987c-0.21-0.565-0.558-1.267-1.163-1.484
						C426.609,197.477,426.466,197.619,426.512,197.746L426.512,197.746z"/>
				</g>
			</g>
			<g>
				<g>
					<path style="fill:#68362D;" d="M425.38,201.663c0.093,0.042,0.181,0.093,0.263,0.154c-0.03-0.023,0.019,0.016,0.02,0.017
						c0.019,0.016,0.038,0.034,0.056,0.051c0.032,0.031,0.086,0.09,0.099,0.107c0.118,0.151,0.19,0.307,0.233,0.5
						c0.006,0.025,0.011,0.051,0.015,0.076c-0.003-0.017-0.004-0.06,0.002,0.017c0.004,0.057,0.007,0.113,0.005,0.169
						c-0.003,0.122-0.011,0.178-0.046,0.309c-0.062,0.232-0.149,0.397-0.264,0.615c-0.069,0.132-0.144,0.271-0.104,0.426
						c0.043,0.167,0.207,0.234,0.365,0.193c0.261-0.067,0.454-0.367,0.566-0.595c0.228-0.466,0.306-1.018,0.141-1.518
						c-0.171-0.52-0.563-0.965-1.104-1.107c-0.153-0.04-0.319,0.038-0.378,0.185C425.195,201.398,425.233,201.597,425.38,201.663
						L425.38,201.663z"/>
				</g>
			</g>
			<g>
				<g>
					<path style="fill:#68362D;" d="M407.024,217.783c0.484,0.786,1.463,1.256,2.29,1.601c0.987,0.411,2.051,0.649,3.121,0.671
						c1.038,0.021,2.088-0.148,3.065-0.501c0.936-0.338,1.958-0.823,2.595-1.612c0.113-0.14-0.024-0.336-0.194-0.252
						c-0.892,0.445-1.687,1.002-2.643,1.322c-0.91,0.305-1.863,0.465-2.823,0.448c-0.961-0.017-1.909-0.198-2.81-0.533
						c-0.891-0.331-1.627-0.934-2.502-1.273C407.05,217.625,406.986,217.721,407.024,217.783L407.024,217.783z"/>
				</g>
			</g>
			<g>
				<path style="fill:#FFFFFF;" d="M412.423,209.724c-2.038,0.666-4.342,0.47-6.238-0.53c0.062,1.22,0.446,2.479,1.334,3.318
					c0.888,0.839,2.354,1.127,3.361,0.434c0.268-0.184,0.492-0.426,0.691-0.683c0.534-0.692,0.899-1.514,1.053-2.374"/>
				<g>
					<path style="fill:#68362D;" d="M412.423,209.474c-0.501,0.035-0.988,0.187-1.487,0.249c-0.522,0.065-1.052,0.075-1.577,0.037
						c-1.047-0.076-2.075-0.372-3.007-0.852c-0.209-0.108-0.515,0.021-0.499,0.286c0.117,1.926,1.051,4.079,3.165,4.436
						c0.962,0.163,1.886-0.106,2.558-0.827c0.698-0.748,1.33-1.874,1.384-2.915c0.02-0.394-0.544-0.435-0.66-0.089
						c-0.147,0.44-0.235,0.885-0.437,1.308c-0.19,0.398-0.425,0.782-0.715,1.115c-0.538,0.616-1.275,0.885-2.082,0.715
						c-1.727-0.363-2.46-2.145-2.55-3.743c-0.166,0.096-0.333,0.191-0.499,0.286c1.008,0.525,2.101,0.84,3.234,0.935
						c0.561,0.047,1.126,0.036,1.686-0.032c0.546-0.066,1.136-0.153,1.613-0.444C412.749,209.818,412.681,209.456,412.423,209.474
						L412.423,209.474z"/>
				</g>
			</g>
			<g>
				<g>
					<path style="fill:#68362D;" d="M409.722,195.782c-0.398,2.561,0.812,5.673-1.031,7.883c-0.309,0.37-0.751,0.762-0.737,1.29
						c0.012,0.463,0.413,0.776,0.832,0.875c0.693,0.165,2.101-0.426,1.808-1.329c-0.066-0.202-0.294-0.252-0.451-0.119
						c-0.287,0.245-0.372,0.59-0.779,0.713c-0.158,0.048-0.416,0.076-0.564-0.028c-0.295-0.207,0.001-0.524,0.162-0.719
						c0.574-0.696,0.96-1.434,1.159-2.32c0.456-2.024,0.038-4.141,0.029-6.189C410.15,195.603,409.761,195.531,409.722,195.782
						L409.722,195.782z"/>
				</g>
			</g>
			<g>
				<g>
					<path style="fill:#68362D;" d="M416.032,198.553c0.038-0.573-0.606-1.032-1.066-1.238c-0.635-0.284-1.385-0.317-1.93,0.173
						c-0.153,0.137-0.279,0.316-0.368,0.501c-0.117,0.242-0.283,0.639-0.092,0.886c0.081,0.105,0.21,0.163,0.337,0.088
						c0.201-0.118,0.258-0.371,0.34-0.586c0.025-0.065,0.009-0.022,0.003-0.008c0.009-0.019,0.018-0.038,0.027-0.057
						c0.018-0.036,0.037-0.072,0.058-0.107c0.02-0.033,0.043-0.064,0.062-0.097c0.003-0.005,0.032-0.043,0.006-0.01
						c-0.029,0.038,0.018-0.021,0.024-0.028c0.046-0.051,0.095-0.098,0.148-0.142c-0.058,0.048,0.005-0.001,0.03-0.017
						c0.027-0.017,0.055-0.031,0.083-0.048c0.08-0.046-0.026,0.003,0.026-0.014c0.03-0.009,0.059-0.021,0.089-0.03
						c0.03-0.009,0.06-0.016,0.09-0.022c0.015-0.003,0.031-0.005,0.046-0.009c0.063-0.015-0.053,0.003-0.01,0.001
						c0.059-0.003,0.117-0.008,0.176-0.007c0.032,0.001,0.063,0.003,0.095,0.005c0.092,0.006-0.034-0.01,0.04,0.004
						c0.127,0.024,0.251,0.056,0.372,0.102c0.033,0.013,0.081,0.035,0.02,0.007c0.029,0.013,0.059,0.026,0.088,0.04
						c0.061,0.03,0.12,0.062,0.178,0.097c0.05,0.03,0.097,0.063,0.145,0.096c0.075,0.051-0.018-0.019,0.022,0.016
						c0.025,0.022,0.051,0.042,0.075,0.064c0.047,0.042,0.091,0.086,0.133,0.132c0.026,0.03,0.061,0.079,0.016,0.016
						c0.016,0.023,0.033,0.045,0.048,0.068c0.027,0.043,0.053,0.088,0.079,0.132c0.011,0.02,0.021,0.042,0.033,0.061
						c-0.035-0.052-0.015-0.041-0.001,0.009C415.546,198.961,416.01,198.878,416.032,198.553L416.032,198.553z"/>
				</g>
			</g>
			<g>
				<g>
					<path style="fill:#68362D;" d="M415.656,199.165c0.121,0.084,0.283,0.079,0.426,0.079c0.122,0,0.246-0.019,0.366-0.038
						c0.097-0.015,0.195-0.032,0.288-0.06c0.123-0.036,0.243-0.092,0.359-0.145c0.074-0.034,0.147-0.136,0.164-0.214
						c0.018-0.08,0.014-0.157-0.018-0.233c-0.064-0.152-0.254-0.269-0.422-0.207c-0.247,0.091-0.508,0.164-0.769,0.199
						c0.031-0.004,0.063-0.008,0.094-0.013c-0.073,0.01-0.145,0.021-0.217,0.031c0.031-0.004,0.061-0.008,0.092-0.012
						c-0.126,0.017-0.253,0.015-0.364,0.085c-0.092,0.058-0.151,0.152-0.151,0.263C415.505,199.016,415.565,199.103,415.656,199.165
						L415.656,199.165z"/>
				</g>
			</g>
			<g>
				<g>
					<path style="fill:#68362D;" d="M407.919,197.921c-0.005-0.868-0.807-1.606-1.635-1.734c-0.869-0.135-1.884,0.318-2.214,1.168
						c-0.058,0.15,0.052,0.332,0.19,0.387c0.16,0.064,0.312,0.003,0.41-0.134c0.181-0.254,0.368-0.465,0.651-0.609
						c0.256-0.13,0.566-0.187,0.849-0.136c0.634,0.114,1.025,0.63,1.262,1.192C407.537,198.302,407.921,198.162,407.919,197.921
						L407.919,197.921z"/>
				</g>
			</g>
			<g>
				<g>
					<path style="fill:#68362D;" d="M404.417,197.191c-0.076-0.02-0.149-0.044-0.221-0.075c0.026,0.011,0.052,0.022,0.077,0.033
						c-0.099-0.043-0.195-0.089-0.289-0.144c-0.044-0.026-0.094-0.045-0.14-0.068c-0.082-0.041-0.178-0.064-0.27-0.054
						c-0.062,0.007-0.124,0.021-0.168,0.07c-0.042,0.046-0.071,0.104-0.07,0.168c0.001,0.05,0.01,0.099,0.027,0.146
						c0.022,0.061,0.049,0.114,0.094,0.161c0.013,0.014,0.027,0.027,0.042,0.04c0.045,0.042,0.094,0.085,0.147,0.117
						c0.033,0.02,0.069,0.037,0.104,0.053c0.091,0.042,0.183,0.081,0.28,0.106c0.1,0.025,0.203,0.039,0.306,0.05
						c0.07,0.007,0.17-0.039,0.217-0.09c0.047-0.051,0.075-0.108,0.084-0.176C404.657,197.38,404.566,197.23,404.417,197.191
						L404.417,197.191z"/>
				</g>
			</g>
			<g>
				<g>
					<path style="fill:#5E498B;" d="M417.166,177.193c0.017,0.004,0.033,0.008,0.049,0.012c-0.182-0.077-0.364-0.153-0.545-0.23
						c0.402,0.214,0.838,0.336,1.257,0.512c-0.196-0.083-0.392-0.165-0.588-0.248c1.23,0.521,2.522,0.888,3.768,1.372
						c0.543,0.211,1.092,0.4,1.641,0.598c0.398,0.143,0.817,0.262,1.245,0.255c0.368-0.006,0.901-0.043,1.218-0.165
						c0.434-0.166,0.859-0.404,1.088-0.836c0.223-0.423,0.335-0.934,0.184-1.402c-0.172-0.533-0.539-1.108-0.933-1.505
						c-0.365-0.367-0.821-0.598-1.273-0.832c-0.827-0.427-1.688-0.778-2.556-1.114c-0.693-0.268-1.391-0.524-2.096-0.756
						c-0.472-0.155-1.009-0.269-1.501-0.29c-0.916-0.038-1.883,0.513-2.297,1.336c-0.33,0.656-0.401,1.311-0.113,1.995
						C415.978,176.521,416.49,177.022,417.166,177.193L417.166,177.193z"/>
				</g>
			</g>
			<path style="fill:#5E498B;" d="M425.049,206.305c0,0.744,0.604,1.348,1.348,1.348c0.745,0,1.348-0.604,1.348-1.348
				c0-0.745-0.604-1.348-1.348-1.348C425.652,204.957,425.049,205.561,425.049,206.305z"/>
			<path style="fill:#5E498B;" d="M425.318,211.968c0,2.532,0.604,4.584,1.348,4.584c0.745,0,1.348-2.052,1.348-4.584
				c0-2.532-0.603-4.584-1.348-4.584C425.922,207.384,425.318,209.436,425.318,211.968z"/>
			<path style="fill:#73260A;" d="M374.539,231.84c0,33.38,4.801,131.119,7.684,136.858c2.87,5.752,62.099,12.272,69.286,6.52
				c7.187-5.752,14.693-114.153,8.635-130.825c-2.302-6.336-16.154-8.077-24.735-10.309c-13.975-3.64-28.203-4.477-39.454-4.317
				C382.908,229.953,374.539,230.512,374.539,231.84z"/>
			<path style="fill:#BF5B04;" d="M462.054,478.775c-4.313,10.063-47.893,18.273-76.645,1.022
				c-28.753-17.251-41.899-14.307-41.899-14.307l36.81-105.353c0,0,52.246,2.066,75.253-0.766
				c2.497-0.307,14.613,27.897,10.628,75.721C464.487,455.662,465.886,469.833,462.054,478.775z"/>
			<path style="fill:#8F654D;" d="M395.953,229.768c0.292,7.054,2.776,16.406,13.789,17.35c15.237,1.302,22.477-7.081,25.665-13.032
				C421.432,230.445,407.205,229.608,395.953,229.768z"/>
			<path style="fill:none;stroke:#F1B649;stroke-miterlimit:10;" d="M431.942,291.082c0,0.833,0.675,1.508,1.508,1.508
				c0.833,0,1.508-0.675,1.508-1.508c0-0.833-0.675-1.508-1.508-1.508C432.618,289.574,431.942,290.249,431.942,291.082z"/>
			<path style="fill:none;stroke:#F1B649;stroke-miterlimit:10;" d="M387.229,334.844c0,0.833,0.675,1.508,1.508,1.508
				c0.833,0,1.508-0.675,1.508-1.508c0-0.833-0.675-1.508-1.508-1.508C387.905,333.336,387.229,334.011,387.229,334.844z"/>
			<circle style="fill:none;stroke:#F1B649;stroke-miterlimit:10;" cx="422.895" cy="303.146" r="3.016"/>
			<path style="fill:none;stroke:#F1B649;stroke-miterlimit:10;" d="M440.99,320.488c0,1.249,1.013,2.262,2.262,2.262
				s2.262-1.013,2.262-2.262c0-1.249-1.013-2.262-2.262-2.262S440.99,319.238,440.99,320.488z"/>
			<path style="fill:none;stroke:#F1B649;stroke-miterlimit:10;" d="M403.291,267.708c0,1.249,1.013,2.262,2.262,2.262
				s2.262-1.013,2.262-2.262c0-1.249-1.013-2.262-2.262-2.262S403.291,266.459,403.291,267.708z"/>
			<path style="fill:none;stroke:#F1B649;stroke-miterlimit:10;" d="M422.895,257.906c0,0.833,0.675,1.508,1.508,1.508
				c0.833,0,1.508-0.675,1.508-1.508c0-0.833-0.675-1.508-1.508-1.508C423.57,256.398,422.895,257.074,422.895,257.906z"/>
			<path style="fill:none;stroke:#F1B649;stroke-miterlimit:10;" d="M386.703,258.66c0,2.082,1.688,3.77,3.77,3.77
				s3.77-1.688,3.77-3.77c0-2.082-1.688-3.77-3.77-3.77S386.703,256.578,386.703,258.66z"/>
			<path style="fill:none;stroke:#F1B649;stroke-miterlimit:10;" d="M377.655,244.335c0,0.833,0.675,1.508,1.508,1.508
				c0.833,0,1.508-0.675,1.508-1.508c0-0.833-0.675-1.508-1.508-1.508C378.33,242.827,377.655,243.502,377.655,244.335z"/>
			<path style="fill:none;stroke:#F1B649;stroke-miterlimit:10;" d="M378.115,275.168c0,0.416,0.338,0.754,0.754,0.754
				c0.416,0,0.754-0.338,0.754-0.754c0-0.417-0.338-0.754-0.754-0.754C378.453,274.414,378.115,274.752,378.115,275.168z"/>
			<path style="fill:none;stroke:#F1B649;stroke-miterlimit:10;" d="M400.275,252.628c0,0.416,0.338,0.754,0.754,0.754
				c0.416,0,0.754-0.337,0.754-0.754c0-0.416-0.338-0.754-0.754-0.754C400.612,251.874,400.275,252.212,400.275,252.628z"/>
			<path style="fill:none;stroke:#F1B649;stroke-miterlimit:10;" d="M415.355,276.756c0,1.249,1.012,2.262,2.262,2.262
				c1.249,0,2.262-1.013,2.262-2.262c0-1.249-1.013-2.262-2.262-2.262C416.367,274.494,415.355,275.507,415.355,276.756z"/>
			<path style="fill:none;stroke:#F1B649;stroke-miterlimit:10;" d="M394.243,288.066c0,1.666,1.35,3.016,3.016,3.016
				c1.666,0,3.016-1.35,3.016-3.016c0-1.666-1.35-3.016-3.016-3.016C395.593,285.05,394.243,286.4,394.243,288.066z"/>
			<path style="fill:none;stroke:#F1B649;stroke-miterlimit:10;" d="M401.783,306.916c0,2.082,1.688,3.77,3.77,3.77
				s3.77-1.688,3.77-3.77c0-2.082-1.688-3.77-3.77-3.77S401.783,304.834,401.783,306.916z"/>
			<path style="fill:none;stroke:#F1B649;stroke-miterlimit:10;" d="M382.756,314.527c0,2.082,1.688,3.77,3.77,3.77
				c2.082,0,3.77-1.688,3.77-3.77c0-2.082-1.688-3.77-3.77-3.77C384.444,310.757,382.756,312.445,382.756,314.527z"/>
			<path style="fill:none;stroke:#F1B649;stroke-miterlimit:10;" d="M416.863,320.488c0,2.082,1.688,3.77,3.77,3.77
				s3.77-1.688,3.77-3.77c0-2.082-1.688-3.77-3.77-3.77S416.863,318.406,416.863,320.488z"/>
			<path style="fill:none;stroke:#F1B649;stroke-miterlimit:10;" d="M401.783,338.584c0,1.249,1.013,2.262,2.262,2.262
				c1.249,0,2.262-1.013,2.262-2.262c0-1.249-1.013-2.262-2.262-2.262C402.796,336.322,401.783,337.334,401.783,338.584z"/>
			<path style="fill:none;stroke:#F1B649;stroke-miterlimit:10;" d="M418.371,340.846c0,2.498,2.026,4.524,4.524,4.524
				c2.498,0,4.524-2.026,4.524-4.524c0-2.498-2.025-4.524-4.524-4.524C420.396,336.322,418.371,338.347,418.371,340.846z"/>
			<path style="fill:none;stroke:#F1B649;stroke-miterlimit:10;" d="M447.022,330.29c0,0.833,0.675,1.508,1.508,1.508
				c0.833,0,1.508-0.675,1.508-1.508c0-0.833-0.675-1.508-1.508-1.508C447.697,328.782,447.022,329.457,447.022,330.29z"/>
			<path style="fill:none;stroke:#F1B649;stroke-miterlimit:10;" d="M448.53,290.328c0,1.249,1.013,2.262,2.262,2.262
				c1.249,0,2.262-1.013,2.262-2.262c0-1.249-1.013-2.262-2.262-2.262C449.543,288.066,448.53,289.079,448.53,290.328z"/>
			<path style="fill:none;stroke:#F1B649;stroke-miterlimit:10;" d="M450.038,305.408c0,1.249,1.013,2.262,2.262,2.262
				s2.262-1.013,2.262-2.262s-1.013-2.262-2.262-2.262S450.038,304.159,450.038,305.408z"/>
			<path style="fill:#8F654D;" d="M403.432,363.866c2.87,0,80.038-12.647,85.352-27.259c2.697-7.413,0.624-19.701-3.441-32.945
				c-8.515-27.884-25.785-60.045-25.785-60.045l-19.555,18.85c0,0,17.549,30.833,21.879,49.006
				c1.089,4.503,1.342,8.236,0.332,10.521c-5.314,11.956-59.779,29.225-59.779,29.225S400.563,363.866,403.432,363.866z"/>
			<path style="fill:#73260A;" d="M440.004,262.467c0,0,17.549,30.833,21.879,49.006l23.46-7.811
				c-8.515-27.884-25.785-60.045-25.785-60.045L440.004,262.467z"/>
			<path style="fill:#8F654D;" d="M391.849,346.779c-2.356-1.106-6.5-3.907-7.342-2.468c-0.723,0.709,1.53,1.796,2.529,2.441
				c2.607,1.683,5.214,3.365,7.821,5.048c-0.88,0.833-2.232,0.841-3.442,0.799c-6.266-0.217-16.037-0.555-15.746,1.301
				c0.291,1.856,8.978,1.784,16.143,1.578c-4.599,0.824-16.634,1.352-17.626,4.208c-0.282,1.147,11.865,0.068,17.047-0.115
				c-3.292,0.56-13.209,2.393-13.034,4.392c0.407,1.713,8.945-0.217,13.396-1.056c-3.299,1.388-10.175,3.403-9.294,5.258
				c0.27,0.485,4.978-0.873,8.69-1.456c1.611-0.253,3.988-0.467,5.568-0.874c3.259-0.838,5.593-0.833,8.375-2.726
				c2.036-1.385,3.24-3.908,3.034-6.363c-0.262-3.121-2.538-5.366-5.366-6.26C398.943,349.331,395.351,348.422,391.849,346.779z"/>
			<circle style="fill:none;stroke:#F1B649;stroke-miterlimit:10;" cx="451.546" cy="250.366" r="3.016"/>
			<path style="fill:none;stroke:#F1B649;stroke-miterlimit:10;" d="M459.086,274.494c0,1.666,1.35,3.016,3.016,3.016
				c1.666,0,3.016-1.35,3.016-3.016c0-1.665-1.35-3.016-3.016-3.016C460.437,271.478,459.086,272.829,459.086,274.494z"/>
			<path style="fill:none;stroke:#F1B649;stroke-miterlimit:10;" d="M445.514,269.216c0,1.249,1.013,2.262,2.262,2.262
				c1.249,0,2.262-1.013,2.262-2.262c0-1.249-1.013-2.262-2.262-2.262C446.527,266.954,445.514,267.967,445.514,269.216z"/>
			<path style="fill:none;stroke:#F1B649;stroke-miterlimit:10;" d="M471.15,295.606c0,0.833,0.675,1.508,1.508,1.508
				c0.833,0,1.508-0.675,1.508-1.508c0-0.833-0.675-1.508-1.508-1.508C471.825,294.098,471.15,294.773,471.15,295.606z"/>
		</g>
	</g>
</g>
</svg>
