<?xml version="1.0" encoding="utf-8"?>
<!-- Generator: Adobe Illustrator 27.5.0, SVG Export Plug-In . SVG Version: 6.00 Build 0)  -->
<svg version="1.1" xmlns="http://www.w3.org/2000/svg" xmlns:xlink="http://www.w3.org/1999/xlink" x="0px" y="0px"
	 viewBox="0 0 500 500" style="enable-background:new 0 0 500 500;" xml:space="preserve">
<!-- <g id="BACKGROUND">
	<circle style="fill-rule:evenodd;clip-rule:evenodd;fill:#FFFFFF;" cx="250" cy="226.275" r="202.924"/>
	<rect x="0" y="0" style="fill-rule:evenodd;clip-rule:evenodd;fill:#49A4DD;" width="500" height="500"/>
</g> -->
<g id="OBJECTS">
	<g>
		<polygon style="fill-rule:evenodd;clip-rule:evenodd;fill:#FFD7B7;" points="146.959,378.036 215.527,402.296 238.036,345.106 
			305.256,278.212 197.053,235.627 		"/>
		<path style="fill-rule:evenodd;clip-rule:evenodd;fill:#FFD7B7;" d="M329.428,242.858L329.428,242.858
			c5.243,5.305,5.123,13.872-0.11,19.175l-93.29,81.088c-13.33,11.587-31.904-6.271-19.064-19.281l93.291-81.09
			C315.885,237.856,324.184,237.554,329.428,242.858z"/>
		<path style="fill-rule:evenodd;clip-rule:evenodd;fill:#FFD7B7;" d="M334.311,202.253L334.311,202.253
			c5.473,5.537,5.348,14.48-0.114,20.016L234.27,323.541c-5.461,5.536-14.542,5.424-20.016-0.113l0,0
			c-5.473-5.537-5.353-14.47,0.116-20.013l99.928-101.274C319.766,196.597,328.837,196.717,334.311,202.253z"/>
		<path style="fill-rule:evenodd;clip-rule:evenodd;fill:#FFD7B7;" d="M332.439,122.632L332.439,122.632
			c5.473,5.537,5.354,14.48-0.114,20.015l-96.276,97.461c-5.467,5.536-14.541,5.423-20.015-0.113l0,0
			c-5.473-5.537-5.356-14.475,0.116-20.014l96.275-97.462C317.897,116.979,326.965,117.095,332.439,122.632z"/>
		<path style="fill-rule:evenodd;clip-rule:evenodd;fill:#FFD7B7;" d="M331.245,184.411l-93.481,94.597
			c-12.969,13.13-33.298-6.565-19.899-20.127l93.481-94.6C324.334,151.136,344.626,170.868,331.245,184.411z"/>
		<rect x="288.655" y="174.534" style="fill-rule:evenodd;clip-rule:evenodd;fill:#FFFFFF;" width="25.462" height="17.581"/>
		<path style="fill-rule:evenodd;clip-rule:evenodd;fill:#FFFFFF;" d="M208.552,110.77h85.712c9.334,0,16.969,7.636,16.969,16.969
			v196.225c0,9.333-7.635,16.969-16.969,16.969h-85.712c-9.334,0-16.969-7.636-16.969-16.969V127.739
			C191.583,118.406,199.218,110.77,208.552,110.77z"/>
		<rect x="195.498" y="123.281" style="fill-rule:evenodd;clip-rule:evenodd;fill:#0B476F;" width="111.819" height="195.427"/>
		<g>
			<defs>
				<rect id="SVGID_1_" x="195.498" y="123.281" width="111.819" height="195.427"/>
			</defs>
			<clipPath id="SVGID_00000076600026974775197390000010481185823636990121_">
				<use xlink:href="#SVGID_1_"  style="overflow:visible;"/>
			</clipPath>
			<g style="clip-path:url(#SVGID_00000076600026974775197390000010481185823636990121_);">
				<g>
					<path style="fill-rule:evenodd;clip-rule:evenodd;fill:#3E7FAB;" d="M193.53,192.181c0.575-0.324,1.303-0.12,1.627,0.454
						c0.324,0.575,0.12,1.303-0.455,1.627c-0.138,0.078-0.277,0.152-0.413,0.218c-2.807,1.375-6.866,1.329-11.068-0.64
						c-4.059-1.902-8.3-5.613-11.676-11.588c-0.373-0.661-0.735-1.346-1.082-2.055c-0.29-0.592-0.045-1.308,0.548-1.598
						c0.592-0.29,1.308-0.044,1.598,0.548c0.33,0.675,0.67,1.319,1.016,1.933c3.104,5.494,6.95,8.881,10.607,10.594
						c3.514,1.647,6.806,1.736,9.005,0.659L193.53,192.181z"/>
					<path style="fill-rule:evenodd;clip-rule:evenodd;fill:#3E7FAB;" d="M194.28,194.407c-3.395,0.48-6.31,0.036-8.581-0.95
						c-1.811-0.786-3.223-1.922-4.158-3.22c-0.984-1.365-1.451-2.91-1.323-4.436c0.096-1.152,0.53-2.283,1.333-3.309
						c0.814-1.041,1.834-1.68,2.958-1.955c1.382-0.339,2.89-0.111,4.329,0.599c1.357,0.669,2.664,1.776,3.743,3.239
						c1.627,2.207,2.75,5.253,2.731,8.852C195.309,193.829,194.86,194.326,194.28,194.407L194.28,194.407z M186.646,191.263
						c1.661,0.721,3.768,1.091,6.241,0.891c-0.179-2.572-1.045-4.747-2.237-6.364c-0.846-1.147-1.848-2.004-2.871-2.508
						c-0.94-0.464-1.884-0.623-2.707-0.421c-0.609,0.149-1.172,0.509-1.636,1.102c-0.499,0.637-0.768,1.333-0.827,2.034
						c-0.08,0.957,0.228,1.947,0.873,2.842C184.175,189.802,185.248,190.656,186.646,191.263z"/>
					<path style="fill-rule:evenodd;clip-rule:evenodd;fill:#3E7FAB;" d="M193.53,194.262c-0.575-0.324-0.778-1.052-0.455-1.627
						c0.324-0.575,1.052-0.778,1.627-0.454l0.292,0.153c2.199,1.076,5.49,0.988,9.005-0.659c3.658-1.714,7.504-5.101,10.607-10.594
						c0.346-0.613,0.686-1.258,1.016-1.933c0.29-0.592,1.006-0.838,1.598-0.548c0.593,0.29,0.838,1.006,0.548,1.598
						c-0.346,0.708-0.708,1.394-1.082,2.055c-3.376,5.975-7.617,9.686-11.676,11.588c-4.202,1.969-8.26,2.015-11.068,0.64
						C193.807,194.414,193.668,194.341,193.53,194.262z"/>
					<path style="fill-rule:evenodd;clip-rule:evenodd;fill:#3E7FAB;" d="M195.312,192.117c2.474,0.123,4.567-0.311,6.206-1.084
						c1.38-0.65,2.427-1.538,3.091-2.521c0.618-0.917,0.897-1.915,0.788-2.865c-0.08-0.699-0.371-1.387-0.889-2.009
						c-0.48-0.576-1.056-0.918-1.672-1.048c-0.83-0.176-1.768,0.01-2.691,0.501v0.005c-1.01,0.538-1.987,1.424-2.795,2.594
						C196.208,187.34,195.41,189.539,195.312,192.117L195.312,192.117z M202.539,193.199c-2.239,1.055-5.141,1.589-8.555,1.214
						c-0.58-0.065-1.043-0.547-1.064-1.149c-0.13-3.595,0.9-6.676,2.459-8.934c1.035-1.499,2.307-2.645,3.639-3.354l0.002,0.004
						c1.42-0.755,2.92-1.03,4.31-0.735c1.128,0.24,2.165,0.847,3.013,1.865c0.833,1,1.302,2.118,1.433,3.265
						c0.175,1.526-0.243,3.085-1.182,4.478C205.701,191.179,204.325,192.357,202.539,193.199z"/>
					<rect x="175.896" y="193.222" style="fill-rule:evenodd;clip-rule:evenodd;fill:#1D618F;" width="36.44" height="32.342"/>
					<g>
						<defs>
							
								<rect id="SVGID_00000013871316926731702210000011668535537358006181_" x="175.896" y="193.222" width="36.44" height="32.342"/>
						</defs>
						<clipPath id="SVGID_00000061443298685768171380000005459038387196472461_">
							<use xlink:href="#SVGID_00000013871316926731702210000011668535537358006181_"  style="overflow:visible;"/>
						</clipPath>
						<g style="clip-path:url(#SVGID_00000061443298685768171380000005459038387196472461_);">
							<g>
								
									<rect x="182.006" y="220.529" transform="matrix(0.7071 -0.7071 0.7071 0.7071 -96.4791 212.7719)" style="opacity:0.05;fill-rule:evenodd;clip-rule:evenodd;fill:#FFFFFF;" width="53.175" height="4.63"/>
								
									<rect x="174.767" y="213.804" transform="matrix(0.7071 -0.7071 0.7071 0.7071 -93.8437 205.6877)" style="opacity:0.05;fill-rule:evenodd;clip-rule:evenodd;fill:#FFFFFF;" width="53.175" height="4.63"/>
								
									<rect x="167.528" y="207.078" transform="matrix(0.7071 -0.7071 0.7071 0.7071 -91.2072 198.5729)" style="opacity:0.05;fill-rule:evenodd;clip-rule:evenodd;fill:#FFFFFF;" width="53.175" height="4.63"/>
								
									<rect x="160.29" y="200.352" transform="matrix(0.7071 -0.7071 0.7071 0.7071 -88.5722 191.5018)" style="opacity:0.05;fill-rule:evenodd;clip-rule:evenodd;fill:#FFFFFF;" width="53.175" height="4.63"/>
								
									<rect x="153.051" y="193.626" transform="matrix(0.7071 -0.7071 0.7071 0.7071 -85.9365 184.4133)" style="opacity:0.05;fill-rule:evenodd;clip-rule:evenodd;fill:#FFFFFF;" width="53.175" height="4.63"/>
							</g>
						</g>
					</g>
					<path style="fill-rule:evenodd;clip-rule:evenodd;fill:#3E7FAB;" d="M192.916,193.222c0-0.663,0.538-1.2,1.2-1.2
						c0.662,0,1.2,0.537,1.2,1.2v32.342c0,0.663-0.538,1.2-1.2,1.2c-0.663,0-1.2-0.537-1.2-1.2V193.222z"/>
				</g>
				<g>
					<path style="fill-rule:evenodd;clip-rule:evenodd;fill:#3E7FAB;" d="M309.606,192.181c0.575-0.324,1.303-0.12,1.627,0.454
						c0.324,0.575,0.12,1.303-0.455,1.627c-0.138,0.078-0.277,0.152-0.413,0.218c-2.807,1.375-6.866,1.329-11.068-0.64
						c-4.059-1.902-8.3-5.613-11.676-11.588c-0.373-0.661-0.735-1.346-1.082-2.055c-0.29-0.592-0.044-1.308,0.548-1.598
						c0.592-0.29,1.309-0.044,1.599,0.548c0.33,0.675,0.67,1.319,1.016,1.933c3.104,5.494,6.95,8.881,10.608,10.594
						c3.514,1.647,6.806,1.736,9.005,0.659L309.606,192.181z"/>
					<path style="fill-rule:evenodd;clip-rule:evenodd;fill:#3E7FAB;" d="M310.356,194.407c-3.395,0.48-6.31,0.036-8.581-0.95
						c-1.811-0.786-3.223-1.922-4.158-3.22c-0.984-1.365-1.451-2.91-1.323-4.436c0.096-1.152,0.53-2.283,1.333-3.309
						c0.814-1.041,1.834-1.68,2.958-1.955c1.382-0.339,2.89-0.111,4.329,0.599c1.357,0.669,2.664,1.776,3.743,3.239
						c1.627,2.207,2.75,5.253,2.731,8.852C311.385,193.829,310.936,194.326,310.356,194.407L310.356,194.407z M302.722,191.263
						c1.66,0.721,3.768,1.091,6.241,0.891c-0.178-2.572-1.045-4.747-2.237-6.364c-0.846-1.147-1.848-2.004-2.871-2.508
						c-0.94-0.464-1.884-0.623-2.707-0.421c-0.609,0.149-1.172,0.509-1.636,1.102c-0.499,0.637-0.768,1.333-0.827,2.034
						c-0.08,0.957,0.228,1.947,0.873,2.842C300.251,189.802,301.324,190.656,302.722,191.263z"/>
					<path style="fill-rule:evenodd;clip-rule:evenodd;fill:#3E7FAB;" d="M309.606,194.262c-0.575-0.324-0.778-1.052-0.455-1.627
						c0.324-0.575,1.052-0.778,1.627-0.454l0.292,0.153c2.198,1.076,5.49,0.988,9.005-0.659c3.658-1.714,7.504-5.101,10.608-10.594
						c0.346-0.613,0.686-1.258,1.016-1.933c0.29-0.592,1.006-0.838,1.599-0.548c0.593,0.29,0.838,1.006,0.548,1.598
						c-0.346,0.708-0.708,1.394-1.082,2.055c-3.376,5.975-7.617,9.686-11.676,11.588c-4.202,1.969-8.26,2.015-11.068,0.64
						C309.883,194.414,309.745,194.341,309.606,194.262z"/>
					<path style="fill-rule:evenodd;clip-rule:evenodd;fill:#3E7FAB;" d="M311.388,192.117c2.473,0.123,4.567-0.311,6.206-1.084
						c1.38-0.65,2.427-1.538,3.091-2.521c0.619-0.917,0.897-1.915,0.788-2.865c-0.08-0.699-0.371-1.387-0.889-2.009
						c-0.48-0.576-1.056-0.918-1.672-1.048c-0.83-0.176-1.768,0.01-2.691,0.501v0.005c-1.01,0.538-1.987,1.424-2.795,2.594
						C312.285,187.34,311.486,189.539,311.388,192.117L311.388,192.117z M318.615,193.199c-2.239,1.055-5.141,1.589-8.555,1.214
						c-0.58-0.065-1.043-0.547-1.064-1.149c-0.13-3.595,0.9-6.676,2.459-8.934c1.035-1.499,2.307-2.645,3.639-3.354l0.002,0.004
						c1.42-0.755,2.92-1.03,4.31-0.735c1.128,0.24,2.165,0.847,3.013,1.865c0.833,1,1.302,2.118,1.434,3.265
						c0.175,1.526-0.243,3.085-1.182,4.478C321.777,191.179,320.401,192.357,318.615,193.199z"/>
					<rect x="291.972" y="193.222" style="fill-rule:evenodd;clip-rule:evenodd;fill:#1D618F;" width="36.44" height="32.342"/>
					<g>
						<defs>
							
								<rect id="SVGID_00000027572957064111531710000012563815636227835797_" x="291.972" y="193.222" width="36.44" height="32.342"/>
						</defs>
						<clipPath id="SVGID_00000112624171312191043500000005401106750456278703_">
							<use xlink:href="#SVGID_00000027572957064111531710000012563815636227835797_"  style="overflow:visible;"/>
						</clipPath>
						<g style="clip-path:url(#SVGID_00000112624171312191043500000005401106750456278703_);">
							<g>
								
									<rect x="298.082" y="220.529" transform="matrix(0.7071 -0.7071 0.7071 0.7071 -62.4799 294.8515)" style="opacity:0.05;fill-rule:evenodd;clip-rule:evenodd;fill:#FFFFFF;" width="53.175" height="4.63"/>
								
									<rect x="290.843" y="213.804" transform="matrix(0.7071 -0.7071 0.7071 0.7071 -59.8433 287.7686)" style="opacity:0.05;fill-rule:evenodd;clip-rule:evenodd;fill:#FFFFFF;" width="53.175" height="4.63"/>
								
									<rect x="283.604" y="207.078" transform="matrix(0.7071 -0.7071 0.7071 0.7071 -57.2131 280.6522)" style="opacity:0.05;fill-rule:evenodd;clip-rule:evenodd;fill:#FFFFFF;" width="53.175" height="4.63"/>
								
									<rect x="276.366" y="200.352" transform="matrix(0.7071 -0.7071 0.7071 0.7071 -54.5742 273.5801)" style="opacity:0.05;fill-rule:evenodd;clip-rule:evenodd;fill:#FFFFFF;" width="53.175" height="4.63"/>
								
									<rect x="269.127" y="193.626" transform="matrix(0.7071 -0.7071 0.7071 0.7071 -51.9386 266.4916)" style="opacity:0.05;fill-rule:evenodd;clip-rule:evenodd;fill:#FFFFFF;" width="53.175" height="4.63"/>
							</g>
						</g>
					</g>
					<path style="fill-rule:evenodd;clip-rule:evenodd;fill:#3E7FAB;" d="M308.992,193.222c0-0.663,0.538-1.2,1.2-1.2
						c0.663,0,1.2,0.537,1.2,1.2v32.342c0,0.663-0.538,1.2-1.2,1.2c-0.662,0-1.2-0.537-1.2-1.2V193.222z"/>
				</g>
			</g>
		</g>
		<path style="fill-rule:evenodd;clip-rule:evenodd;fill:#FC4F7D;" d="M217.363,264.538h68.089c5.109,0,9.288,4.18,9.288,9.289l0,0
			c0,5.109-4.18,9.289-9.288,9.289h-68.089c-5.109,0-9.288-4.18-9.288-9.289l0,0C208.075,268.718,212.255,264.538,217.363,264.538z"
			/>
		<text transform="matrix(1 0 0 1 228.817 279.9155)" style="fill:#FFFFFF; font-family:'BloggerSans-Bold'; font-size:16.0795px;">SHARE</text>
		<path style="fill-rule:evenodd;clip-rule:evenodd;fill:#CAD6DE;" d="M232.568,331.771h37.681c1.6,0,2.909-1.309,2.909-2.909l0,0
			c0-1.6-1.309-2.909-2.909-2.909h-37.681c-1.6,0-2.909,1.309-2.909,2.909l0,0C229.658,330.461,230.968,331.771,232.568,331.771z"/>
		<g>
			<path style="fill-rule:evenodd;clip-rule:evenodd;fill:#CAD6DE;" d="M236.165,119.617h20.432c1.356,0,2.465-1.109,2.465-2.465
				l0,0c0-1.356-1.109-2.465-2.465-2.465h-20.432c-1.356,0-2.465,1.109-2.465,2.465l0,0
				C233.7,118.508,234.81,119.617,236.165,119.617z"/>
			<path style="fill-rule:evenodd;clip-rule:evenodd;fill:#CAD6DE;" d="M266.553,114.687c1.415,0,2.562,1.147,2.562,2.562
				c0,1.415-1.147,2.563-2.562,2.563c-1.415,0-2.562-1.147-2.562-2.563C263.991,115.834,265.138,114.687,266.553,114.687z"/>
		</g>
		<path style="fill-rule:evenodd;clip-rule:evenodd;fill:#FFD7B7;" d="M173.697,322.873l9.626,2.698l2.292-12.201l18.457-97.948
			c3.127-16.594-3.479-23.426-13.316-27.504c-5.418-2.245-8.688-0.328-9.64,4.727l-20.351,107.996
			C158.936,310.351,164.751,320.366,173.697,322.873z"/>
		<path style="fill-rule:evenodd;clip-rule:evenodd;fill:#FFD7B7;" d="M185.934,247.842c8.753-0.548,16.903,15.853,18.202,36.632
			c1.299,20.779-4.742,38.067-13.495,38.615c-8.753,0.547-16.903-15.853-18.202-36.632
			C171.139,265.678,177.181,248.389,185.934,247.842z"/>
		<path style="fill-rule:evenodd;clip-rule:evenodd;fill:#FFD7B7;" d="M335.141,238.359L335.141,238.359
			c4.802,4.857,4.737,12.753-0.099,17.556l-16.445,16.33c-4.837,4.804-12.755,4.757-17.556-0.1l0,0
			c-4.801-4.857-4.745-12.741,0.101-17.555l16.444-16.33C322.434,233.447,330.341,233.502,335.141,238.359z"/>
		<path style="fill-rule:evenodd;clip-rule:evenodd;fill:#FFD7B7;" d="M339.501,197.099L339.501,197.099
			c5.473,5.536,5.4,14.538-0.115,20.016L323.42,232.97c-5.515,5.477-14.542,5.424-20.016-0.114l0,0
			c-5.473-5.537-5.409-14.527,0.117-20.014l15.966-15.857C325.012,191.499,334.027,191.563,339.501,197.099z"/>
		<path style="fill-rule:evenodd;clip-rule:evenodd;fill:#FFEEE0;" d="M319.449,264.964l-3.9,5.276
			c-7.352,9.947-22.874-5.581-13.17-13.32l4.716-3.761C312.216,249.076,323.719,259.186,319.449,264.964z"/>
		<path style="fill-rule:evenodd;clip-rule:evenodd;fill:#FFEEE0;" d="M325.853,223.417l-4.446,6.015
			c-8.382,11.34-26.078-6.363-15.015-15.186l5.377-4.288C317.606,205.304,330.721,216.831,325.853,223.417z"/>
		<polygon style="fill-rule:evenodd;clip-rule:evenodd;fill:#FFFFFF;" points="239.4,375.645 193.874,500 90.326,500 
			148.894,340.026 		"/>
		<path style="fill-rule:evenodd;clip-rule:evenodd;fill:#FFD7B7;" d="M331.361,164.395L331.361,164.395
			c5.473,5.537,5.401,14.539-0.115,20.016l-15.966,15.855c-5.515,5.478-14.542,5.424-20.016-0.113l0,0
			c-5.474-5.537-5.41-14.527,0.116-20.014l15.966-15.857C316.873,158.794,325.887,158.858,331.361,164.395z"/>
		<path style="fill-rule:evenodd;clip-rule:evenodd;fill:#FFEEE0;" d="M316.727,192.66l-4.446,6.015
			c-8.382,11.34-26.079-6.363-15.015-15.186l5.377-4.288C308.48,174.547,321.595,186.074,316.727,192.66z"/>
		<path style="fill-rule:evenodd;clip-rule:evenodd;fill:#FFE8D6;" d="M181.406,191.105l-4.082,21.661
			c1.681,0.457,5.672,1.094,6.36-1.248l3.633-12.119C189.156,195.135,184.276,192.189,181.406,191.105z"/>
		<g>
			<polygon style="fill-rule:evenodd;clip-rule:evenodd;fill:#FC4F7D;" points="175.462,139.258 251.39,148.867 327.635,139.257 
				306.881,123.281 196.217,123.281 			"/>
			<polygon style="fill-rule:evenodd;clip-rule:evenodd;fill:#FF8FAD;" points="205.899,139.258 297.201,139.258 284.747,123.281 
				218.35,123.281 			"/>
			<polygon style="fill-rule:evenodd;clip-rule:evenodd;fill:#FC4F7D;" points="236.331,139.258 266.765,139.257 262.616,123.282 
				240.483,123.28 			"/>
			<path style="fill-rule:evenodd;clip-rule:evenodd;fill:#DE2455;" d="M175.463,139.257l0,11.485
				c0,8.37,6.847,15.217,15.217,15.217l0.001,0c8.37-0.001,15.218-6.847,15.217-15.217l0.001-11.485L175.463,139.257z"/>
			<path style="fill-rule:evenodd;clip-rule:evenodd;fill:#FC4F7D;" d="M236.332,139.258v11.485c0,8.369-6.847,15.217-15.216,15.217
				l-0.002,0.001c-8.368-0.001-15.216-6.847-15.216-15.217l0.001-11.485H236.332z"/>
			<path style="fill-rule:evenodd;clip-rule:evenodd;fill:#DE2455;" d="M236.332,139.258v11.485c0,8.369,6.847,15.218,15.218,15.217
				l0.001,0c8.368,0,15.216-6.847,15.216-15.217l0-11.485L236.332,139.258z"/>
			<path style="fill-rule:evenodd;clip-rule:evenodd;fill:#FC4F7D;" d="M297.201,139.258l0,11.485
				c0.001,8.37-6.848,15.217-15.217,15.217h-0.001c-8.368-0.001-15.216-6.848-15.216-15.217l0-11.485L297.201,139.258z"/>
			<path style="fill-rule:evenodd;clip-rule:evenodd;fill:#DE2455;" d="M297.201,139.258l0,11.485
				c0.001,8.37,6.847,15.217,15.217,15.217h0.001c8.369,0,15.216-6.847,15.217-15.217l-0.001-11.486L297.201,139.258z"/>
		</g>
		<g>
			
				<line style="fill-rule:evenodd;clip-rule:evenodd;fill:none;stroke:#FFFFFF;stroke-width:3.8398;stroke-linecap:round;stroke-linejoin:round;stroke-miterlimit:22.9256;" x1="251.408" y1="73.281" x2="251.408" y2="95.26"/>
			
				<line style="fill-rule:evenodd;clip-rule:evenodd;fill:none;stroke:#FFFFFF;stroke-width:3.8398;stroke-linecap:round;stroke-linejoin:round;stroke-miterlimit:22.9256;" x1="271.307" y1="79.176" x2="259.337" y2="97.609"/>
			
				<line style="fill-rule:evenodd;clip-rule:evenodd;fill:none;stroke:#FFFFFF;stroke-width:3.8398;stroke-linecap:round;stroke-linejoin:round;stroke-miterlimit:22.9256;" x1="231.507" y1="79.176" x2="243.478" y2="97.609"/>
		</g>
		<g>
			<g>
				<polygon style="fill-rule:evenodd;clip-rule:evenodd;fill:#FFD7B7;" points="425.123,428.525 453.977,500 377.449,500 
					360.797,458.716 				"/>
				<g>
					<path style="fill-rule:evenodd;clip-rule:evenodd;fill:#F2BF96;" d="M277.958,368.112l35.173,54.257
						c4.528,6.983,28.632,28.981,35.957,25.03c7.32-3.948-1.889-27.601-6.596-34.473l-27.142-36.859
						C299.787,354.932,285.391,362.966,277.958,368.112z"/>
					<path style="fill-rule:evenodd;clip-rule:evenodd;fill:#FFD7B7;" d="M292.937,263.344l27.918,69.884
						c2.871-12.311,21.853-13.482,28.242-1.516c1.211-13.021,18.984-15.591,26.894-5.873c3.088-11.818,22.104-12.239,27.219,0.653
						l23.435,59.041c6.579,16.577,6.076,41.464,2.36,52.728c-11.014,33.393-55.685,32.744-70.997,21.761
						c-11.939-8.563-21.402-13.343-25.046-22.167l-65.995-163.701C258.428,253.477,286.378,246.163,292.937,263.344z"/>
					<path style="fill-rule:evenodd;clip-rule:evenodd;fill:#F2BF96;" d="M385.071,346.164c0,0-4.416-11.802-8.384-22.266
						c-0.282,0.608-0.516,1.255-0.695,1.941c-0.696-0.853-1.467-1.609-2.296-2.275C378.754,333.803,385.071,346.164,385.071,346.164
						L385.071,346.164z M320.945,332.877c0.285-1.086,0.7-2.083,1.219-2.988c4.41,11.743,11.488,31.987,11.488,31.987
						s-9.255-20.014-12.797-28.648C320.909,333.36,320.936,333.21,320.945,332.877L320.945,332.877z M345.623,327.341
						c1.363,1.187,2.551,2.641,3.476,4.371c0.081-0.866,0.235-1.685,0.456-2.458c4.493,11.542,10.001,25.866,10.001,25.866
						S350.783,338.065,345.623,327.341z"/>
				</g>
			</g>
			<path style="opacity:0.5;fill-rule:evenodd;clip-rule:evenodd;fill:#FFE8D6;" d="M278.761,370.53l12.055,17.417
				c1.448-0.841,4.578-3.14,3.441-5.191l-5.833-10.667C286.748,367.953,281.44,369.301,278.761,370.53z"/>
			<path style="fill-rule:evenodd;clip-rule:evenodd;fill:#FFE8D6;" d="M289.823,268.227l-1.595-5.97
				c-3.985-14.906-26.365-5.74-19.557,6.498l3.26,5.858C274.749,279.678,290.928,272.354,289.823,268.227z"/>
		</g>
		<g>
			<path style="fill-rule:evenodd;clip-rule:evenodd;fill:#FFFFFF;" d="M250.822,192.181c0.575-0.323,1.303-0.12,1.627,0.455
				c0.324,0.575,0.12,1.303-0.454,1.627c-0.139,0.078-0.277,0.152-0.414,0.218c-2.807,1.375-6.866,1.329-11.068-0.64
				c-4.059-1.902-8.3-5.612-11.676-11.588c-0.373-0.661-0.735-1.346-1.082-2.055c-0.29-0.592-0.044-1.308,0.548-1.598
				c0.592-0.29,1.309-0.044,1.598,0.548c0.33,0.675,0.67,1.319,1.017,1.933c3.104,5.494,6.95,8.881,10.608,10.594
				c3.514,1.647,6.807,1.736,9.005,0.659L250.822,192.181z"/>
			<path style="fill-rule:evenodd;clip-rule:evenodd;fill:#FFFFFF;" d="M251.572,194.407c-3.395,0.48-6.31,0.036-8.581-0.95
				c-1.811-0.787-3.223-1.923-4.158-3.22c-0.984-1.365-1.451-2.91-1.323-4.436c0.096-1.152,0.53-2.283,1.333-3.309
				c0.814-1.042,1.834-1.68,2.958-1.955c1.382-0.339,2.89-0.111,4.329,0.599c1.357,0.669,2.665,1.776,3.743,3.239
				c1.627,2.207,2.75,5.253,2.73,8.852C252.601,193.829,252.152,194.326,251.572,194.407L251.572,194.407z M243.938,191.263
				c1.661,0.721,3.768,1.09,6.241,0.891c-0.179-2.572-1.045-4.746-2.237-6.364c-0.846-1.147-1.848-2.003-2.871-2.508
				c-0.94-0.464-1.884-0.622-2.707-0.421c-0.609,0.149-1.172,0.509-1.636,1.102c-0.499,0.638-0.768,1.333-0.827,2.035
				c-0.08,0.957,0.228,1.947,0.873,2.842C241.467,189.802,242.54,190.656,243.938,191.263z"/>
			<path style="fill-rule:evenodd;clip-rule:evenodd;fill:#FFFFFF;" d="M250.822,194.262c-0.575-0.324-0.778-1.052-0.454-1.627
				c0.323-0.575,1.052-0.778,1.627-0.455l0.291,0.153c2.198,1.077,5.49,0.988,9.005-0.659c3.658-1.714,7.504-5.1,10.608-10.594
				c0.346-0.613,0.686-1.258,1.016-1.933c0.29-0.592,1.006-0.838,1.598-0.548c0.593,0.29,0.838,1.006,0.548,1.598
				c-0.347,0.708-0.708,1.393-1.082,2.055c-3.376,5.975-7.617,9.686-11.676,11.588c-4.202,1.969-8.26,2.015-11.068,0.64
				C251.099,194.414,250.96,194.341,250.822,194.262z"/>
			<path style="fill-rule:evenodd;clip-rule:evenodd;fill:#FFFFFF;" d="M252.604,192.117c2.473,0.123,4.567-0.311,6.206-1.084
				c1.38-0.65,2.427-1.537,3.091-2.521c0.619-0.917,0.897-1.915,0.788-2.865c-0.08-0.699-0.371-1.386-0.89-2.009
				c-0.48-0.576-1.056-0.918-1.673-1.049c-0.83-0.176-1.768,0.01-2.691,0.501v0.005c-1.01,0.538-1.987,1.424-2.795,2.594
				C253.501,187.34,252.702,189.539,252.604,192.117L252.604,192.117z M259.831,193.199c-2.239,1.055-5.141,1.589-8.555,1.214
				c-0.58-0.065-1.043-0.547-1.064-1.148c-0.13-3.595,0.9-6.676,2.459-8.934c1.035-1.498,2.307-2.645,3.639-3.353l0.002,0.004
				c1.42-0.755,2.92-1.03,4.31-0.734c1.128,0.24,2.165,0.846,3.013,1.864c0.833,1,1.301,2.118,1.433,3.265
				c0.175,1.526-0.243,3.085-1.182,4.478C262.993,191.179,261.617,192.357,259.831,193.199z"/>
			<rect x="233.188" y="193.222" style="fill-rule:evenodd;clip-rule:evenodd;fill:#FFAF36;" width="36.44" height="32.342"/>
			<g>
				<defs>
					
						<rect id="SVGID_00000077287806302948224370000009298317180122448007_" x="233.188" y="193.222" width="36.44" height="32.342"/>
				</defs>
				<clipPath id="SVGID_00000129195438251770410850000011272422175958274458_">
					<use xlink:href="#SVGID_00000077287806302948224370000009298317180122448007_"  style="overflow:visible;"/>
				</clipPath>
				<g style="clip-path:url(#SVGID_00000129195438251770410850000011272422175958274458_);">
					<g>
						
							<rect x="239.298" y="220.529" transform="matrix(0.7071 -0.7071 0.7071 0.7071 -79.6984 253.279)" style="opacity:0.3;fill-rule:evenodd;clip-rule:evenodd;fill:#FFFFFF;" width="53.175" height="4.63"/>
						
							<rect x="232.059" y="213.804" transform="matrix(0.7071 -0.7071 0.7071 0.7071 -77.062 246.2007)" style="opacity:0.3;fill-rule:evenodd;clip-rule:evenodd;fill:#FFFFFF;" width="53.175" height="4.63"/>
						
							<rect x="224.82" y="207.078" transform="matrix(0.7071 -0.7071 0.7071 0.7071 -74.4287 239.0874)" style="opacity:0.3;fill-rule:evenodd;clip-rule:evenodd;fill:#FFFFFF;" width="53.175" height="4.63"/>
						
							<rect x="217.582" y="200.352" transform="matrix(0.7071 -0.7071 0.7071 0.7071 -71.7917 232.0135)" style="opacity:0.3;fill-rule:evenodd;clip-rule:evenodd;fill:#FFFFFF;" width="53.175" height="4.63"/>
						
							<rect x="210.343" y="193.626" transform="matrix(0.7071 -0.7071 0.7071 0.7071 -69.1556 224.9296)" style="opacity:0.3;fill-rule:evenodd;clip-rule:evenodd;fill:#FFFFFF;" width="53.175" height="4.63"/>
					</g>
				</g>
			</g>
			<path style="fill-rule:evenodd;clip-rule:evenodd;fill:#FFFFFF;" d="M250.208,193.222c0-0.663,0.538-1.2,1.2-1.2
				c0.663,0,1.2,0.537,1.2,1.2v32.342c0,0.662-0.537,1.2-1.2,1.2c-0.663,0-1.2-0.538-1.2-1.2V193.222z"/>
		</g>
		<path style="fill-rule:evenodd;clip-rule:evenodd;fill:#FFFFFF;" d="M244.403,243.816c-0.518,0.23-1.075,0.385-1.66,0.455
			c0.597-0.358,1.055-0.924,1.271-1.599c-0.559,0.331-1.177,0.572-1.835,0.701c-0.527-0.562-1.278-0.913-2.11-0.913
			c-1.596,0-2.89,1.294-2.89,2.89c0,0.227,0.026,0.447,0.075,0.659c-2.402-0.121-4.532-1.271-5.958-3.02
			c-0.249,0.427-0.391,0.923-0.391,1.453c0,1.003,0.51,1.887,1.286,2.406c-0.474-0.015-0.919-0.145-1.309-0.361l0,0.036
			c0,1.4,0.996,2.569,2.319,2.834c-0.243,0.066-0.498,0.101-0.762,0.101c-0.186,0-0.367-0.018-0.544-0.052
			c0.368,1.148,1.435,1.984,2.7,2.007c-0.989,0.775-2.236,1.237-3.59,1.237c-0.233,0-0.463-0.014-0.689-0.04
			c1.279,0.82,2.798,1.299,4.431,1.299c5.316,0,8.224-4.404,8.224-8.224c0-0.126-0.003-0.25-0.008-0.374
			C243.526,244.904,244.016,244.395,244.403,243.816z"/>
		<path style="fill-rule:evenodd;clip-rule:evenodd;fill:#FFFFFF;" d="M210.606,243.967v2.022h-1.481v2.473h1.481v6.785h3.043
			v-6.785h2.042c0,0,0.191-1.186,0.284-2.482c-0.266,0-2.314,0-2.314,0v-1.69c0.023-0.38,0.291-0.587,0.66-0.593
			c0.327,0,1.018,0,1.658,0c0-0.336,0-1.499,0-2.574c-0.854,0-1.826,0-2.254,0C210.531,241.123,210.606,243.598,210.606,243.967z"/>
		<path style="fill-rule:evenodd;clip-rule:evenodd;fill:#FFFFFF;" d="M259.465,241.235h6.209c1.057,0,2.018,0.433,2.714,1.129
			l0.003,0.002c0.696,0.697,1.129,1.658,1.129,2.715v6.209c0,1.057-0.433,2.018-1.129,2.714l-0.003,0.003
			c-0.697,0.696-1.658,1.129-2.714,1.129h-6.209c-1.057,0-2.017-0.433-2.714-1.129l-0.002-0.003
			c-0.697-0.697-1.129-1.658-1.129-2.714v-6.209c0-1.057,0.433-2.018,1.129-2.715l0.002-0.002
			C257.447,241.667,258.408,241.235,259.465,241.235L259.465,241.235z M265.674,242.447h-6.209c-0.725,0-1.383,0.296-1.861,0.773
			c-0.477,0.477-0.773,1.136-0.773,1.861v6.209c0,0.724,0.296,1.383,0.773,1.861c0.478,0.477,1.136,0.773,1.861,0.773h6.209
			c0.724,0,1.383-0.296,1.861-0.773c0.477-0.478,0.773-1.136,0.773-1.861v-6.209c0-0.724-0.296-1.383-0.773-1.861
			C267.057,242.743,266.398,242.447,265.674,242.447L265.674,242.447z M262.569,244.398c-1.045,0-1.992,0.424-2.678,1.109
			c-0.685,0.685-1.109,1.632-1.109,2.677c0,1.044,0.424,1.99,1.109,2.675l0.002,0.002c0.685,0.685,1.631,1.109,2.675,1.109
			c1.046,0,1.993-0.424,2.677-1.109c0.685-0.685,1.109-1.632,1.109-2.678c0-1.042-0.424-1.989-1.109-2.675l-0.002-0.002
			C264.558,244.822,263.612,244.398,262.569,244.398L262.569,244.398z M264.39,246.362c-0.464-0.464-1.107-0.752-1.82-0.752
			c-0.711,0-1.354,0.289-1.82,0.754c-0.465,0.465-0.754,1.11-0.754,1.82c0,0.712,0.288,1.356,0.753,1.822
			c0.466,0.465,1.11,0.753,1.822,0.753c0.711,0,1.355-0.288,1.82-0.754c0.466-0.466,0.754-1.11,0.754-1.82
			c0-0.712-0.288-1.356-0.752-1.82L264.39,246.362L264.39,246.362z M266.116,243.631c-0.444,0-0.803,0.36-0.803,0.803
			c0,0.444,0.36,0.803,0.803,0.803c0.444,0,0.803-0.359,0.803-0.803C266.919,243.991,266.559,243.631,266.116,243.631z"/>
		<g>
			<path style="fill-rule:evenodd;clip-rule:evenodd;fill:#FFFFFF;" d="M285.3,249.144c1.465,0,2.653,1.187,2.653,2.652
				c0,1.465-1.188,2.653-2.653,2.653c-1.465,0-2.652-1.187-2.652-2.653C282.647,250.331,283.835,249.144,285.3,249.144z"/>
			<path style="fill-rule:evenodd;clip-rule:evenodd;fill:#FFFFFF;" d="M285.3,247.307c2.479,0,4.489,2.01,4.489,4.489h1.781
				c0-3.462-2.807-6.269-6.269-6.269V247.307L285.3,247.307z M285.3,243.66v-1.738c5.454,0,9.875,4.421,9.875,9.875h-1.738
				C293.437,247.302,289.794,243.66,285.3,243.66z"/>
		</g>
		<polygon style="fill-rule:evenodd;clip-rule:evenodd;fill:#FFFFFF;" points="444.747,448.361 465.808,500 364.898,500 
			357.403,481.633 		"/>
		<g>
			<defs>
				<polygon id="SVGID_00000171678989113746214630000010993923919831064496_" points="444.747,448.361 465.808,500 364.898,500 
					357.403,481.633 				"/>
			</defs>
			<clipPath id="SVGID_00000012473716514039280250000013812942554193499057_">
				<use xlink:href="#SVGID_00000171678989113746214630000010993923919831064496_"  style="overflow:visible;"/>
			</clipPath>
			<g style="clip-path:url(#SVGID_00000012473716514039280250000013812942554193499057_);">
				
					<line style="fill-rule:evenodd;clip-rule:evenodd;fill:none;stroke:#D2E9F7;stroke-width:3.8398;stroke-miterlimit:22.9256;" x1="380.368" y1="472.885" x2="408.039" y2="541.398"/>
				<path style="fill-rule:evenodd;clip-rule:evenodd;fill:#D2E9F7;" d="M400.854,476.059c-4.153,0.137-7.408,3.614-7.271,7.766
					c0.136,4.153,3.614,7.409,7.766,7.272c4.153-0.137,7.409-3.614,7.272-7.767C408.484,479.178,405.007,475.923,400.854,476.059z"
					/>
				<path style="fill-rule:evenodd;clip-rule:evenodd;fill:#D2E9F7;" d="M411.012,501.211c-4.153,0.137-7.408,3.614-7.272,7.767
					c0.137,4.153,3.614,7.408,7.767,7.272c4.153-0.137,7.408-3.614,7.272-7.767C418.642,504.329,415.165,501.074,411.012,501.211z"
					/>
				<g>
					<path style="fill-rule:evenodd;clip-rule:evenodd;fill:#FFFFFF;" d="M403.494,481.867c-0.9,0.03-1.606,0.784-1.577,1.684
						c0.03,0.9,0.784,1.606,1.684,1.577c0.901-0.03,1.606-0.784,1.577-1.684C405.148,482.544,404.394,481.838,403.494,481.867z"/>
					<path style="fill-rule:evenodd;clip-rule:evenodd;fill:#FFFFFF;" d="M398.602,482.029c-0.9,0.03-1.606,0.784-1.577,1.684
						c0.029,0.901,0.784,1.606,1.684,1.577c0.901-0.03,1.606-0.783,1.577-1.684C400.257,482.705,399.503,481.999,398.602,482.029z"
						/>
				</g>
				<g>
					<path style="fill-rule:evenodd;clip-rule:evenodd;fill:#FFFFFF;" d="M414.037,509.698c-0.543-0.719-1.566-0.861-2.285-0.317
						c-0.719,0.543-0.861,1.566-0.318,2.285c0.543,0.719,1.567,0.861,2.285,0.318C414.438,511.44,414.58,510.417,414.037,509.698z"
						/>
					<path style="fill-rule:evenodd;clip-rule:evenodd;fill:#FFFFFF;" d="M411.085,505.794c-0.543-0.719-1.566-0.861-2.285-0.317
						c-0.719,0.543-0.861,1.566-0.317,2.285s1.566,0.861,2.285,0.318C411.487,507.536,411.629,506.513,411.085,505.794z"/>
				</g>
			</g>
		</g>
		<g>
			<path style="fill-rule:evenodd;clip-rule:evenodd;fill:#FFAF36;" d="M134.745,69.978c18.675,0,33.815,13.062,33.815,29.174
				c0,9.674-5.459,18.247-13.863,23.554l4.763,12.046l-11.67-8.677c-4.015,1.45-8.421,2.251-13.045,2.251
				c-18.676,0-33.816-13.061-33.816-29.174C100.929,83.039,116.069,69.978,134.745,69.978z"/>
			<g>
				<path style="fill-rule:evenodd;clip-rule:evenodd;fill:#FFFFFF;" d="M149.535,95.142c-2.531,0-4.583,2.052-4.583,4.583
					c0,2.531,2.052,4.583,4.583,4.583c2.53,0,4.582-2.052,4.582-4.583C154.117,97.194,152.065,95.142,149.535,95.142z"/>
				<path style="fill-rule:evenodd;clip-rule:evenodd;fill:#FFFFFF;" d="M134.745,95.142c-2.531,0-4.584,2.052-4.584,4.583
					c0,2.531,2.053,4.583,4.584,4.583c2.53,0,4.583-2.052,4.583-4.583C139.328,97.194,137.275,95.142,134.745,95.142z"/>
				<path style="fill-rule:evenodd;clip-rule:evenodd;fill:#FFFFFF;" d="M119.955,95.142c-2.531,0-4.583,2.052-4.583,4.583
					c0,2.531,2.052,4.583,4.583,4.583c2.531,0,4.583-2.052,4.583-4.583C124.538,97.194,122.486,95.142,119.955,95.142z"/>
			</g>
		</g>
		<text transform="matrix(1 0 0 1 239.9489 53.6479)" style="fill:#7EC6F2; font-family:'Arial-BoldMT'; font-size:38.6498px;">$</text>
		<path style="fill-rule:evenodd;clip-rule:evenodd;fill:#7EC6F2;" d="M145.552,175.169c0.98-1.618,3.714-3.575,6.413-3.575
			c3.713,0,6.895,2.941,6.895,6.654c0,7.908-9.504,14.625-13.308,17.648c-3.804-3.024-13.309-9.74-13.309-17.648
			c0-3.713,3.182-6.654,6.896-6.654C141.875,171.594,144.591,173.537,145.552,175.169z"/>
		<g>
			<path style="fill-rule:evenodd;clip-rule:evenodd;fill:#0B476F;" d="M196.824,91.876l-16.635-29.827
				c-1.674-3.001-2.661-6.447-2.607-10.131c0.163-10.953,9.173-19.7,20.126-19.537c10.953,0.163,19.7,9.174,19.537,20.127
				c-0.055,3.685-1.145,7.099-2.907,10.049L196.824,91.876z"/>
			<path style="fill-rule:evenodd;clip-rule:evenodd;fill:#FFAF36;" d="M197.622,38.189c7.745,0.115,13.93,6.487,13.815,14.231
				c-0.115,7.745-6.487,13.93-14.231,13.815c-7.745-0.115-13.93-6.486-13.815-14.231C183.505,44.259,189.877,38.074,197.622,38.189z
				"/>
		</g>
		<g>
			
				<ellipse transform="matrix(0.4643 -0.8857 0.8857 0.4643 -153.9781 194.6411)" style="fill-rule:evenodd;clip-rule:evenodd;fill:#FFFFFF;" cx="83.903" cy="224.6" rx="36.58" ry="36.58"/>
			<g>
				<rect x="58.294" y="208.783" style="fill-rule:evenodd;clip-rule:evenodd;fill:#FC4F7D;" width="51.219" height="31.635"/>
				<polygon style="fill-rule:evenodd;clip-rule:evenodd;fill:#DE2455;" points="83.903,220.584 109.513,240.418 58.294,240.418 
									"/>
				<polygon style="fill-rule:evenodd;clip-rule:evenodd;fill:#FF8FAD;" points="83.903,228.617 109.513,208.783 58.294,208.783 
									"/>
			</g>
		</g>
		<g>
			<path style="fill-rule:evenodd;clip-rule:evenodd;fill:#DE2455;" d="M314.871,36.415c-18.675,0-33.815,13.061-33.815,29.174
				c0,9.674,5.459,18.247,13.863,23.554l-4.763,12.046l11.671-8.677c4.015,1.45,8.421,2.251,13.045,2.251
				c18.676,0,33.816-13.061,33.816-29.174C348.686,49.476,333.547,36.415,314.871,36.415z"/>
			<g>
				<path style="fill-rule:evenodd;clip-rule:evenodd;fill:#FFFFFF;" d="M300.081,61.579c2.531,0,4.583,2.052,4.583,4.583
					c0,2.531-2.052,4.582-4.583,4.582c-2.531,0-4.582-2.052-4.582-4.582C295.499,63.631,297.55,61.579,300.081,61.579z"/>
				<path style="fill-rule:evenodd;clip-rule:evenodd;fill:#FFFFFF;" d="M314.871,61.579c2.531,0,4.584,2.052,4.584,4.583
					c0,2.531-2.052,4.582-4.584,4.582c-2.53,0-4.583-2.052-4.583-4.582C310.288,63.631,312.34,61.579,314.871,61.579z"/>
				<path style="fill-rule:evenodd;clip-rule:evenodd;fill:#FFFFFF;" d="M329.661,61.579c2.531,0,4.583,2.052,4.583,4.583
					c0,2.531-2.052,4.582-4.583,4.582c-2.531,0-4.583-2.052-4.583-4.582C325.078,63.631,327.13,61.579,329.661,61.579z"/>
			</g>
		</g>
		<g>
			<path style="fill-rule:evenodd;clip-rule:evenodd;fill:#FFFFFF;" d="M67.1,151.697c15.376,0,30.752,0,46.128,0
				c5.166,0,5.387-5.85,0-5.859c-15.375-0.025-30.753-0.025-46.128,0C61.713,145.847,61.934,151.697,67.1,151.697L67.1,151.697z
				 M68.898,146.304c1.355,0,2.454,1.099,2.454,2.454c0,1.355-1.099,2.454-2.454,2.454s-2.454-1.099-2.454-2.454
				C66.444,147.403,67.543,146.304,68.898,146.304L68.898,146.304z M111.429,146.304c1.355,0,2.454,1.099,2.454,2.454
				c0,1.355-1.099,2.454-2.454,2.454c-1.356,0-2.454-1.099-2.454-2.454C108.974,147.403,110.073,146.304,111.429,146.304z"/>
			<path style="fill-rule:evenodd;clip-rule:evenodd;fill:#FFFFFF;" d="M93.422,125.861c-1.356,0-2.454,1.099-2.454,2.454
				c0,1.355,1.099,2.454,2.454,2.454c1.355,0,2.454-1.099,2.454-2.454C95.876,126.96,94.777,125.861,93.422,125.861z"/>
			<path style="fill-rule:evenodd;clip-rule:evenodd;fill:#FFFFFF;" d="M112.382,148.105l-16.746-18.729
				c-0.387-0.432-1.057-0.47-1.489-0.083l0,0c-0.432,0.387-0.47,1.057-0.083,1.489l16.746,18.729
				c0.387,0.432,1.057,0.47,1.489,0.083l0,0C112.731,149.208,112.769,148.538,112.382,148.105z"/>
			<path style="fill-rule:evenodd;clip-rule:evenodd;fill:#FFFFFF;" d="M86.905,125.861c1.355,0,2.454,1.099,2.454,2.454
				s-1.099,2.454-2.454,2.454s-2.454-1.099-2.454-2.454S85.549,125.861,86.905,125.861z"/>
			<path style="fill-rule:evenodd;clip-rule:evenodd;fill:#FFFFFF;" d="M67.945,148.105l18.266-20.428
				c0.387-0.433,1.057-0.47,1.489-0.083l0,0c0.432,0.387,0.47,1.057,0.083,1.489l-18.266,20.428
				c-0.387,0.433-1.057,0.47-1.489,0.083l0,0C67.596,149.208,67.558,148.538,67.945,148.105z"/>
			<path style="fill-rule:evenodd;clip-rule:evenodd;fill:#FFFFFF;" d="M75.77,171.253c-4.275,0-5.638-2.096-6.122-4.879
				l-2.246-12.932h45.522l-2.246,12.932c-0.483,2.784-1.846,4.879-6.122,4.879H75.77L75.77,171.253z M75.29,155.095
				c-1.077,0-1.845,0.811-1.71,1.803c0.202,1.476,0.406,2.952,0.609,4.427c0.204,1.475,0.405,2.951,0.606,4.426
				c0.135,0.992,1.037,1.801,2.003,1.801l0,0c0.969,0,1.673-0.81,1.568-1.801c-0.155-1.475-0.308-2.951-0.465-4.426
				c-0.156-1.475-0.315-2.951-0.468-4.427C77.331,155.907,76.367,155.095,75.29,155.095L75.29,155.095L75.29,155.095z
				 M82.725,155.095c-1.077,0-1.897,0.811-1.821,1.803c0.113,1.476,0.226,2.952,0.34,4.427c0.115,1.475,0.224,2.951,0.337,4.426
				c0.076,0.992,0.929,1.801,1.898,1.801l0,0c0.966,0,1.719-0.81,1.676-1.801c-0.064-1.475-0.13-2.951-0.195-4.426
				c-0.066-1.475-0.134-2.951-0.199-4.427C84.718,155.906,83.802,155.095,82.725,155.095L82.725,155.095L82.725,155.095z
				 M90.16,155.095c-1.074,0-1.945,0.811-1.929,1.803c0.024,1.476,0.046,2.952,0.071,4.427s0.043,2.951,0.067,4.426
				c0.016,0.992,0.825,1.801,1.787,1.801l0,0c0.969,0,1.771-0.81,1.787-1.801c0.024-1.475,0.047-2.951,0.071-4.426
				c0.023-1.475,0.046-2.951,0.07-4.427C92.101,155.906,91.237,155.095,90.16,155.095L90.16,155.095L90.16,155.095z
				 M105.034,155.095c-1.077,0-2.048,0.811-2.151,1.803c-0.153,1.476-0.313,2.952-0.468,4.427c-0.155,1.475-0.313,2.951-0.468,4.426
				c-0.104,0.992,0.602,1.801,1.572,1.801l0,0c0.966,0,1.87-0.81,2.006-1.801c0.201-1.475,0.407-2.951,0.609-4.426
				c0.202-1.475,0.408-2.951,0.609-4.427C106.879,155.906,106.111,155.095,105.034,155.095L105.034,155.095L105.034,155.095z
				 M97.599,155.095c-1.077,0-2,0.811-2.043,1.803c-0.064,1.476-0.135,2.952-0.198,4.427c-0.064,1.475-0.134,2.951-0.199,4.426
				c-0.043,0.992,0.714,1.801,1.679,1.801l0,0c0.969,0,1.819-0.81,1.895-1.801c0.113-1.475,0.229-2.951,0.34-4.426
				c0.111-1.475,0.229-2.951,0.34-4.427C99.487,155.906,98.675,155.095,97.599,155.095L97.599,155.095z"/>
		</g>
		<g>
			<path style="fill-rule:evenodd;clip-rule:evenodd;fill:#FFFFFF;" d="M444.269,228.435c0.79,0,1.431,0.641,1.431,1.431
				s-0.641,1.431-1.431,1.431h-35.384c-0.79,0-1.431-0.641-1.431-1.431s0.641-1.431,1.431-1.431H444.269z"/>
			<path style="fill-rule:evenodd;clip-rule:evenodd;fill:#FFFFFF;" d="M448.001,210.331c0.2-0.762,0.981-1.218,1.744-1.017
				c0.762,0.2,1.218,0.981,1.017,1.744l-5.113,19.172c-0.201,0.762-0.982,1.218-1.744,1.017c-0.763-0.2-1.218-0.981-1.017-1.744
				L448.001,210.331z"/>
			<path style="fill-rule:evenodd;clip-rule:evenodd;fill:#FFFFFF;" d="M449.382,209.263c0.79,0,1.431,0.641,1.431,1.431
				c0,0.79-0.641,1.431-1.431,1.431h-45.609c-0.79,0-1.431-0.641-1.431-1.431c0-0.79,0.641-1.431,1.431-1.431H449.382z"/>
			<path style="fill-rule:evenodd;clip-rule:evenodd;fill:#FFFFFF;" d="M447.677,215.654c0.79,0,1.431,0.641,1.431,1.431
				s-0.641,1.431-1.431,1.431h-42.2c-0.79,0-1.431-0.641-1.431-1.431s0.641-1.431,1.431-1.431H447.677z"/>
			<path style="fill-rule:evenodd;clip-rule:evenodd;fill:#FFFFFF;" d="M445.973,222.044c0.79,0,1.431,0.641,1.431,1.431
				s-0.641,1.431-1.431,1.431h-38.792c-0.79,0-1.431-0.641-1.431-1.431s0.641-1.431,1.431-1.431H445.973z"/>
			<path style="fill-rule:evenodd;clip-rule:evenodd;fill:#FFFFFF;" d="M412.791,210.89c-0.108-0.781,0.438-1.502,1.219-1.61
				c0.781-0.108,1.501,0.437,1.61,1.218l2.66,19.171c0.108,0.781-0.437,1.502-1.218,1.61c-0.781,0.108-1.502-0.438-1.61-1.219
				L412.791,210.89z"/>
			<path style="fill-rule:evenodd;clip-rule:evenodd;fill:#FFFFFF;" d="M436.526,210.498c0.108-0.781,0.829-1.327,1.61-1.219
				c0.781,0.108,1.327,0.829,1.218,1.61l-2.661,19.172c-0.108,0.781-0.829,1.327-1.609,1.219c-0.781-0.108-1.327-0.829-1.219-1.61
				L436.526,210.498z"/>
			<path style="fill-rule:evenodd;clip-rule:evenodd;fill:#FFFFFF;" d="M424.783,210.694c0-0.79,0.641-1.431,1.431-1.431
				c0.79,0,1.431,0.641,1.431,1.431v19.172c0,0.79-0.641,1.431-1.431,1.431c-0.79,0-1.431-0.641-1.431-1.431V210.694z"/>
			<path style="fill-rule:evenodd;clip-rule:evenodd;fill:#FFFFFF;" d="M417.075,236.429c1.51,0,2.877,0.612,3.867,1.602
				c0.99,0.99,1.602,2.357,1.602,3.867c0,1.51-0.612,2.877-1.602,3.866c-0.99,0.99-2.357,1.602-3.867,1.602
				c-1.51,0-2.877-0.612-3.867-1.602c-0.99-0.99-1.602-2.357-1.602-3.866c0-1.51,0.612-2.877,1.602-3.867
				C414.198,237.041,415.565,236.429,417.075,236.429L417.075,236.429z M418.919,240.054c-0.472-0.471-1.123-0.763-1.843-0.763
				s-1.372,0.292-1.843,0.763c-0.471,0.471-0.763,1.123-0.763,1.843c0,0.72,0.292,1.372,0.763,1.843
				c0.472,0.471,1.123,0.763,1.843,0.763s1.372-0.292,1.843-0.763c0.471-0.471,0.763-1.123,0.763-1.843
				C419.682,241.178,419.39,240.526,418.919,240.054z"/>
			<path style="fill-rule:evenodd;clip-rule:evenodd;fill:#FFFFFF;" d="M436.23,236.429c1.51,0,2.877,0.612,3.866,1.602
				s1.602,2.357,1.602,3.867c0,1.51-0.612,2.877-1.602,3.866s-2.357,1.602-3.866,1.602c-1.51,0-2.877-0.612-3.867-1.602
				s-1.602-2.357-1.602-3.866c0-1.51,0.612-2.877,1.602-3.867S434.72,236.429,436.23,236.429L436.23,236.429z M438.073,240.054
				c-0.471-0.471-1.123-0.763-1.843-0.763s-1.372,0.292-1.843,0.763c-0.471,0.471-0.763,1.123-0.763,1.843
				c0,0.72,0.292,1.372,0.763,1.843c0.471,0.471,1.123,0.763,1.843,0.763c0.72,0,1.372-0.292,1.843-0.763
				c0.472-0.471,0.763-1.123,0.763-1.843C438.836,241.178,438.545,240.526,438.073,240.054z"/>
			<path style="fill-rule:evenodd;clip-rule:evenodd;fill:#FFFFFF;" d="M400.288,203.165c-0.2-0.762,0.255-1.543,1.017-1.744
				c0.762-0.2,1.543,0.255,1.744,1.017l8.753,32.824c0.2,0.762-0.255,1.544-1.017,1.744c-0.763,0.201-1.543-0.255-1.744-1.017
				L400.288,203.165z"/>
			<path style="fill-rule:evenodd;clip-rule:evenodd;fill:#FFFFFF;" d="M401.668,201.371c0.79,0,1.431,0.641,1.431,1.431
				c0,0.79-0.641,1.431-1.431,1.431h-8.141c-0.79,0-1.431-0.641-1.431-1.431c0-0.79,0.641-1.431,1.431-1.431H401.668z"/>
			<path style="fill-rule:evenodd;clip-rule:evenodd;fill:#FFFFFF;" d="M442.733,234.195c0.79,0,1.431,0.641,1.431,1.431
				s-0.641,1.431-1.431,1.431h-32.312c-0.79,0-1.431-0.641-1.431-1.431s0.641-1.431,1.431-1.431H442.733z"/>
		</g>
		
			<ellipse transform="matrix(0.4719 -0.8817 0.8817 0.4719 77.3209 431.8724)" style="fill-rule:evenodd;clip-rule:evenodd;fill:#0B476F;" cx="399.142" cy="151.397" rx="36.58" ry="36.58"/>
		<g>
			<path style="fill-rule:evenodd;clip-rule:evenodd;fill:#FFAF36;" d="M390.255,161.083c3.984,5.063,5.452,11.662,5.654,14.352
				c0.202,2.69,1.744,2.941,4.86,2.533c3.116-0.408,5.896-1.074,2.499-7.421c-3.398-6.347-9.886-14.401-12.74-16.593
				C387.675,151.761,386.614,157.485,390.255,161.083z"/>
			<path style="fill-rule:evenodd;clip-rule:evenodd;fill:#FFFFFF;" d="M404.338,172.869c-0.249-0.675-0.601-1.444-1.07-2.322
				c-3.398-6.347-9.886-14.402-12.74-16.594c-2.853-2.192-3.914,3.532-0.273,7.13c3.984,5.062,5.452,11.662,5.654,14.352
				C397.932,173.912,402.232,172.453,404.338,172.869z"/>
			<polygon style="fill-rule:evenodd;clip-rule:evenodd;fill:#FFFFFF;" points="381.739,142.363 379.197,143.751 376.006,157.131 
				387.479,164.728 390.286,164.006 397.492,148.666 			"/>
			<path style="fill-rule:evenodd;clip-rule:evenodd;fill:#FFAF36;" d="M404.165,125.098c5.514-2.176,13.182,4.164,17.127,14.161
				c3.945,9.997,2.674,19.865-2.84,22.041c-0.871,0.344-1.796,0.475-2.751,0.412c-9.646-0.628-17.938,0.482-25.415,2.294
				c-2.585-1.191-5.481-4.818-7.369-9.603c-1.887-4.78-2.25-9.404-1.178-12.041c6.579-3.719,13.552-8.677,20.139-15.691
				C402.533,125.976,403.296,125.441,404.165,125.098L404.165,125.098z M387.479,164.728c-2.628-1.894-5.142-5.246-6.798-9.442
				c-1.655-4.194-2.108-8.357-1.484-11.535c-0.527,0.278-1.052,0.549-1.572,0.813c-3.144,1.241-3.869,6.867-1.619,12.567
				c2.249,5.7,6.621,9.315,9.765,8.074l0.001,0C386.337,165.042,386.905,164.883,387.479,164.728L387.479,164.728z M417.529,158.962
				c4.302-1.698,5.004-10.131,1.569-18.837s-9.708-14.387-14.01-12.689c-3.128,1.234-3.711,10.958-0.728,18.83
				C407.469,154.476,414.362,160.212,417.529,158.962z"/>
			<path style="fill-rule:evenodd;clip-rule:evenodd;fill:#F06358;" d="M406.365,124.672c5.014-0.072,11.02,5.432,14.533,13.629
				c0.102,0.244,0.204,0.491,0.302,0.741c4.15,10.515,2.159,20.171-2.353,21.951c-4.511,1.78-12.265-4.159-16.022-14.076
				c-3.602-9.509-2.211-20.338,1.567-21.829C405.02,124.841,405.681,124.704,406.365,124.672L406.365,124.672z M417.529,158.962
				c4.302-1.698,5.004-10.131,1.569-18.837c-3.436-8.706-9.708-14.387-14.01-12.689c-3.128,1.234-3.711,10.958-0.728,18.83
				C407.469,154.476,414.362,160.212,417.529,158.962z"/>
			<path style="fill-rule:evenodd;clip-rule:evenodd;fill:#FFFFFF;" d="M408.166,161.728c-2.991,0.271-8.28-6.181-10.674-13.062
				c-2.505-7.202-2.227-15.896-0.334-17.39c1.568-1.554,5.159-5.448,7.007-6.177c5.514-2.176,13.182,4.164,17.127,14.161
				c3.945,9.997,2.674,19.865-2.84,22.041C416.384,162.116,410.843,161.618,408.166,161.728L408.166,161.728z M417.529,158.962
				c4.302-1.698,5.004-10.131,1.569-18.837c-3.436-8.706-9.708-14.387-14.01-12.689c-3.128,1.234-3.711,10.958-0.728,18.83
				C407.469,154.476,414.362,160.212,417.529,158.962z"/>
			<path style="fill-rule:evenodd;clip-rule:evenodd;fill:#FFAF36;" d="M406.971,139.527c3.053,0,5.529,2.475,5.529,5.529
				c0,2.607-1.805,4.793-4.234,5.376c-1.034-1.415-1.966-3.072-2.654-4.889c-0.653-1.724-1.081-3.564-1.305-5.334
				C405.098,139.775,406.006,139.527,406.971,139.527z"/>
		</g>
		<g>
			
				<ellipse transform="matrix(0.999 -0.0442 0.0442 0.999 -13.3662 4.4417)" style="fill-rule:evenodd;clip-rule:evenodd;fill:#FFAF36;" cx="93.764" cy="304.489" rx="26.872" ry="26.872"/>
			<path style="fill-rule:evenodd;clip-rule:evenodd;fill:#0B476F;" d="M66.59,298.899c-0.093,0.451-0.175,0.906-0.243,1.366
				c-0.072,0.459-0.132,0.922-0.178,1.388c-0.094,0.932-0.142,1.878-0.142,2.836c0,0.957,0.047,1.903,0.142,2.836
				c0.047,0.466,0.106,0.929,0.178,1.388c0.068,0.46,0.149,0.915,0.243,1.366c0.092,0.452,0.195,0.899,0.309,1.342
				c0.228,0.886,0.499,1.755,0.81,2.606c0.156,0.425,0.321,0.844,0.497,1.26c0.174,0.414,0.36,0.824,0.555,1.229
				c0.096,0.202,0.197,0.402,0.298,0.602c0.204,0.399,0.419,0.792,0.641,1.18c0.668,1.161,1.417,2.27,2.241,3.318
				c0.412,0.524,0.842,1.032,1.291,1.525c0.297,0.329,0.605,0.65,0.918,0.963c0.314,0.314,0.636,0.619,0.963,0.919
				c1.478,1.343,3.1,2.529,4.844,3.53c0.388,0.223,0.781,0.437,1.179,0.641c0.797,0.408,1.618,0.779,2.457,1.111
				c0.42,0.165,0.844,0.321,1.275,0.466c2.793,0.945,5.784,1.458,8.894,1.458c2.123,0,4.189-0.239,6.172-0.691
				c0.928-0.21,1.838-0.466,2.726-0.766c0.429-0.146,0.854-0.302,1.275-0.467c0.839-0.331,1.66-0.702,2.457-1.111
				c0.398-0.204,0.791-0.418,1.178-0.64c1.743-1.002,3.365-2.188,4.844-3.531c0.329-0.299,0.651-0.605,0.963-0.918
				c0.313-0.314,0.621-0.635,0.919-0.964c0.448-0.493,0.876-1.001,1.288-1.526c0.652-0.829,1.256-1.695,1.81-2.598
				c0.147-0.238,0.292-0.478,0.432-0.721c0.223-0.388,0.437-0.78,0.639-1.179c0.103-0.2,0.203-0.4,0.301-0.602
				c0.193-0.404,0.379-0.814,0.555-1.229c0.175-0.415,0.34-0.835,0.496-1.26c0.311-0.851,0.582-1.72,0.808-2.606
				c0.115-0.443,0.219-0.89,0.31-1.341c0.093-0.452,0.173-0.907,0.245-1.367c0.068-0.458,0.128-0.921,0.176-1.387
				c0.094-0.933,0.142-1.879,0.142-2.837c0-0.957-0.049-1.903-0.142-2.836c-0.049-0.465-0.107-0.93-0.176-1.388
				c-0.072-0.46-0.152-0.915-0.245-1.366c-0.092-0.451-0.195-0.899-0.31-1.341c-0.226-0.886-0.497-1.756-0.808-2.606
				c-0.078-0.212-0.158-0.423-0.242-0.633c-0.248-0.629-0.518-1.248-0.812-1.854c-0.096-0.202-0.198-0.403-0.299-0.602
				c-0.205-0.399-0.418-0.792-0.639-1.178c-0.668-1.163-1.418-2.271-2.242-3.319c-0.412-0.524-0.842-1.033-1.288-1.526
				c-0.3-0.328-0.606-0.649-0.919-0.964c-0.314-0.313-0.635-0.62-0.963-0.918c-0.637-0.578-1.299-1.127-1.988-1.644
				c-0.909-0.685-1.864-1.316-2.857-1.887c-0.387-0.222-0.78-0.436-1.178-0.64c-0.182-0.092-0.365-0.184-0.549-0.272
				c-0.221-0.106-0.441-0.211-0.665-0.311c-0.093-0.042-0.187-0.083-0.281-0.125c-0.318-0.139-0.638-0.274-0.963-0.402
				c-0.005-0.002-0.009-0.003-0.014-0.006c-0.346-0.135-0.696-0.262-1.047-0.385c-0.072-0.026-0.142-0.052-0.215-0.076
				c-0.821-0.278-1.659-0.517-2.513-0.718c-0.267-0.063-0.534-0.122-0.804-0.178c-0.195-0.04-0.39-0.076-0.586-0.112
				c-1.458-0.265-2.957-0.415-4.486-0.443c-0.168-0.002-0.337-0.006-0.507-0.006c-0.287,0-0.572,0.006-0.858,0.015
				c-2.803,0.085-5.502,0.585-8.037,1.443c-0.429,0.145-0.855,0.301-1.274,0.467c-0.129,0.051-0.258,0.105-0.388,0.158
				c-0.288,0.118-0.575,0.24-0.857,0.368c-0.41,0.185-0.813,0.38-1.214,0.584c-0.398,0.204-0.791,0.418-1.178,0.64
				c-1.558,0.896-3.021,1.939-4.369,3.109c-0.16,0.139-0.318,0.28-0.474,0.421c-0.329,0.3-0.65,0.606-0.964,0.919
				c-0.314,0.314-0.621,0.635-0.918,0.963c-0.448,0.493-0.878,1.002-1.29,1.526c-0.824,1.048-1.572,2.157-2.242,3.319
				c-0.223,0.387-0.435,0.781-0.64,1.178c-0.103,0.2-0.202,0.4-0.3,0.602c-0.292,0.606-0.561,1.225-0.811,1.856
				c-0.083,0.209-0.164,0.421-0.24,0.633c-0.312,0.85-0.583,1.719-0.811,2.606C66.786,297.999,66.683,298.448,66.59,298.899
				L66.59,298.899z M89.063,278.657L89.063,278.657c0.054,0.092,0.099,0.199,0.232,0.238c0.259-0.133,0.518,0.01,0.806,0
				c0.277-0.009,0.527-0.137,0.833-0.089c0.543,0.085,1.301,0.616,1.729,0.328c0.107-0.073,0.083-0.198,0.18-0.388
				c0.078-0.151,0.197-0.317,0.273-0.503c0.215-0.005,0.432-0.009,0.647-0.009c1.794,0,3.548,0.182,5.242,0.526
				c-0.072,0.187-0.306,0.104-0.501,0.194c-0.184,0.086-0.251,0.261-0.446,0.298c-0.543,0.102-0.991-0.135-1.46-0.118
				c-0.022,0.203,0.231,0.321,0.357,0.385c0.425,0.224,0.771,0.192,1.37,0.179c0.309-0.007,0.661,0.092,0.925-0.089
				c0.167-0.115,0.157-0.366,0.298-0.505c0.06-0.059,0.146-0.118,0.245-0.169c0.295,0.07,0.587,0.145,0.879,0.224
				c-0.05,0.202-0.375,0.153-0.378,0.421c0.206,0.125,0.69-0.068,0.875-0.279c0.071,0.021,0.144,0.041,0.217,0.064
				c0.421,0.128,0.838,0.266,1.25,0.415c0.588,0.212,1.167,0.444,1.735,0.695c-0.109,0.065-0.227,0.146-0.322,0.146
				c-0.246-0.001-0.351-0.33-0.627-0.208c-0.023,0.319,0.337,0.448,0.567,0.594c0.248,0.16,0.509,0.318,0.596,0.595
				c-0.242,0.514-0.629-0.027-1.013-0.03c-0.423-0.003-1.041,0.803-1.401,0.149c0.089-0.347,0.473-0.401,0.567-0.744
				c-0.083,0.014-0.163,0.04-0.242,0.073c-0.14,0.056-0.281,0.132-0.425,0.209c-0.189,0.102-0.388,0.203-0.615,0.255
				c-0.206,0.045-0.41,0.034-0.596,0.088c-0.357,0.104-0.604,0.368-0.983,0.507c-0.147,0.054-0.322,0.036-0.476,0.088
				c-0.36,0.12-0.791,0.335-1.162,0.537c-0.379,0.204-0.808,0.42-1.043,0.624c-0.127,0.11-0.459,0.5-0.446,0.624
				c0.014,0.177,0.349,0.236,0.357,0.417c-0.008,0.11-0.193,0.348-0.059,0.506c0.122,0.145,0.367,0.028,0.626,0.06
				c0.455,0.056,0.752,0.431,1.103,0.625c0.262,0.145,0.655,0.319,0.953,0.356c0.41,0.052,0.868-0.118,0.924,0.209
				c0.055,0.314-0.386,0.427-0.416,0.625c0.222,0.291-0.152,0.429-0.15,0.684c0.001,0.205,0.256,0.516,0.478,0.535
				c0.299,0.024,0.741-0.296,0.864-0.595c0.148-0.357,0.086-0.842,0.357-1.101c1.389,0.038,2.565-0.63,2.475-2.052
				c-0.01-0.14-0.089-0.322-0.06-0.476c0.044-0.23,0.44-0.424,0.387-0.714c0.15-0.047,0.239-0.167,0.317-0.304
				c0.113-0.202,0.203-0.435,0.413-0.511c0.018-0.006,0.029-0.015,0.045-0.018c0.12-0.028,0.246-0.004,0.381,0.036
				c0.24,0.07,0.496,0.191,0.78,0.172c0.145-0.01,0.332-0.138,0.477-0.118c0.292,0.04,0.466,0.399,0.685,0.564
				c0.193,0.147,0.399,0.101,0.448,0.297c-0.058,0.331-0.287,0.343-0.268,0.646c0,0.003,0,0.005,0,0.008
				c0.022,0.272,0.306,0.48,0.446,0.506c0.219,0.041,0.529-0.076,0.746-0.178c0.234-0.111,0.448-0.349,0.652-0.517
				c0.292,0.225,0.581,0.454,0.863,0.689c0.033,0.133,0.054,0.251,0.066,0.331c0.04,0.323-0.044,0.569-0.03,0.864
				c0.038,0.502,0.671,0.451,0.983,0.713c0.093,0.08,0.129,0.283,0.209,0.387c0.151,0.201,0.334,0.201,0.357,0.417
				c0.056,0.513-0.466,0.556-0.418,1.13c-0.106,0.222-0.379,0.209-0.357,0.505c0.035,0.469,0.71,0.109,0.894,0.477
				c0.1,0.197-0.015,0.343-0.089,0.623c0.231,0.275,0.229,0.714-0.178,0.715c-0.248,0-0.317-0.266-0.567-0.328
				c-0.139-0.035-0.329-0.027-0.507-0.059c-0.15-0.027-0.33-0.072-0.475-0.09c-0.37-0.043-0.767,0.064-0.984-0.148
				c0.354-0.47,0.825-0.934,1.281-1.339c0.136-0.12,0.428-0.203,0.357-0.446c-0.253-0.222-0.564,0.014-0.803,0.149
				c-0.252,0.141-0.553,0.345-0.835,0.387c-0.493,0.073-1.147-0.144-1.551,0.119c-0.054,0.225,0.46,0.137,0.388,0.476
				c-0.198,0.033-0.383,0.049-0.536-0.09c-0.139-0.124-0.06-0.311-0.149-0.386c-0.153-0.127-0.729-0.161-0.984-0.119
				c-0.312,0.051-0.589,0.238-0.625,0.505c0.375,0.177,0.995-0.181,1.132,0.269c-0.206,0.37-0.691,0.575-0.627,1.07
				c0.027,0.193,0.254,0.448,0.418,0.477c0.165,0.028,0.258-0.135,0.418-0.12c0.167,0.017,0.128,0.208,0.327,0.179
				c0.288-0.122,0.446-0.524,0.775-0.505c0.395,0.477-0.356,0.711-0.775,0.863c-0.476,0.172-1.097,0.264-1.46,0.415
				c-0.191,0.081-0.911,0.776-1.013,0.238c-0.073-0.388,0.357-0.275,0.447-0.594c-0.461-0.09-0.891,0.197-1.309,0.357
				c-0.601,0.227-1.616,0.37-1.76,1.042c-0.028,0.135,0.06,0.386-0.03,0.475c-0.072,0.072-0.5,0.085-0.685,0.148
				c-0.287,0.098-0.538,0.309-0.716,0.357c-0.134,0.037-0.333,0.026-0.417,0.061c-0.237,0.091-0.324,0.41-0.598,0.624
				c-0.11,0.086-0.357,0.15-0.446,0.238c-0.154,0.153-0.175,0.537-0.446,0.596c-0.173,0.015-0.313-0.13-0.478-0.031
				c-0.02,0.379,0.134,0.896-0.03,1.278c-0.353,0.287-0.742,0.491-1.192,0.745c-0.25,0.139-0.473,0.175-0.775,0.326
				c-0.214,0.107-0.409,0.361-0.656,0.506c-0.569,0.335-1.256,0.73-1.25,1.577c0,0.183,0.094,0.38,0.118,0.595
				c0.014,0.126-0.014,0.249,0,0.386c0.036,0.31,0.26,0.707,0,0.921c-0.401-0.164-0.911-0.22-1.192-0.505
				c-0.078-0.293,0.154-0.536,0.12-0.802c-0.03-0.215-0.333-0.598-0.507-0.625c-0.183-0.029-0.35,0.164-0.537,0.149
				c-0.223-0.018-0.429-0.324-0.716-0.357c-0.418-0.049-0.729,0.096-1.192,0.031c-0.449,0.24-0.58,0.665-1.131,0.624
				c-0.195-0.014-0.371-0.162-0.596-0.208c-0.243-0.05-0.613-0.137-0.864-0.118c-0.508,0.033-0.875,0.398-1.311,0.624
				c-0.385,0.2-0.931,0.449-1.044,0.863c-0.063,0.224-0.011,0.537-0.09,0.744c-0.052,0.136-0.167,0.257-0.239,0.387
				c-0.334,0.609-0.611,1.414-0.355,2.291c0.037,0.13,0.368,0.863,0.506,1.011c0.153,0.165,0.605,0.411,0.863,0.415
				c0.218,0.005,0.474-0.11,0.687-0.148c0.245-0.044,0.552-0.048,0.775-0.119c0.645-0.206,0.516-1.075,1.161-1.368
				c0.282-0.128,0.608-0.154,1.103-0.179c0.157,0.132,0.232,0.364,0.209,0.565c-0.017,0.152-0.161,0.289-0.239,0.506
				c-0.067,0.19-0.081,0.413-0.146,0.566c-0.091,0.2-0.289,0.346-0.359,0.536c-0.047,0.122-0.022,0.274-0.06,0.385
				c-0.069,0.196-0.33,0.335-0.209,0.535c0.638,0.254,1.411-0.071,1.967,0.031c0.234,0.042,0.719,0.322,0.715,0.684
				c-0.003,0.27-0.21,0.447-0.239,0.743c-0.036,0.372-0.192,0.828-0.209,1.129c-0.026,0.495,0.726,1.346,1.253,1.34
				c0.565-0.008,0.897-0.563,1.579-0.268c0.226,0.098,0.466,0.464,0.714,0.446c0.207-0.014,0.52-0.375,0.657-0.624
				c0.168-0.304,0.179-0.561,0.478-0.714c0.318-0.165,0.574-0.086,0.983-0.239c0.182-0.067,0.341-0.184,0.507-0.298
				c0.143-0.099,0.296-0.359,0.475-0.179c0.239,0.238-0.29,0.371-0.089,0.625c0.413,0.219,0.624-0.407,0.925-0.416
				c0.093-0.002,0.424,0.186,0.595,0.298c0.232,0.152,0.312,0.366,0.564,0.416c0.164,0.033,0.427-0.063,0.657-0.03
				c0.304,0.044,0.484,0.304,0.716,0.298c0.281-0.008,0.415-0.313,0.656-0.357c0.525-0.097,0.721,0.058,0.952,0.385
				c0.261,0.044,0.27-0.299,0.507-0.178c-0.131,0.26,0.045,0.378,0.148,0.595c0.067,0.139,0.058,0.237,0.12,0.297
				c0.141,0.135,0.416,0.135,0.625,0.267c0.221,0.139,0.344,0.395,0.596,0.685c0.259,0.295,0.695,0.602,1.042,0.624
				c0.328,0.02,0.594-0.092,0.866-0.06c0.616,0.077,0.999,0.384,1.431,0.716c0.24,0.185,0.459,0.314,0.535,0.534
				c0.055,0.156,0.028,0.363,0.089,0.536c0.133,0.371,0.674,0.549,0.478,1.189c0.09,0.188,0.292,0.255,0.507,0.387
				c0.173,0.105,0.319,0.327,0.505,0.357c0.122,0.02,0.255-0.037,0.359-0.03c0.339,0.023,0.57,0.154,0.864,0.268
				c0.181,0.069,0.415,0.097,0.537,0.178c0.151,0.102,0.171,0.445,0.357,0.535c0.122,0.059,0.393-0.023,0.598,0
				c0.318,0.037,0.752,0.233,1.043,0.238c0.174,0.004,0.319-0.071,0.476-0.06c0.361,0.028,0.647,0.256,0.927,0.511
				c-3.59,5.789-9.366,10.084-16.167,11.725c-0.023-0.261-0.097-0.523-0.109-0.784c-0.023-0.565,0.063-0.965-0.028-1.487
				c-0.07-0.396-0.156-1.001-0.298-1.25c-0.161-0.276-0.788-0.745-1.103-0.922c-0.209-0.115-0.459-0.156-0.685-0.267
				c-0.487-0.238-1.427-0.74-1.64-1.22c-0.062-0.139-0.053-0.321-0.12-0.475c-0.129-0.306-0.402-0.569-0.596-0.863
				c-0.368-0.562-0.665-1.266-1.042-1.845c-0.191-0.294-0.357-0.628-0.566-0.863c-0.123-0.138-0.516-0.267-0.566-0.475
				c-0.067-0.276-0.27-0.653-0.237-0.864c0.041-0.283,0.595-0.513,0.595-0.772c0-0.22-0.295-0.349-0.357-0.535
				c-0.15-0.456,0.089-0.723,0.268-1.102c0.059-0.124,0.117-0.325,0.178-0.416c0.111-0.163,0.333-0.21,0.478-0.387
				c0.081-0.098,0.132-0.305,0.239-0.446c0.226-0.301,0.593-0.414,0.685-0.684c0.076-0.222,0.12-1.326,0.03-1.695
				c-0.052-0.215-0.252-0.393-0.328-0.595c-0.134-0.359-0.165-0.752-0.537-0.744c-0.229,0.004-0.39,0.257-0.536,0.416
				c-0.034,0.212-0.016,0.441-0.237,0.506c-0.34,0.1-0.469-0.356-0.866-0.475c-0.156-0.048-0.407-0.045-0.506-0.09
				c-0.288-0.13-0.382-0.551-0.685-0.715c-0.254-0.136-0.472-0.089-0.627-0.297c-0.064-0.145-0.013-0.403-0.03-0.595
				c-0.326-0.19-0.602-0.902-0.982-1.071c-0.251-0.111-0.638-0.101-0.954-0.208c-0.148-0.05-0.263-0.115-0.418-0.148
				c-0.192-0.043-0.389-0.045-0.535-0.119c-0.591-0.293-0.91-1.24-1.64-1.219c-0.311,0.007-0.611,0.299-0.894,0.297
				c-0.281-0.001-0.751-0.224-1.104-0.387c-0.364-0.169-0.769-0.262-1.072-0.416c-0.244-0.125-0.412-0.352-0.626-0.447
				c-0.164-0.073-0.402-0.084-0.535-0.148c-0.192-0.09-0.39-0.282-0.627-0.447c-0.225-0.156-0.467-0.393-0.476-0.594
				c-0.01-0.233,0.214-0.431,0.238-0.654c0.077-0.709-0.446-1.218-0.774-1.637c-0.245-0.311-0.531-0.574-0.774-0.863
				c0.013-0.19,0.013-0.225,0-0.416c-0.185-0.18-0.341-0.446-0.538-0.714c-0.176-0.242-0.521-0.501-0.564-0.772
				c-0.056-0.335,0.126-0.629,0-0.953c-0.213-0.538-0.961-0.295-0.866,0.416c0.027,0.197,0.304,0.461,0.388,0.655
				c0.085,0.199,0.069,0.446,0.149,0.685c0.076,0.228,0.308,0.427,0.388,0.685c0.125,0.406,0.121,0.845,0.237,1.1
				c0.102,0.226,0.48,0.441,0.268,0.714c-0.282,0.058-0.39-0.222-0.564-0.388c-0.099-0.09-0.454-0.263-0.507-0.475
				c-0.046-0.175,0.11-0.41,0.059-0.625c-0.104-0.42-0.951-0.431-0.956-0.862c0-0.272,0.356-0.304,0.359-0.566
				c0.003-0.286-0.393-0.53-0.477-0.772c-0.077-0.224-0.09-0.579-0.119-0.892c-0.028-0.295,0.008-0.636-0.061-0.864
				c-0.061-0.204-0.368-0.485-0.566-0.595c-0.261-0.145-0.468-0.085-0.597-0.298c-0.11-0.185-0.184-0.573-0.208-0.773
				c-0.044-0.357-0.009-0.748-0.029-1.13c-0.02-0.382-0.058-0.749,0-1.16c0.147-0.288,0.415-0.429,0.566-0.714
				c0.105-0.198,0.119-0.444,0.238-0.654c0.217-0.39,0.694-0.748,1.013-1.131c0.345-0.412,0.662-0.808,0.865-1.28
				c0.072-0.168,0.266-0.538,0.236-0.744c-0.038-0.286-0.579-0.521-0.536-0.863c0.029-0.21,0.328-0.208,0.419-0.416
				c0.046-0.108,0.087-0.408,0.088-0.536c0.006-0.287-0.145-0.586-0.088-0.892c0.049-0.262,0.438-0.368,0.238-0.655
				c-0.199-0.285-0.556,0.153-0.775-0.03c-0.201-0.17,0.04-0.374,0.06-0.684c0.007-0.124-0.073-0.266-0.06-0.357
				c0.018-0.133,0.277-0.358,0.208-0.446c-0.107-0.137-0.224-0.412-0.393-0.63C80.724,281.318,84.707,279.447,89.063,278.657z"/>
		</g>
		<path style="fill-rule:evenodd;clip-rule:evenodd;fill:#7EC6F2;" d="M268.146,403.977c0.98-1.618,3.714-3.575,6.413-3.575
			c3.713,0,6.895,2.941,6.895,6.654c0,7.908-9.504,14.625-13.308,17.648c-3.804-3.024-13.309-9.74-13.309-17.648
			c0-3.713,3.182-6.654,6.895-6.654C264.469,400.402,267.185,402.345,268.146,403.977z"/>
		<path style="fill-rule:evenodd;clip-rule:evenodd;fill:#FFFFFF;" d="M376.121,78.777c0.98-1.618,3.714-3.575,6.413-3.575
			c3.713,0,6.895,2.941,6.895,6.654c0,7.908-9.504,14.625-13.308,17.648c-3.804-3.024-13.309-9.74-13.309-17.648
			c0-3.713,3.183-6.654,6.896-6.654C372.444,75.202,375.16,77.145,376.121,78.777z"/>
		<g>
			<path style="fill-rule:evenodd;clip-rule:evenodd;fill:#7EC6F2;" d="M364.752,245.627c0.615,0.615,1.611,0.615,2.225,0
				l0.563-0.563c0.612-0.612,1.82-1.113,2.686-1.113h12.24c0.866,0,1.814-0.666,2.107-1.481l5.184-14.385
				c0.683-1.896-0.407-3.447-2.422-3.447h-10.187c-0.444-1.474-0.198-2.661,0.228-3.301c0.631-0.947,2.346-2.693,2.032-5.315
				c-0.104-0.863-0.621-2.203-1.149-2.894c-1.512-1.981-3.717-1.524-3.717,0.256c0,2.112,1.119,4.225-2.857,6.833
				c-3.976,2.61-6.693,7.717-6.693,7.732c0,0.015-0.497,0.526-1.112,1.141l-6.72,6.72c-0.615,0.615-0.615,1.612,0,2.225
				L364.752,245.627z"/>
			
				<rect x="357.52" y="237.576" transform="matrix(0.7071 -0.7071 0.7071 0.7071 -67.3463 325.2975)" style="fill-rule:evenodd;clip-rule:evenodd;fill:#7EC6F2;" width="2.914" height="12.726"/>
		</g>
		<path style="fill-rule:evenodd;clip-rule:evenodd;fill:#FFFFFF;" d="M136.627,237.117l-1-1.874l3.953-2.11l1.001,1.874
			c1.607-0.51,3.331-0.693,5.071-0.496l0.618-2.033l4.287,1.303l-0.618,2.033c1.555,0.805,2.886,1.916,3.938,3.235l1.874-1
			l2.11,3.953l-1.874,1c0.51,1.608,0.692,3.331,0.496,5.072l2.032,0.618l-1.303,4.287l-2.033-0.618
			c-0.805,1.555-1.916,2.886-3.235,3.938l1,1.874l-3.954,2.11l-1-1.874c-1.607,0.51-3.332,0.693-5.071,0.496l-0.618,2.033
			l-4.288-1.303l0.618-2.033c-1.556-0.805-2.885-1.916-3.937-3.234l-1.875,1l-2.109-3.953l1.874-1.001
			c-0.511-1.607-0.693-3.331-0.496-5.071l-2.033-0.618l1.304-4.288l2.032,0.618C134.198,239.499,135.308,238.169,136.627,237.117
			L136.627,237.117z M141.65,255.379L141.65,255.379c4.789,1.456,9.851-1.246,11.307-6.035c1.456-4.789-1.247-9.852-6.035-11.307
			c-4.788-1.456-9.851,1.246-11.307,6.035C134.16,248.861,136.861,253.923,141.65,255.379z"/>
		<g>
			<path style="fill-rule:evenodd;clip-rule:evenodd;fill:#7EC6F2;" d="M408.916,295.271c4.132,0,7.481,3.349,7.481,7.481
				c0,4.132-3.349,7.481-7.481,7.481c-4.132,0-7.481-3.349-7.481-7.481C401.435,298.62,404.784,295.271,408.916,295.271z"/>
			<path style="fill-rule:evenodd;clip-rule:evenodd;fill:#7EC6F2;" d="M408.916,290.091c6.992,0,12.66,5.668,12.66,12.66h5.021
				c0-9.765-7.916-17.681-17.681-17.681V290.091L408.916,290.091z M408.916,279.803v-4.902c15.382,0,27.85,12.469,27.85,27.85
				h-4.902C431.864,290.078,421.59,279.803,408.916,279.803z"/>
		</g>
		<g>
			<rect x="338.916" y="272.751" style="fill-rule:evenodd;clip-rule:evenodd;fill:#FFFFFF;" width="41.924" height="4.884"/>
			<path style="fill-rule:evenodd;clip-rule:evenodd;fill:#FFFFFF;" d="M338.916,299.669h41.924v-17.032h-41.924V299.669
				L338.916,299.669z M374.528,290.975L374.528,290.975l3.097,3.097l-3.097,3.097l-3.097-3.097L374.528,290.975z"/>
		</g>
		<path style="fill-rule:evenodd;clip-rule:evenodd;fill:#FFFFFF;" d="M111.045,351.646c0.98-1.618,3.714-3.575,6.413-3.575
			c3.713,0,6.895,2.941,6.895,6.654c0,7.908-9.504,14.624-13.308,17.648c-3.804-3.024-13.309-9.74-13.309-17.648
			c0-3.713,3.182-6.654,6.896-6.654C107.368,348.071,110.084,350.014,111.045,351.646z"/>
		
			<line style="fill-rule:evenodd;clip-rule:evenodd;fill:none;stroke:#D2E9F7;stroke-width:3.8398;stroke-miterlimit:22.9256;" x1="219.88" y1="367.963" x2="194.478" y2="437.349"/>
		
			<line style="fill-rule:evenodd;clip-rule:evenodd;fill:none;stroke:#D2E9F7;stroke-width:3.8398;stroke-miterlimit:22.9256;" x1="214.888" y1="442.601" x2="123.579" y2="409.172"/>
		<g>
			<path style="fill-rule:evenodd;clip-rule:evenodd;fill:#D2E9F7;" d="M197.664,390.268c4.545,0,8.251-3.707,8.251-8.251
				c0-4.545-3.707-8.251-8.251-8.251c-4.544,0-8.251,3.706-8.251,8.251C189.413,386.561,193.119,390.268,197.664,390.268z"/>
			<g>
				<path style="fill-rule:evenodd;clip-rule:evenodd;fill:#FFFFFF;" d="M194.98,383.806c0.986,0,1.789-0.804,1.789-1.789
					c0-0.986-0.804-1.789-1.789-1.789c-0.985,0-1.789,0.803-1.789,1.789C193.191,383.002,193.995,383.806,194.98,383.806z"/>
				<path style="fill-rule:evenodd;clip-rule:evenodd;fill:#FFFFFF;" d="M200.348,383.806c0.986,0,1.789-0.804,1.789-1.789
					c0-0.986-0.804-1.789-1.789-1.789c-0.985,0-1.789,0.803-1.789,1.789C198.559,383.002,199.362,383.806,200.348,383.806z"/>
			</g>
		</g>
		<g>
			<path style="fill-rule:evenodd;clip-rule:evenodd;fill:#D2E9F7;" d="M187.436,418.204c4.545,0,8.251-3.707,8.251-8.251
				c0-4.544-3.707-8.251-8.251-8.251c-4.544,0-8.251,3.706-8.251,8.251C179.186,414.497,182.892,418.204,187.436,418.204z"/>
			<g>
				<path style="fill-rule:evenodd;clip-rule:evenodd;fill:#FFFFFF;" d="M184.428,411.114c0.57-0.807,1.686-1,2.493-0.43
					s1,1.686,0.43,2.493c-0.57,0.807-1.686,1-2.493,0.43C184.051,413.038,183.858,411.921,184.428,411.114z"/>
				<path style="fill-rule:evenodd;clip-rule:evenodd;fill:#FFFFFF;" d="M187.522,406.728c0.57-0.807,1.686-1,2.493-0.43
					c0.808,0.57,1,1.686,0.431,2.493c-0.57,0.807-1.686,1-2.493,0.43C187.145,408.652,186.953,407.536,187.522,406.728z"/>
			</g>
		</g>
	</g>
</g>
</svg>
