<?xml version="1.0" encoding="utf-8"?>
<!-- Generator: Adobe Illustrator 27.5.0, SVG Export Plug-In . SVG Version: 6.00 Build 0)  -->
<svg version="1.1" xmlns="http://www.w3.org/2000/svg" xmlns:xlink="http://www.w3.org/1999/xlink" x="0px" y="0px"
	 viewBox="0 0 500 500" style="enable-background:new 0 0 500 500;" xml:space="preserve">
<!-- <g id="BACKGROUND">
	<rect style="fill:#FFFFFF;" width="500" height="500"/>
</g> -->
<g id="OBJECTS">
	<g>
		<text transform="matrix(1 0 0 1 128.7485 394.3083)" style="fill:#2192D0; font-family:'Quicksand-Bold'; font-size:18.6844px;">H A P P Y  S H O P P I N G</text>
		<text transform="matrix(1 0 0 1 124.6235 375.1657)" style="fill:#323C64; font-family:'Quicksand-Bold'; font-size:59.0616px;">MARKET</text>
		<g>
			<polygon style="fill:#323C64;" points="393.227,143.899 389.993,124.494 331.935,132.503 306.678,243.384 168.165,260.698 
				141.171,161.199 129.159,161.199 153.909,276.032 324.543,264.328 349.757,149.52 			"/>
			<path style="fill:#2192D0;" d="M294.166,273.029c-15.246,0-27.605,12.359-27.605,27.605c0,15.246,12.359,27.605,27.605,27.605
				c15.246,0,27.605-12.359,27.605-27.605C321.77,285.388,309.411,273.029,294.166,273.029z M294.166,315.707
				c-8.325,0-15.074-6.749-15.074-15.074c0-8.325,6.749-15.074,15.074-15.074c8.325,0,15.074,6.749,15.074,15.074
				C309.239,308.959,302.491,315.707,294.166,315.707z"/>
			<path style="fill:#2192D0;" d="M181.571,280.536c-13.173,0-23.851,10.678-23.851,23.851c0,13.172,10.678,23.851,23.851,23.851
				c13.173,0,23.851-10.678,23.851-23.851C205.422,291.215,194.744,280.536,181.571,280.536z M181.571,318.734
				c-7.923,0-14.346-6.423-14.346-14.346c0-7.923,6.423-14.346,14.346-14.346c7.923,0,14.346,6.423,14.346,14.346
				C195.918,312.311,189.494,318.734,181.571,318.734z"/>
		</g>
		<path style="fill:#E7B034;" d="M217.827,158.203c-1.02,0-2.013,0.113-2.972,0.318c-0.047-0.154-0.092-0.309-0.14-0.463
			c-0.166-0.522-0.324-1.045-0.527-1.554c-0.21-0.528-0.458-1.173-0.912-1.543c-0.368-0.3-0.874-0.195-1.034,0.273
			c-0.099,0.289-0.112,0.611-0.089,0.932c-0.47-0.123-0.976-0.175-1.41-0.232c-0.901-0.119-1.818-0.178-2.726-0.126
			c-1.564,0.088-3.062,0.533-4.116,1.751c-0.255,0.294-0.491,0.61-0.712,0.931c-0.165,0.24-0.274,0.461-0.116,0.733
			c0.319,0.55,1.326,0.75,1.892,0.829c1.481,0.205,3.061-0.175,4.438-0.71c0.755-0.293,1.478-0.665,2.118-1.165
			c0.27-0.211,0.577-0.472,0.839-0.766c0.089,0.407,0.192,0.811,0.296,1.215c0.044,0.171,0.088,0.344,0.133,0.517
			c-5.337,2.034-9.136,7.185-9.136,13.236c0,7.829,6.346,14.175,14.175,14.175c7.829,0,14.175-6.346,14.175-14.175
			C232.002,164.55,225.656,158.203,217.827,158.203z"/>
		<path style="fill:#2192D0;" d="M180.686,186.025c0,0,0.318-4.078,1.772-4.583c0,0,8.008,0.55,10.919,2.578
			s6.596,3.345,11.907,4.209c5.311,0.864,6.946,0.984,10.526,2.648c3.58,1.664,10.186,2.544,10.186,2.544s-0.657,3.975-1.645,5.381
			c0,0,0.23,27.211-11.182,46.308l-1.815,5.329c0,0-6.798-2.078-11.885-3.064c-5.088-0.986-9.814-0.722-14.084-3.166
			c-4.27-2.444-6.862-2.477-10.876-3.325c-4.015-0.848-6.702-2.998-6.702-2.998l1.273-4.166
			C169.079,233.722,169.995,201.546,180.686,186.025z"/>
		<polygon style="fill:#CA577C;" points="272.376,177.019 273.642,236.251 302.499,238.023 314.649,179.297 311.611,165.375 
			312.877,159.3 283.008,156.262 282.248,162.844 		"/>
		<path style="fill:#2192D0;" d="M234.66,152.719c-2.245,6.735,7.974,40.374,9.619,43.791c1.645,3.417,18.099,3.924,19.491,1.392
			c1.392-2.531-2.025-44.171-2.152-46.576c-0.127-2.405-7.214-3.544-8.733-4.177c-1.519-0.633-2.278-5.189-2.025-6.328
			c0.253-1.139,1.898-1.139,1.519-3.164s-3.417-2.405-7.341-1.519c-3.924,0.886-4.936,2.152-4.809,3.544
			c0.126,1.392,1.645,0.759,2.025,1.772c0.38,1.012,0.886,5.695,0.506,6.708C242.38,149.175,235.546,150.061,234.66,152.719z"/>
		<path style="fill:#C6D035;" d="M287.514,149.079c-6.309-3.102-12.764-18.437-10.166-20.633c2.598-2.196,6.253-0.093,6.253-0.093
			s1.047-7.954,5.312-8.309c4.264-0.355,6.703,3.879,6.784,4.424c0.081,0.545,3.566-6.936,8.325-5.832
			c4.759,1.104,5.528,6.282,5.528,6.282s5.534-6.81,8.22-3.727c2.686,3.083-0.477,8.983-0.477,8.983s4.835,0.675,5.961,3.571
			c1.126,2.896-4.818,6.007-4.818,6.007s4.537-0.395,4.75,2.916C323.401,145.979,304.181,157.273,287.514,149.079z"/>
		<path style="fill:#E7B034;" d="M278.111,159.557c-0.461-1.119-0.955-2.225-1.451-3.329c-0.034-0.076-0.067-0.15-0.101-0.225
			c0.106-0.306,0.166-0.639,0.129-1.022c-0.168-1.73-0.57-3.471-0.904-5.175c-0.346-1.762-0.728-3.517-1.143-5.263
			c-0.821-3.451-1.775-6.87-2.859-10.247c-0.83-2.584-1.576-5.842-3.827-7.61c-0.077-0.745-0.13-1.491-0.138-2.242
			c-0.008-0.806,0.171-1.882-0.373-2.573c-0.671-0.853-1.508-0.022-2.318-0.001c-1.027,0.026-1.877-0.153-2.734,0.546
			c-0.372,0.303-0.715,0.763-1.197,0.893c-0.623,0.168-1.263-0.265-1.809-0.504c-0.812-0.356-1.941-0.567-2.563,0.248
			c-0.637,0.836,0.21,1.688,0.767,2.282c0.91,0.97,1.802,1.806,2.386,3.025c0.195,0.408,0.324,0.835,0.436,1.269
			c-0.507,1.495-0.477,3.106-0.237,4.669c0.308,2.007,0.869,3.985,1.337,5.958c1.248,5.264,3.065,10.356,4.578,15.543
			c0.201,0.689,0.37,1.418,0.798,2.007c0.451,0.62,1.101,0.908,1.815,1.045c0.045,0.283,0.084,0.567,0.135,0.849
			c0.193,1.074,0.387,2.148,0.584,3.221c0.116,0.634,0.172,1.598,1.017,1.637c0.318,0.014,0.633-0.119,0.885-0.303
			c0.368-0.269,0.653-0.826,1.158-0.827c0.686-0.002,1.231,0.619,1.954,0.427c0.345-0.092,0.545-0.336,0.777-0.589
			c0.261-0.285,0.565-0.456,0.919-0.603c0.574-0.239,1.247-0.417,1.711-0.854C278.474,161.218,278.416,160.297,278.111,159.557z"/>
		<path style="fill:#CA577C;" d="M196.627,135.63c-6.272-2.915-13.362-2.842-20.034-1.742c-3.374,0.556-6.76,1.37-9.898,2.788
			c-1.037,0.469-2.04,1.048-3.022,1.671c-0.3,0.165-0.61,0.311-0.903,0.486c-4.857,2.899-8.617,7.453-11.007,12.665
			c-2.44,5.322-3.541,11.371-3.085,17.245c0.257,3.309,1.098,6.393,3.041,9.077c1.812,2.502,4.51,4.165,7.396,5.011
			c3.426,1.004,7.092,0.873,10.544,0.077c3.246-0.749,6.311-2.191,8.839-4.443c2.554-2.274,4.52-5.192,6.568-7.932
			c2.223-2.973,4.394-5.999,6.687-8.915c1.002-1.275,2.083-2.555,3.384-3.514c1.265-0.933,2.705-1.514,4.109-2.176
			c2.692-1.269,4.865-3.181,5.592-6.257C206.323,143.395,201.861,138.063,196.627,135.63z"/>
		<path style="fill:#C6D035;" d="M248.763,122.135c-0.492-4.046-3.761-6.865-7.428-8.176c-4.055-1.45-8.758-1.135-12.465,1.11
			c-3.574,2.164-5.744,5.719-6.393,9.808c-0.355,2.237-0.376,4.506-0.586,6.758c-0.177,1.901-0.312,4.038-1.296,5.725
			c-0.198,0.34-0.432,0.677-0.692,0.994c-0.022,0.024-0.04,0.05-0.062,0.074c-0.038,0.045-0.08,0.087-0.119,0.131
			c-0.689,0.736-1.451,1.401-2.285,1.958c-1.561,1.042-3.534,1.39-4.996,2.562c-1.314,1.052-1.722,2.87-0.896,4.364
			c0.811,1.468,2.688,2.007,4.209,1.381c0.841-0.346,1.449-1.496,2.365-1.546c0.917-0.05,1.774,0.624,2.668,0.764
			c2.014,0.315,2.936-1.675,3.245-3.319c0.388-2.063,1.089-3.868,2.676-5.316c1.695-1.545,3.921-2.065,6.102-2.529
			c4.133-0.879,8.153-1.809,11.492-4.566C247.231,129.89,249.232,125.995,248.763,122.135z"/>
		<path style="fill:#C6D035;" d="M265.856,226.485c1.045-15.906-15.72-28.48-29.393-18.349c-6.391,4.736-9.069,14.742-8.128,22.335
			c0.618,4.981,3.469,10.918,9.011,11.714c1.442,0.207,2.923-0.076,3.95-1.178c1.019-1.094,1.405-2.677,1.749-4.088
			c0.693-2.84,0.921-5.848,2.18-8.52c0.293-0.622,0.614-1.224,1.04-1.766c0.237-0.302,0.795-1.108,1.268-0.936
			c0.377,0.138,0.565,0.94,0.637,1.278c0.115,0.541,0.102,1.131,0.019,1.676c-0.363,2.411-1.487,4.653-1.796,7.075
			c-0.339,2.658,0.591,5.243,3.072,6.53c2.693,1.397,5.834,0.668,8.256-0.928C262.609,238.109,265.479,232.224,265.856,226.485z"/>
		<path style="fill:#2192D0;" d="M243.912,319.763c-0.982,0.881-1.913,2.091-2.595,2.533c-2.423,1.571-5.842,2.076-8.136-0.007
			c-1.059-0.962-2.04-2.58-3.535-2.877c-3.27-0.65-2.667,3.398-1.456,5.056c2.156,2.953,5.387,4.86,9.109,4.683
			c3.592-0.171,7.08-2.104,8.926-5.223c0.666-1.126,1.803-2.881,1.017-4.174C246.27,318.157,245.056,318.737,243.912,319.763z"/>
		<path style="fill:#323C64;" d="M287.601,303.847c0.982-0.881,1.913-2.091,2.595-2.533c2.423-1.57,5.842-2.076,8.136,0.007
			c1.059,0.962,2.04,2.581,3.535,2.877c3.27,0.65,2.667-3.398,1.456-5.056c-2.156-2.953-5.387-4.86-9.109-4.683
			c-3.592,0.171-7.08,2.104-8.926,5.223c-0.666,1.126-1.803,2.881-1.017,4.174C285.244,305.453,286.458,304.873,287.601,303.847z"/>
		<path style="fill:#323C64;" d="M175.541,306.711c0.792-0.711,1.543-1.687,2.093-2.043c1.954-1.267,4.712-1.674,6.562,0.005
			c0.854,0.776,1.646,2.081,2.851,2.321c2.637,0.524,2.151-2.74,1.174-4.078c-1.739-2.382-4.345-3.92-7.346-3.777
			c-2.897,0.138-5.711,1.697-7.2,4.212c-0.537,0.908-1.454,2.323-0.82,3.366C173.64,308.006,174.619,307.539,175.541,306.711z"/>
	</g>
</g>
</svg>
