<?xml version="1.0" encoding="utf-8"?>
<!-- Generator: Adobe Illustrator 27.5.0, SVG Export Plug-In . SVG Version: 6.00 Build 0)  -->
<svg version="1.1" xmlns="http://www.w3.org/2000/svg" xmlns:xlink="http://www.w3.org/1999/xlink" x="0px" y="0px"
	 viewBox="0 0 500 500" style="enable-background:new 0 0 500 500;" xml:space="preserve">
<!-- <g id="BACKGROUND">
	<g id="background">
		<rect style="fill:#FFFFFF;" width="500" height="500"/>
	</g>
</g> -->
<g id="OBJECTS">
	<circle style="fill:#FFEFDE;" cx="250" cy="250" r="147.975"/>
	<circle style="fill:none;stroke:#B0D932;stroke-width:7;stroke-miterlimit:10;" cx="250" cy="250" r="210"/>
	<g>
		<g>
			<g>
				<path style="fill:#9FC42D;" d="M304.293,348.944c6.524,6.179,10.909-17.097,14.412-18.508c1.522-0.613,2.858,0.094,4.582,0.615
					c4.591,1.388,12.768,4.616,17.181,1.655c3.257-2.185,5.059-8.491,2.426-11.552c-1.092-1.27-3.107-1.459-4.133-2.704
					c-2.148-2.605-0.993-7.138-3.072-10.022c-3.029-4.203-7.162-0.387-10.52-2.836c-3.908-2.85-2.604-10.661-9.847-9.764
					c-1.511,0.187-3.394,2.478-4.583,2.388c-2.89-0.219-3.572-5.261-5.618-6.753c-1.802-1.314-4.916-2.194-7.057-1.434
					c-1.712,0.608-2.525,2.917-4.008,3.421c-2.095,0.712-4.05-1.693-6.576-0.52c-3.193,1.484-3.527,5.908-3.335,8.951
					c0.143,2.264,0.783,5.631,2.48,7.361c1.613,1.643,3.934,1.767,5.369,3.692c5.092,6.828,0.917,18.388,3.786,26.192
					C297.34,343.366,301.469,347.31,304.293,348.944z"/>
				<path style="opacity:0.26;fill:#669933;" d="M307.334,340.649c2.972,2.535,9.172-14.949,13.317-15.859
					c3.724-0.817,21.309,9.738,18.371-1.938c-1.471-5.848-7.39-3.048-11.498-3.064c-4.235-0.016-5.98-0.049-9.264,3.268
					C313.039,328.331,311.753,334.633,307.334,340.649z"/>
				<path style="opacity:0.26;fill:#669933;" d="M306.648,334.334c0.989-6.332,9.382-14.087,15.507-16.951
					c1.613-0.754,7.453-1.338,7.802-3.855c0.632-4.549-7.342,0.995-8.835,1.412c-1.694-1.382-0.922-13.124-5.262-8.663
					c-1.734,1.782,0.995,5.299,0.194,7.34c-1.003,2.553-2.893,1.863-4.858,3.219c-2.757,1.902-3.449,5.481-4.675,8.402
					c-1.293,3.08-3.632,5.91-4.459,9.158c-0.379,1.489-0.952,5.067,1.174,5.641C305.267,340.586,307.66,331.237,306.648,334.334z"/>
				<path style="opacity:0.26;fill:#669933;" d="M302.613,327.182c-0.789-3.761,3.358-8.598,5.561-11.55
					c1.647-2.207,5.612-6.001,5.194-9c-0.221-1.589-2.836-4.836-4.46-5.304c-3.293-0.949-2.453,2.809-5.211,3.45
					c-1.599-1.475-1.426-9.629-5.37-6.003c-3.285,3.02,2.259,6.678,3.308,8.845c1.044,2.155,0.442,1.826-0.798,4
					c-1.752,3.072-2.26,4.303-2.093,8.011c0.162,3.598-0.661,8.62,1.536,11.771C301.699,330.151,301.775,327.901,302.613,327.182z"
					/>
				<path style="opacity:0.26;fill:#669933;" d="M295.684,310.901c0.644-2.142-1.752-15.643-6.232-12.905
					c-3.721,2.275,3.016,14.322,5.609,15.326C295.963,312.047,296.07,310.537,295.684,310.901z"/>
				<path style="opacity:0.26;fill:#669933;" d="M323.842,327.633c3.141,0.72,9.758,1.876,12.462,0.051
					c1.891-1.277,2.754-3.435,1.199-5.531c-2.31-3.114-5.139,0.897-8.58,0.999c-2.285,0.067-16.617-2.364-15.031,3.968
					C314.455,329.364,323.519,328.443,323.842,327.633z"/>
				<path style="opacity:0.26;fill:#669933;" d="M308.095,341.486c0.928-2.558-0.592-6.161-0.718-8.799
					c-0.16-3.332,0.151-7.144,1.769-10.174c1.659-3.106,4.739-3.882,7.316-6.088c1.728-1.479,5.379-6.182,2.259-8.351
					c-2.709-1.883-4.707,2.807-7.012,3.181c-2.583,0.419-2.179-1.336-4.566-2.33c-2.6,1.963-3.782,7.103-5.09,10.073
					c-1.74,3.95-1.419,5.934-0.039,9.979C302.823,331.348,303.331,343.113,308.095,341.486z"/>
				<path style="opacity:0.26;fill:#669933;" d="M298.958,317.215c-1.755-5.731,4.574-9.038,5.423-13.994
					c0.174-1.015,0.147-3.846-1.094-4.323c-1.479-0.568-3.239,2.883-4.569,3.255c-1.715-3.246-3.122-9.757-5.909-2.977
					c-1.852,4.505,0.907,7.067,2.423,11.035c1.596,4.179,0.981,8.466,1.639,12.77c0.116,0.76,0,4.104,1.776,3.427
					C300.245,325.801,298.498,317.41,298.958,317.215z"/>
			</g>
			<g>
				<path style="fill:#9FC42D;" d="M304.061,351.995c2.24,8.702,18.329-8.68,22.047-8.012c1.615,0.29,2.371,1.599,3.554,2.957
					c3.151,3.616,8.359,10.698,13.672,10.537c3.92-0.119,8.799-4.502,8.197-8.494c-0.25-1.656-1.855-2.887-2.063-4.488
					c-0.434-3.349,2.954-6.573,2.727-10.121c-0.331-5.17-5.86-4.136-7.402-7.995c-1.794-4.491,3.463-10.414-3.149-13.505
					c-1.38-0.645-4.192,0.294-5.151-0.414c-2.331-1.722-0.228-6.354-1.168-8.707c-0.828-2.071-2.996-4.472-5.214-4.967
					c-1.773-0.396-3.689,1.128-5.213,0.767c-2.153-0.511-2.53-3.588-5.294-3.937c-3.493-0.441-6.128,3.128-7.583,5.808
					c-1.082,1.993-2.331,5.186-1.813,7.553c0.492,2.249,2.392,3.588,2.584,5.982c0.682,8.49-9,16.061-10.72,24.197
					C301.139,343.575,302.538,349.111,304.061,351.995z"/>
				<path style="opacity:0.26;fill:#669933;" d="M311.047,346.587c1.169,3.727,15.716-7.784,19.711-6.35
					c3.588,1.288,12.869,19.578,16.589,8.127c1.863-5.736-4.638-6.511-8.109-8.708c-3.578-2.265-5.039-3.221-9.584-2.158
					C322.428,339.188,317.989,343.842,311.047,346.587z"/>
				<path style="opacity:0.26;fill:#669933;" d="M313.824,340.874c4.204-4.837,15.436-6.943,22.147-6.112
					c1.767,0.219,7.023,2.829,8.658,0.884c2.954-3.517-6.747-3.061-8.234-3.502c-0.701-2.071,6.197-11.605,0.149-10.134
					c-2.416,0.587-1.974,5.017-3.739,6.32c-2.206,1.629-3.441,0.04-5.826,0.143c-3.346,0.145-5.836,2.808-8.427,4.63
					c-2.732,1.921-6.218,3.075-8.646,5.385c-1.113,1.06-3.5,3.785-2.005,5.402C309.33,345.435,316.328,338.789,313.824,340.874z"/>
				<path style="opacity:0.26;fill:#669933;" d="M314.209,332.672c1.331-3.605,7.415-5.496,10.851-6.826
					c2.568-0.994,7.944-2.099,9.184-4.861c0.657-1.463,0.17-5.604-0.957-6.864c-2.285-2.555-3.571,1.075-6.248,0.151
					c-0.57-2.1,3.912-8.914-1.356-7.939c-4.388,0.811-1.638,6.857-1.901,9.25c-0.262,2.38-0.596,1.781-2.803,2.964
					c-3.117,1.67-4.202,2.443-6.032,5.672c-1.775,3.134-5.143,6.949-4.958,10.786C311.857,334.701,313.117,332.835,314.209,332.672z
					"/>
				<path style="opacity:0.26;fill:#669933;" d="M316.998,315.199c1.684-1.472,6.833-14.181,1.583-14.243
					c-4.362-0.052-5.061,13.734-3.398,15.962C316.624,316.317,317.518,315.096,316.998,315.199z"/>
				<path style="opacity:0.26;fill:#669933;" d="M331.949,344.341c2.277,2.28,7.267,6.777,10.528,6.669
					c2.281-0.076,4.159-1.445,3.957-4.047c-0.301-3.865-4.829-1.972-7.798-3.716c-1.971-1.158-12.817-10.837-14.84-4.631
					C323.078,340.816,331.245,344.855,331.949,344.341z"/>
				<path style="opacity:0.26;fill:#669933;" d="M311.247,347.701c2.146-1.673,2.775-5.533,4.07-7.834
					c1.636-2.907,3.927-5.97,6.908-7.676c3.057-1.749,6.077-0.768,9.434-1.266c2.25-0.334,7.843-2.376,6.353-5.871
					c-1.293-3.035-5.479-0.125-7.63-1.034c-2.41-1.018-1.136-2.29-2.629-4.401c-3.245,0.28-6.98,4.005-9.667,5.825
					c-3.574,2.421-4.357,4.272-5.339,8.431C312.172,336.311,306.347,346.546,311.247,347.701z"/>
				<path style="opacity:0.26;fill:#669933;" d="M316.413,322.287c1.561-5.787,8.679-5.223,12.034-8.968
					c0.687-0.767,2.169-3.179,1.372-4.243c-0.95-1.268-4.276,0.719-5.6,0.328c0.274-3.661,2.544-9.924-3.422-5.663
					c-3.964,2.831-2.99,6.468-3.816,10.634c-0.87,4.388-3.671,7.692-5.401,11.687c-0.306,0.706-2.182,3.476-0.318,3.847
					C312.938,330.243,315.92,322.208,316.413,322.287z"/>
			</g>
		</g>
		<g>
			<g>
				<g>
					<g>
						<path style="fill:#FFC98C;" d="M139.735,196.69c4.197-2.412,8.694-4.405,13.2-6.16c9.036-3.519,18.542-5.727,28.191-6.668
							c7.059-0.689,21.078-1.868,22.89,7.781c0.369,1.966-1.879,2.907-3.098,1.376c-3.012-3.783-7.774-4.522-12.372-4.4
							c-5.03,0.133-10.091,0.819-15.02,1.805c-10.237,2.046-20.241,5.52-29.418,10.513c-2.016,1.097-4.694,2.217-3.405,4.97
							c1.216,2.598,4.26,2.959,6.787,2.866c6.011-0.221,12.326-2.253,18.21-3.443c5.115-1.034,10.339-2.557,15.552-2.961
							c4.324-0.335,8.38,0.861,9.777,5.346c0.72,2.312-2.43,4.423-4.152,2.523c-2.932-3.235-9.77-0.716-13.312-0.035
							c-5.459,1.05-10.919,2.095-16.38,3.134c-4.777,0.909-9.958,2.311-14.782,0.925c-3.906-1.122-7.155-4.34-7.846-8.411
							C133.852,201.698,136.306,198.66,139.735,196.69z"/>
						<path style="fill:#FFC98C;" d="M313.26,195.567c8.833-6.673,20.854,0.276,27.312,7.069
							c7.282,7.66,12.009,17.622,13.782,28.008c1.631,9.552,1.935,21.818-2.933,30.562c-2.331,4.187-6.52,7.352-11.52,6.519
							c-5.41-0.902-8.971-5.815-11.091-10.484c-2.324-5.117-3.226-10.626-4.269-16.107c-0.533-2.8-1.104-5.607-1.979-8.323
							c-0.913-2.835-0.675-5.736-1.742-8.536c-0.52-1.365,1.297-2.179,2.249-1.367c1.379,1.175,2.821,2.38,4.065,3.696
							c1.49,1.575,2.111,3.376,2.705,5.431c1.135,3.922,1.752,7.966,2.555,11.963c0.784,3.904,1.672,7.936,3.589,11.462
							c1.625,2.989,5.219,7.389,8.269,3.437c2.225-2.883,2.777-6.969,3.251-10.464c0.575-4.242,0.565-8.587,0.132-12.842
							c-0.865-8.487-3.787-16.8-8.717-23.78c-5.44-7.704-14.106-14.18-23.974-12.451C312.59,199.773,311.305,197.044,313.26,195.567
							z"/>
						<path style="fill:#CC9966;" d="M306.823,261.601c-7.156,13.416-14.364,31.684-24.399,43.069
							c-14.703,16.682-48.531-1.856-60.626-14.853c-13.185-14.167-28.574-33.145-37.539-50.364
							c-14.763-28.356,4.081-45.138,27.104-59.123c27.952-16.979,61.18-0.9,89.41,9.035c8.183,2.484,20.298,6.906,23.689,14.887
							c2.962,6.972-0.49,14.164-2.892,21.04C317.233,237.709,313.036,249.952,306.823,261.601z"/>
					</g>
					<path style="opacity:0.23;fill:#FFCC99;" d="M197.564,199.895c3.962-8.466,12.432-15.372,20.985-18.721
						c8.722-3.415,18.569-5.048,27.922-4.61c11.3,0.529,22.178,3.357,32.864,6.904c5.185,1.721,10.363,3.486,15.443,5.5
						c5.077,2.013,10.604,4.407,14.497,8.353c6.836,6.93-1.524,18.942-10.327,13.921c-3.89-2.218-7.695-4.725-11.72-6.293
						c-3.93-1.532-8.479-3.005-12.682-4.392c-8.876-2.929-18.162-5.779-27.546-6.211c-8.289-0.381-14.773,0.468-22.548,3.165
						c-3.704,1.284-7.458,2.428-11.184,3.653c-3.841,1.263-7.67,2.785-11.498,3.974C198.573,206.13,196.273,202.654,197.564,199.895
						z"/>
				</g>
				<g>
					<g>
						<path style="fill:#9FC42D;" d="M280.185,212.897c11.467,0.82-3.08-25.764-0.759-30.002c1.008-1.841,2.903-2.226,5.032-3.109
							c5.668-2.353,16.376-5.793,18.34-12.303c1.449-4.804-1.885-12.505-6.973-13.397c-2.111-0.37-4.257,1.077-6.283,0.678
							c-4.239-0.834-6.773-6.255-11.17-7.422c-6.406-1.7-7.399,5.428-12.708,5.73c-6.178,0.351-11.227-8.434-17.664-1.669
							c-1.343,1.411-1.347,5.205-2.596,6.081c-3.036,2.128-7.802-2.306-11.037-2.122c-2.849,0.163-6.643,1.818-8.145,4.307
							c-1.201,1.99-0.131,4.934-1.189,6.636c-1.495,2.404-5.381,1.611-6.927,4.822c-1.954,4.058,1.304,8.706,3.963,11.56
							c1.978,2.123,5.344,4.936,8.426,5.269c2.929,0.317,5.325-1.444,8.307-0.704c10.577,2.624,15.827,17.446,24.998,22.839
							C268.782,213.02,276.066,213.573,280.185,212.897z"/>
						<path style="opacity:0.26;fill:#669933;" d="M276.464,202.224c4.997,0.096-3.056-22.23,0.307-26.494
							c3.021-3.83,28.981-7.655,16.602-16.822c-6.201-4.592-9.784,2.98-13.861,6.298c-4.202,3.42-5.956,4.803-6.513,10.75
							C272.113,185.41,275.955,192.687,276.464,202.224z"/>
						<path style="opacity:0.26;fill:#669933;" d="M270.661,196.533c-4.16-7.067-2.149-21.549,1.587-29.352
							c0.984-2.055,6.287-7.371,4.591-10.144c-3.066-5.013-6.456,6.941-7.595,8.565c-2.797,0.008-11.56-12.235-12.234-4.3
							c-0.269,3.169,5.284,4.435,6.147,7.104c1.079,3.339-1.35,4.19-2.194,7.126c-1.184,4.118,1.035,8.221,2.192,12.105
							c1.22,4.096,1.203,8.793,3.019,12.677c0.833,1.781,3.17,5.785,5.739,4.628C274.368,203.838,269.149,192.649,270.661,196.533z"
							/>
						<path style="opacity:0.26;fill:#669933;" d="M260.867,192.732c-3.832-3.081-3.654-11.23-3.87-15.938
							c-0.162-3.52,0.682-10.49-2.164-13.117c-1.508-1.392-6.729-2.483-8.716-1.629c-4.028,1.733-0.148,4.769-2.356,7.641
							c-2.779-0.162-9.224-8.368-10.183-1.581c-0.799,5.653,7.653,4.774,10.449,6.066c2.781,1.285,1.919,1.448,2.456,4.605
							c0.759,4.46,1.256,6.091,4.43,9.623c3.08,3.427,6.34,9.063,11.07,10.398C262.372,196.411,260.621,194.123,260.867,192.732z"/>
						<path style="opacity:0.26;fill:#669933;" d="M240.803,182.247c-1.101-2.641-14.426-14.053-16.635-7.709
							c-1.836,5.27,14.604,11.721,17.984,10.61C242.008,183.155,240.89,181.575,240.803,182.247z"/>
						<path style="opacity:0.26;fill:#669933;" d="M282.234,175.954c3.691-1.836,11.176-6.062,12.37-10.062
							c0.835-2.797-0.063-5.633-3.302-6.445c-4.812-1.206-4.356,5.057-7.677,7.949c-2.206,1.921-18.357,11.144-11.65,16.122
							C274.352,185.283,282.571,177.017,282.234,175.954z"/>
						<path style="opacity:0.26;fill:#669933;" d="M277.896,202.434c-1.158-3.284-5.584-5.615-7.85-8.122
							c-2.862-3.167-5.647-7.19-6.504-11.5c-0.879-4.419,1.538-7.685,2.298-11.959c0.509-2.865,0.305-10.48-4.541-10.094
							c-4.208,0.335-2.378,6.596-4.355,8.836c-2.215,2.51-3.24,0.447-6.408,1.4c-0.98,4.051,2.022,10.095,3.138,14.095
							c1.484,5.319,3.412,7.022,8.058,9.904C264.455,196.683,274.503,207.91,277.896,202.434z"/>
						<path style="opacity:0.26;fill:#669933;" d="M249.165,185.838c-6.386-4.245-2.808-12.652-5.989-18.244
							c-0.652-1.145-2.975-3.924-4.59-3.389c-1.924,0.637-0.865,5.48-1.879,6.928c-4.33-1.82-11.005-7.119-8.261,1.849
							c1.823,5.96,6.631,6.256,11.35,8.951c4.97,2.839,7.839,7.58,11.983,11.303c0.732,0.658,3.331,4.06,4.538,1.95
							C257.404,193.288,248.868,186.404,249.165,185.838z"/>
					</g>
					<g>
						<path style="fill:#9FC42D;" d="M282.432,216.104c9.277,6.791,11.09-23.459,15.309-25.814c1.833-1.023,3.643-0.341,5.915,0.042
							c6.051,1.021,16.95,3.801,22.074-0.669c3.782-3.298,5.052-11.593,1.217-15.054c-1.591-1.436-4.178-1.351-5.682-2.766
							c-3.147-2.961-2.41-8.899-5.514-12.225c-4.522-4.846-9.153,0.663-13.809-1.904c-5.419-2.988-5.024-13.112-14.072-10.805
							c-1.888,0.481-3.908,3.692-5.432,3.77c-3.703,0.188-5.381-6.102-8.22-7.665c-2.5-1.377-6.593-1.993-9.188-0.683
							c-2.075,1.047-2.734,4.11-4.535,4.988c-2.544,1.241-5.414-1.497-8.431,0.401c-3.813,2.398-3.525,8.067-2.79,11.898
							c0.547,2.85,1.902,7.021,4.335,8.943c2.312,1.826,5.278,1.609,7.41,3.821c7.563,7.846,4.128,23.191,9.028,32.634
							C272.709,210.145,278.585,214.486,282.432,216.104z"/>
						<path style="opacity:0.26;fill:#669933;" d="M284.956,205.086c4.181,2.738,9.232-20.452,14.347-22.275
							c4.595-1.638,28.616,8.925,23.005-5.421c-2.81-7.186-9.871-2.678-15.088-2.035c-5.377,0.662-7.598,0.901-11.232,5.641
							C290.211,188.532,289.595,196.738,284.956,205.086z"/>
						<path style="opacity:0.26;fill:#669933;" d="M283.066,197.181c0.234-8.197,9.638-19.393,16.95-24.015
							c1.926-1.217,9.244-2.9,9.282-6.15c0.069-5.876-9.158,2.446-10.986,3.216c-2.373-1.48-3.285-16.508-8.075-10.147
							c-1.913,2.541,2.117,6.565,1.429,9.285c-0.861,3.402-3.371,2.831-5.647,4.869c-3.192,2.858-3.495,7.513-4.58,11.417
							c-1.144,4.117-3.657,8.087-4.184,12.342c-0.241,1.951-0.391,6.585,2.4,6.971C282.322,205.339,283.852,193.087,283.066,197.181
							z"/>
						<path style="opacity:0.26;fill:#669933;" d="M276.793,188.755c-1.608-4.646,2.876-11.454,5.197-15.556
							c1.734-3.067,6.155-8.522,5.141-12.26c-0.537-1.981-4.379-5.681-6.516-6.014c-4.333-0.674-2.66,3.961-6.058,5.219
							c-2.268-1.615-3.362-11.992-7.783-6.753c-3.682,4.363,3.943,8.112,5.625,10.693c1.672,2.567,0.855,2.246-0.368,5.206
							c-1.729,4.181-2.175,5.826-1.365,10.505c0.786,4.54,0.551,11.047,3.847,14.692
							C276.112,192.67,275.845,189.802,276.793,188.755z"/>
						<path style="opacity:0.26;fill:#669933;" d="M265.375,169.206c0.472-2.822-4.746-19.572-9.99-15.374
							c-4.357,3.487,6.136,17.692,9.59,18.548C265.913,170.616,265.806,168.683,265.375,169.206z"/>
						<path style="opacity:0.26;fill:#669933;" d="M303.81,185.905c4.103,0.408,12.688,0.808,15.826-1.945
							c2.195-1.925,2.942-4.805,0.63-7.214c-3.434-3.58-6.378,1.967-10.729,2.65c-2.89,0.454-21.472-0.322-18.439,7.46
							C292.175,189.615,303.53,186.984,303.81,185.905z"/>
						<path style="opacity:0.26;fill:#669933;" d="M286.057,206.025c0.765-3.397-1.744-7.725-2.33-11.052
							c-0.74-4.204-0.96-9.092,0.606-13.198c1.605-4.21,5.389-5.691,8.305-8.907c1.955-2.156,5.831-8.713,1.521-10.963
							c-3.742-1.954-5.521,4.322-8.387,5.168c-3.211,0.948-2.982-1.344-6.171-2.221c-2.983,2.91-3.655,9.625-4.836,13.606
							c-1.571,5.294-0.844,7.761,1.559,12.673C277.731,194.008,280.272,208.859,286.057,206.025z"/>
						<path style="opacity:0.26;fill:#669933;" d="M270.547,176.693c-3.151-6.991,4.349-12.209,4.628-18.636
							c0.057-1.316-0.433-4.905-2.086-5.31c-1.968-0.483-3.646,4.181-5.274,4.868c-2.7-3.844-5.535-11.881-7.98-2.826
							c-1.625,6.017,2.29,8.824,4.854,13.616c2.7,5.047,2.609,10.588,4.139,15.944c0.27,0.946,0.662,5.209,2.807,4.064
							C273.564,187.383,269.995,177.015,270.547,176.693z"/>
					</g>
				</g>
				<g>
					<path style="fill:#FF9933;" d="M288.738,130.08c-3.238,0.662-6.541,2.864-9.093,5.747c-4.83,5.458-8.492,12.294-10.81,19.197
						c-6.804,20.269-14.33,41.015-18.932,61.875c-1.678,7.605-5.651,14.624-2.106,22.498c3.854,8.561,12.394,10.885,21.134,1.371
						c9.76-10.623,15.551-23.592,20.984-36.987c5.328-13.135,6.839-27.341,9.944-41.063c1.915-8.463,6.501-20.195,0.024-27.619
						C297.597,132.478,292.789,129.251,288.738,130.08z"/>
					<path style="opacity:0.31;fill:#FF9933;" d="M299.678,144.149c-0.608-0.967-1.791-1.433-2.891-1.238
						c-0.993,0.176-2.169,1.038-2.278,2.137c-0.097,0.977-0.216,1.93-0.137,2.914c0.07,0.88,0.173,1.748,0.188,2.632
						c0.013,0.77-0.014,1.538-0.066,2.306c-0.003,0.037-0.014,0.204-0.023,0.335c-0.012,0.124-0.036,0.384-0.042,0.431
						c-0.05,0.442-0.109,0.883-0.176,1.323c-0.515,3.39-1.398,6.813-2.421,10.085c-1.046,3.345-2.105,6.676-2.915,10.088
						c-0.822,3.461-1.436,6.964-2.096,10.458c-1.264,6.697-2.568,13.313-5.242,19.589c-2.546,5.975-5.976,11.62-9.615,16.983
						c-2.077,3.061-4.26,6.051-6.383,9.08c-1.042,1.487-2.126,2.942-3.171,4.426c-0.518,0.736-1.075,1.457-1.563,2.213
						c-0.432,0.671-0.825,1.291-1.661,1.479c-0.864,0.195-0.739,1.524,0.072,1.693c1.514,0.317,2.746-0.608,3.786-1.622
						c1.217-1.187,2.335-2.534,3.443-3.823c2.243-2.61,4.528-5.175,6.626-7.906c4.154-5.404,8.082-11.036,11.219-17.098
						c1.619-3.129,3.076-6.342,4.282-9.653c1.266-3.479,2.217-7.057,3.118-10.645c1.798-7.155,3.032-14.395,5.291-21.435
						c1.237-3.857,2.682-7.633,3.478-11.617C301.323,153.171,302.022,147.878,299.678,144.149z"/>
					<path style="opacity:0.19;fill:#FFFF99;" d="M295.057,134.447c-1.721-1.521-4.135-2.074-6.323-1.335
						c-1.675,0.565-3.279,1.547-4.703,2.587c-2.795,2.042-5.081,4.553-7.025,7.403c-3.722,5.459-5.728,11.845-7.717,18.085
						c-2.591,8.126-5.037,16.297-7.584,24.436c-2.587,8.268-5.245,16.514-7.84,24.78c-1.378,4.388-2.642,8.806-3.443,13.341
						c-0.833,4.717-0.703,9.37,0.274,14.046c0.264,1.262,2.101,0.779,2.125-0.38c0.08-3.878,0.886-7.688,1.609-11.482
						c0.74-3.881,1.873-7.666,3.03-11.439c2.413-7.873,5.013-15.693,7.531-23.533c2.547-7.933,5.202-15.83,7.767-23.757
						c1.035-3.197,2.009-6.429,3.2-9.573c0.194-0.513,0.104-0.254,0.06-0.148c0.071-0.171,0.143-0.342,0.215-0.513
						c0.145-0.341,0.291-0.682,0.44-1.021c0.335-0.763,0.686-1.519,1.043-2.272c0.65-1.373,1.292-2.744,2.029-4.075
						c0.417-0.755,0.857-1.497,1.32-2.225c0.218-0.342,0.444-0.678,0.671-1.014c0.016-0.024,0.03-0.044,0.04-0.06
						c0.156-0.215,0.314-0.429,0.475-0.641c0.992-1.304,2.063-2.546,3.26-3.667c0.129-0.121,0.259-0.24,0.391-0.358
						c0.024-0.021,0.385-0.324,0.393-0.335c0.259-0.207,0.52-0.411,0.787-0.608c0.686-0.505,1.401-0.971,2.14-1.393
						c0.171-0.098,0.344-0.191,0.517-0.285c0.065-0.034,0.13-0.067,0.196-0.101c0.02-0.008,0.065-0.027,0.138-0.059
						c0.445-0.194,0.903-0.345,1.351-0.53c1.037-0.428,1.433-0.907,2.577-0.986C295.403,137.242,296.167,135.429,295.057,134.447z"
						/>
					<path style="opacity:0.64;fill:#FF9933;" d="M266.513,178.806c-2.117-2.389,10.491-21.173,13.165-24.272
						c2.662-3.085,15.366-16.823,20.633-13.683c2.422,1.444-0.266,9.626-0.924,11.486c-2.105,5.943-6.751,10.919-11.712,14.667
						c-4.107,3.103-8.861,5.252-13.502,7.388C271.368,175.682,267.778,176.321,266.513,178.806z"/>
					<path style="opacity:0.64;fill:#FF9933;" d="M257.372,210.771c-0.295,0.181-0.606,0.318-0.934,0.412
						c4.494-7.979,7.816-15.584,14.293-22.282c3.547-3.668,7.974-5.802,12.656-7.616c3.326-1.288,6.892-3.71,10.207-4.487
						c0.435,10.373-7.222,19.476-15.731,24.44C271.488,204.958,263.08,205.443,257.372,210.771z"/>
					<path style="opacity:0.64;fill:#FF9933;" d="M255.305,233.89c-0.214,0.131-0.441,0.231-0.679,0.3
						c3.265-5.797,5.679-11.322,10.384-16.188c2.577-2.665,5.793-4.215,9.195-5.533c2.416-0.936,5.007-2.695,7.416-3.26
						c0.316,7.536-5.247,14.149-11.429,17.756C265.56,229.667,259.452,230.019,255.305,233.89z"/>
				</g>
				<g>
					<path style="fill:#FBB03B;" d="M213.196,160.777c3.049,1.997,18.2-11.994,24.728-11.808
						c12.2,0.349,22.843,12.334,25.998,23.253c5.853,20.258-13.452,32.743-27.907,39.685c-6.096,2.928-17.871,4.469-24.017,4.102
						c-9.245-0.553-12.658-1.701-18.596-10.041c-5.995-8.421-9.608-25.225-5.596-34.903
						C191.112,163.088,204.44,151.974,213.196,160.777z"/>
					<path style="opacity:0.18;fill:#FF6600;" d="M224.823,161.048c-1.394-0.782-0.404-2.76,0.963-2.72
						c7.451,0.22,15.123,6.481,19.46,12.156c5.34,6.985,7.511,15.099,6.473,23.76c-0.199,1.657-2.491,1.394-2.532-0.213
						c-0.205-8.036-2.651-16.271-7.933-22.427C236.565,166.137,230.807,164.406,224.823,161.048z"/>
					<path style="opacity:0.18;fill:#FF6600;" d="M228.073,205.687c-0.585-7.201-2.487-14.191-4.967-20.958
						c-2.056-5.609-5.86-11.551-6.597-17.461c-0.162-1.302,1.458-2.184,2.372-1.131c4.11,4.732,6.252,12.466,8.119,18.401
						c2.178,6.926,3.298,13.788,3.227,21.049C230.213,206.802,228.173,206.921,228.073,205.687z"/>
					<path style="opacity:0.18;fill:#FF6600;" d="M200.435,185.137c0.341-7.488,2.76-14.752,8.027-20.174
						c0.717-0.738,1.835,0.351,1.31,1.165c-4.186,6.484-6.277,13.645-5.669,21.386c0.64,8.15,4.769,14.952,6.412,22.711
						c0.327,1.543-1.793,2.539-2.788,1.33C202.196,204.835,200.048,193.641,200.435,185.137z"/>
					<path style="opacity:0.15;fill:#FFFF99;" d="M227.291,153.358c10.964-3.627,21.831,3.619,28.679,11.814
						c6.03,7.215,12.051,22.538,3.303,30.087c-1.308,1.129-3.171,0.023-3.132-1.593c0.094-3.876,1.597-7.505,1.503-11.427
						c-0.12-5.037-1.824-10.293-4.747-14.404c-5.243-7.375-15.363-14.238-24.725-11.731
						C226.609,156.522,225.728,153.875,227.291,153.358z"/>
					<path style="opacity:0.15;fill:#FFFF99;" d="M235.03,205.621c0.96-4.044,2.793-6.587,2.09-11.022
						c-0.587-3.702-1.939-7.389-3.292-10.865c-2.909-7.475-7.359-14.181-14.185-18.618c-2.82-1.833,0.041-5.764,2.877-4.234
						c10.074,5.435,18.019,14.358,21.827,25.251c2.424,6.934,5.524,24.121-6.598,23.702
						C235.527,209.757,234.588,207.486,235.03,205.621z"/>
					<path style="opacity:0.15;fill:#FFFF99;" d="M214.563,204.354c0.451-4.441,0.736-8.796,0.516-13.268
						c-0.409-8.338-2.86-16.281-3.363-24.591c-0.134-2.212,3.025-2.912,3.481-0.619c1.807,9.09,6.968,16.898,7.887,26.307
						c0.58,5.941,1.82,17.282-4.44,20.467c-0.881,0.448-2.174,0.21-2.796-0.584C213.81,209.466,214.235,207.579,214.563,204.354z"/>
					<path style="opacity:0.15;fill:#FFFF99;" d="M189.239,184.695c0.746-9.605,4.288-18.188,13.401-22.127
						c1.84-0.796,2.962,1.744,1.316,2.759c-8.08,4.976-10.322,14.471-9.719,23.558c0.255,3.847,1.104,7.782,2.532,11.363
						c1.164,2.918,2.902,5.499,3.282,8.661c0.165,1.377-1.205,2.161-2.364,1.532C189.935,206.225,188.633,192.492,189.239,184.695z"
						/>
					<path style="fill:#669900;" d="M208.976,162.527c4.184,5.89,15.149-0.902,15.088-6.669c-4.877,1.969-8.033-2.596-8.389-7.199
						c-0.502-6.486,3.268-8.285,8.704-8.353c-1.25-7.517-10.009-0.964-11.919,2.478c-2.053,3.699-0.906,8.578-1.031,12.674
						C211.336,158.521,210.537,160.214,208.976,162.527z"/>
					<path style="opacity:0.13;fill:#669900;" d="M213.485,162.502c1.147-2.183-0.028-5.868-0.49-8.139
						c-0.466-2.296-0.961-4.624-0.844-6.981c0.225-4.508,2.855-8.065,7.431-8.766c0.342-0.053,0.457,0.39,0.178,0.556
						c-5.04,3.006-5.778,7.893-4.776,13.188c0.636,3.362,1.978,7.398,0.801,10.766c-0.166,0.477-0.693,0.839-1.205,0.778
						c-0.151-0.018-0.302-0.036-0.453-0.054C213.434,163.768,213.184,163.075,213.485,162.502z"/>
				</g>
				<g>
					<path style="fill:#99CC33;" d="M186.176,158.842c5.208-1.326,11.091,9.539,13.062,13.759
						c5.093,10.906,5.51,21.674,13.735,31.386c6.456,7.624,19.653,14.761,22.438,24.574c2.904,10.233-3.868,17.39-12.872,18.391
						c-24.336,2.704-43.683-38.62-49.653-57.951c-2.634-8.528-4.64-18.867,0.56-25.583
						C176.521,159.444,181.195,156.189,186.176,158.842z"/>
					<path style="opacity:0.23;fill:#99CC33;" d="M181.499,168.773c0.259,3.314,1.452,6.642,2.094,9.956
						c0.678,3.504,1.506,6.957,2.658,10.402c2.422,7.242,5.81,14.406,9.985,20.968c4.146,6.517,9.157,12.696,14.771,17.993
						c2.47,2.33,5.132,4.744,8.115,6.246c3.07,1.546,5.47,1.506,7.435,4.845c0.661,1.123,0.455,2.624-0.128,3.531
						c-4.275,6.657-15.955-3.164-20.311-7.257c-6.868-6.452-12.835-13.699-17.834-21.697c-4.987-7.98-8.826-16.437-11.458-25.265
						c-2.346-7.87-4.005-16.146,2.283-21.194C180.092,166.512,181.405,167.565,181.499,168.773z"/>
					<path style="opacity:0.22;fill:#FFFFFF;" d="M192.038,164.71c5.769,3.785,8.064,10.191,9.269,16.484
						c1.556,8.129,3.327,15.437,8.976,22.264c7.255,8.769,26.911,17.499,23.413,30.997c-0.417,1.607-2.604,0.926-3.033-0.563
						c-1.911-6.64-5.566-11.549-10.911-16.007c-5.208-4.344-10.603-8.271-14.508-14.007c-3.497-5.136-5.701-10.757-6.728-16.637
						c-1.212-6.939-1.655-15.088-8.435-19.584C187.938,166.234,189.914,163.316,192.038,164.71z"/>
					<path style="fill:#669900;" d="M186.311,155.116c2.099,1.516,4.085,3.241,6.247,4.78c0.738,0.525,0.605,1.646-0.22,1.701
						c-1.248,0.083-2.464,0.371-3.643,0.764c-0.5,0.167-1.104-0.189-1.258-0.755c-1.076-3.937-4.564-2.429-6.884-0.317
						c-0.48,0.437-1.346,0.122-1.525-0.586c-0.27-1.07-1.294-1.319-2.382-1.627c-0.877-0.248-1.022-1.516-0.194-1.713
						c1.532-0.364,3.157-0.896,4.069-1.739c1.466-1.355,1.112-4.797,2.504-5.811c3.169-2.308,3.401,2.272,2.933,4.863
						L186.311,155.116z"/>
					<path style="opacity:0.25;fill:#669900;" d="M183.6,151.254c0.234-0.075,0.336-0.102,0.576,0.03
						c0.327,0.181,0.55,0.491,0.545,0.86c-0.039,2.82-1.508,6.542-4.521,6.724c-0.257,0.016-0.493-0.321-0.338-0.535
						c0.665-0.918,1.545-1.628,2.173-2.574c0.757-1.141,1.087-2.45,1.152-3.899C183.199,151.592,183.353,151.333,183.6,151.254z"/>
				</g>
				<g>
					<path style="fill:#663366;" d="M330.939,186.647c-9.129,21.449-36.192,66.521-63.763,60.543
						c-10.2-2.212-17.115-11.216-12.576-22.6c4.352-10.916,20.322-17.535,28.623-25.509c10.575-10.158,12.327-22.449,19.455-34.346
						c2.758-4.604,10.787-16.36,16.598-14.224c6.022-2.452,10.994,1.832,14.049,6.75
						C338.489,165.573,334.966,177.184,330.939,186.647z"/>
					<path style="opacity:0.23;fill:#330033;" d="M326.481,185.601c-4.061,9.807-9.461,19.044-16.121,27.601
						c-6.675,8.576-14.371,16.175-23.006,22.757c-5.476,4.174-20.024,14.049-24.137,5.914c-0.561-1.109-0.62-2.853,0.271-4.063
						c2.647-3.595,5.393-3.265,9.094-4.673c3.596-1.368,6.933-3.82,10.039-6.198c7.06-5.407,13.534-11.895,19.057-18.874
						c5.561-7.027,10.291-14.836,13.924-22.85c1.728-3.812,3.085-7.672,4.277-11.607c1.127-3.721,2.889-7.394,3.578-11.162
						c0.251-1.373,1.88-2.425,2.913-1.405C332.982,167.571,330.101,176.859,326.481,185.601z"/>
					<path style="opacity:0.22;fill:#FFFFFF;" d="M311.861,156.541c-7.06,3.656-10.448,10.726-12.573,17.796
						c-2.745,9.132-5.639,17.298-12.921,24.454c-9.353,9.192-32.913,16.872-30.501,32.755c0.287,1.891,2.875,1.369,3.543-0.286
						c2.976-7.384,7.745-12.578,14.398-17.055c6.483-4.363,13.13-8.225,18.284-14.337c4.615-5.473,7.807-11.654,9.679-18.271
						c2.209-7.809,3.681-17.096,11.984-21.448C316.38,158.773,314.461,155.195,311.861,156.541z"/>
					<path style="fill:#669900;" d="M319.56,146.223c-2.585,1.489-5.065,3.231-7.725,4.74c-0.908,0.515-0.888,1.815,0.051,1.975
						c1.42,0.242,2.78,0.717,4.085,1.306c0.554,0.25,1.287-0.087,1.532-0.716c1.699-4.384,5.518-2.244,7.927,0.451
						c0.498,0.557,1.528,0.299,1.817-0.492c0.436-1.194,1.639-1.359,2.922-1.582c1.034-0.18,1.35-1.617,0.425-1.94
						c-1.712-0.598-3.512-1.4-4.457-2.474c-1.519-1.727-0.707-5.63-2.183-6.956c-3.359-3.02-4.167,2.202-3.936,5.226L319.56,146.223
						z"/>
					<path style="opacity:0.25;fill:#669900;" d="M323.124,142.118c-0.259-0.114-0.373-0.157-0.664-0.033
						c-0.396,0.168-0.688,0.497-0.726,0.921c-0.289,3.236,0.954,7.676,4.386,8.241c0.293,0.048,0.603-0.309,0.451-0.573
						c-0.653-1.131-1.579-2.049-2.186-3.207c-0.733-1.397-0.956-2.936-0.859-4.605C323.544,142.553,323.398,142.239,323.124,142.118
						z"/>
				</g>
				<g>
					<path style="fill:#FF3333;" d="M254.669,191.893c6.593-7.856,18.526-4.013,16.387,10.041
						c-1.893,12.434-14.701,17.824-22.884,12.583C233.968,205.42,242.658,174.951,254.669,191.893z"/>
					<path style="fill:#669933;" d="M256.038,194.092c-2.561-2.306-8.712,1.362-10.27,4.349c0.34-3.925,2.601-8.723,5.756-8.148
						c0.938-2.58-0.356-5.087-1.436-7.144c2.848,0.832,5.388,2.152,5.91,6.261c2.021-2.2,4.513-4.509,7.321-3.396
						c-1.72,2.114-4.455,3.24-5.624,6.217c2.567,0.477,4.775,3.887,3.563,7.108C260.122,196.567,256.038,194.092,256.038,194.092z"
						/>
					<path style="opacity:0.29;fill:#FF0000;" d="M243.847,201.236c0.276-0.497,0.917-0.718,1.36-0.542
						c2.297,0.913,4.733,2.522,7.081,3.026c3.354,0.719,6.264-1.498,9.461-2.186c2.864-0.616,5.02,5.334,2.806,7.803
						c-3.98,4.438-10.303,5.764-15.38,3.636C245.58,211.468,240.961,206.431,243.847,201.236z"/>
					<path style="opacity:0.05;fill:#FF9999;" d="M261.268,191.491c-0.131-1.329,0.75-1.955,1.602-2.154
						c1.347-0.315,2.512,0.317,3.624,1.337c2.161,1.981,4.016,6.038,2.312,9.2c-0.59,1.093-1.851,0.628-2.366-0.302
						c-0.754-1.36-0.879-3.03-1.772-4.302c-0.408-0.58-0.893-0.952-1.379-1.393c-0.261-0.237-0.525-0.489-0.765-0.764
						c-0.081-0.109-0.162-0.219-0.243-0.328c-0.142-0.123-0.207-0.202-0.227-0.258C261.646,192.488,261.326,192.075,261.268,191.491
						z"/>
					<path style="opacity:0.26;fill:#FF9999;" d="M262.227,189.514c1.771-0.173,3.53,0.664,4.885,2.224
						c1.436,1.653,2.169,3.595,1.773,6.059c-0.155,0.964-1.159,1.174-1.571,0.341c-0.306-0.619-0.713-1.11-1.031-1.718
						c-0.322-0.615-0.583-1.204-1.006-1.715c-0.803-0.971-1.82-1.618-2.902-1.707C260.702,192.861,260.514,189.682,262.227,189.514z
						"/>
					<path style="opacity:0.26;fill:#FF9999;" d="M243.337,193.876c0.116-0.743,0.382-1.366,0.705-1.979
						c0.593-1.123,1.333-2.053,2.202-2.798c0.887-0.761,2.11,1.01,1.262,1.971c-0.646,0.732-1.177,1.564-1.555,2.58
						c-0.18,0.484-0.339,0.974-0.549,1.437c-0.207,0.456-0.475,0.804-0.614,1.173c-0.333,0.882-1.363,0.526-1.412-0.441
						C243.34,195.131,243.228,194.577,243.337,193.876z"/>
					<path style="opacity:0.26;fill:#FF9999;" d="M252.064,197.426c0.446-1.291,1.178-1.876,2.132-2.326
						c0.784-0.369,1.671,0.924,1.212,1.9c-0.571,1.215-0.484,2.745-0.795,4.069c-0.339,1.44-1.764,1.905-2.465,0.535
						C251.489,200.319,251.606,198.752,252.064,197.426z"/>
					<path style="opacity:0.26;fill:#66FF66;" d="M255.829,191.095c0.179-1.269,1.085-2.203,1.829-2.924
						c0.867-0.841,1.797-1.345,2.857-1.62c0.716-0.186,1.034,1.056,0.363,1.438c-0.795,0.452-1.585,1.074-2.27,1.773
						c-0.651,0.666-1.115,1.7-1.842,2.211C256.304,192.299,255.726,191.82,255.829,191.095z"/>
					<path style="opacity:0.26;fill:#66FF66;" d="M252.99,184.54c0.975,1.203,2.154,3.214,1.78,5.079
						c-0.131,0.653-0.697,0.699-1.002,0.218c-0.346-0.545-0.583-1.298-0.83-1.928c-0.266-0.677-0.613-1.276-1.025-1.809
						C251.163,185.128,252.217,183.587,252.99,184.54z"/>
					<path style="opacity:0.26;fill:#66FF66;" d="M249.188,191.959c0.774-0.257,1.552-0.493,2.336-0.696
						c0.683-0.177,1.278-0.404,1.941-0.008c0.287,0.171,0.375,0.772,0.148,1.053c-0.507,0.625-1.105,0.668-1.771,0.836
						c-0.737,0.185-1.468,0.399-2.195,0.632C248.758,194.06,248.295,192.256,249.188,191.959z"/>
					<path style="opacity:0.26;fill:#66FF66;" d="M256.75,192.249c0.729-0.327,1.375,0.32,1.952,0.869
						c0.58,0.552,1.134,1.165,1.673,1.786c0.383,0.442-0.057,1.313-0.503,0.956c-0.582-0.466-1.172-0.827-1.818-1.102
						c-0.607-0.258-1.298-0.39-1.65-1.183C256.179,193.067,256.327,192.439,256.75,192.249z"/>
				</g>
				<g>
					<g>
						<path style="fill:#669933;" d="M251.195,185.693c0.987-0.23,2.812,0.907,3.57-0.31c0.144-0.231,0.293-0.458,0.444-0.684
							c0.414-0.618,0.62-1.344,0.63-2.088c0.002-0.121,0.006-0.242,0.011-0.364c0.056-1.284-0.057-2.448-1.214-3.257
							c-0.978-0.683-2.316-0.868-3.493-0.609c-1.74,0.383-3.093,1.798-4.86,2.071c-2.31,0.356-2.855-1.867-3.823-3.298
							c-0.655-0.969-1.71-1.845-3.011-1.552c-1.319,0.298-2.475,1.481-3.163,2.533c-0.868,1.328-1.262,2.938-1.028,4.479
							c0.19,1.252,0.673,2.309-0.116,3.506c-0.433,0.658-1.029,1.213-1.365,1.928c-1.917,4.075,5.416,5.408,5.217,9.091
							c-0.262-0.074-0.415,0.314-0.157,0.458c3.285,1.827,5.351-3.148,7.761-4.153c0.005-0.002,0.01-0.003,0.014-0.005
							C250.125,193.261,250.588,189.391,251.195,185.693z"/>
						<path style="opacity:0.21;fill:#66FF66;" d="M239.772,179.935c-1.183-0.486-2.01,0.942-2.01,1.902
							c0,1.819,2.471,3.601,0.729,5.272c-0.974,0.934-1.824,1.656-1.364,3.085c0.469,1.456,1.945,2.152,3.297,2.737
							c0.311,0.135,0.517-0.318,0.216-0.462c-1.236-0.593-2.851-1.366-2.999-2.852c-0.144-1.445,1.398-1.773,2.005-2.85
							c1.265-2.243-2.777-4.807,0.115-6.368C239.95,180.297,239.999,180.029,239.772,179.935z"/>
						<path style="opacity:0.21;fill:#66FF66;" d="M252.395,181.715c-1.257-0.189-2.478,0.281-3.233,1.285
							c-0.345,0.46-0.502,0.97-0.572,1.523c-0.034,0.268,0.024,0.643-0.093,0.899c-0.387,0.842-1.247,0.622-1.931,0.757
							c-3.008,0.594-4.472,4.363-4.102,6.953c0.041,0.285,0.52,0.4,0.63,0.087c0.479-1.367,0.366-2.816,1.081-4.138
							c0.349-0.645,0.852-1.243,1.499-1.642c0.75-0.463,1.499-0.382,2.322-0.553c0.908-0.189,1.312-0.795,1.43-1.631
							c0.101-0.714,0.085-1.369,0.606-1.96c0.546-0.618,1.411-0.924,2.24-0.85C252.765,182.49,252.89,181.789,252.395,181.715z"/>
						<path style="opacity:0.21;fill:#66FF66;" d="M243.15,182.529c-0.685,0.482-1.198,1.125-1.403,1.921
							c-0.098,0.38,0.054,0.918-0.067,1.259c-0.174,0.488-0.85,0.585-1.213,0.902c-0.908,0.794-1.195,2.845,0.252,3.246
							c0.283,0.078,0.525-0.178,0.359-0.429c-0.407-0.615-0.695-1.227-0.224-1.921c0.35-0.514,0.952-0.496,1.371-0.894
							c0.308-0.294,0.33-0.616,0.349-1.006c0.049-1.024,0.159-1.726,1.111-2.395C244.154,182.881,243.619,182.198,243.15,182.529z"
							/>
						<path style="opacity:0.21;fill:#66FF66;" d="M237.875,179.039c-0.995-0.017-1.545,0.817-1.757,1.663
							c-0.342,1.365,0.292,2.593,0.416,3.929c0.108,1.166-0.386,1.673-1.075,2.553c-0.335,0.428-0.552,0.882-0.559,1.424
							c-0.012,0.958,0.57,1.752,1.447,2.169c0.222,0.106,0.355-0.215,0.154-0.329c-0.68-0.386-1.012-1.055-0.979-1.791
							c0.031-0.691,0.456-1.08,0.918-1.549c0.601-0.61,0.927-1.248,0.942-2.091c0.017-0.968-0.361-1.872-0.468-2.823
							c-0.131-1.161,0.189-1.875,1.093-2.637C238.18,179.413,238.164,179.044,237.875,179.039z"/>
					</g>
					<g>
						<path style="fill:#FF6633;" d="M228.973,200.52c-2.491,4.135-4.405,9.91-5.858,13.819c-2.442,6.57-4.446,13.061-6.092,19.848
							c-0.588,2.423-4.04,11.357-0.8,13.334c3.34,2.038,8.398-6.346,10.141-8.18c7.659-8.059,21.276-26.134,17.784-38.472
							c-0.987-3.486-2.784-5.56-6.287-6.252C231.035,193.27,231.038,197.091,228.973,200.52z"/>
						<path style="opacity:0.19;fill:#FFFFCC;" d="M236.525,195.733c-3.298-0.448-5.272,2.548-6.644,5.132
							c-2.254,4.246-4.084,8.869-5.717,13.385c-1.62,4.478-2.584,9.126-3.838,13.71c-1.33,4.863-2.566,9.685-3.351,14.672
							c-0.094,0.598,0.863,0.921,1.052,0.307c2.613-8.468,5.34-16.612,8.876-24.737c1.674-3.847,3.218-7.746,4.971-11.559
							c0.888-1.931,1.734-3.918,2.947-5.672c0.86-1.244,1.906-2.307,2.552-3.686C237.677,196.639,237.228,195.828,236.525,195.733z"
							/>
						<path style="opacity:0.34;fill:#FF9966;" d="M239.444,199.621c-2.074,3.549-2.771,7.705-4.159,11.572
							c-1.334,3.715-2.998,7.281-4.456,10.944c-3.118,7.84-7.642,14.588-12.825,21.198c-0.762,0.973,0.628,1.973,1.459,1.158
							c6.204-6.077,11.583-13.391,16.095-20.8c2.149-3.529,3.714-7.481,5.085-11.37c1.395-3.955,2.891-7.915,2.543-12.138
							C243.011,198.064,240.345,198.079,239.444,199.621z"/>
						<path style="fill:#CC3333;" d="M234.649,201.566c-0.623-0.769-1.528-1.185-2.503-1.271c-0.193-0.017-0.241,0.269-0.047,0.3
							c0.9,0.142,1.682,0.562,2.376,1.14C234.581,201.823,234.737,201.675,234.649,201.566z"/>
						<path style="fill:#CC3333;" d="M239.72,208.802c-0.903-0.78-2.01-1.35-3.023-1.974c-0.205-0.126-0.446,0.157-0.239,0.301
							c0.989,0.69,1.967,1.488,3.057,2.013C239.726,209.244,239.888,208.947,239.72,208.802z"/>
						<path style="fill:#CC3333;" d="M232.518,210.082c-0.838-0.932-1.919-1.379-3.152-1.504c-0.247-0.025-0.302,0.329-0.059,0.38
							c1.064,0.224,2.05,0.77,2.922,1.405C232.406,210.492,232.68,210.262,232.518,210.082z"/>
						<path style="fill:#CC3333;" d="M233.988,216.684c-0.296,0.001-0.309,0.511-0.01,0.526c1.453,0.071,2.336,0.908,3.263,1.924
							c0.164,0.18,0.422,0.027,0.36-0.203C237.196,217.421,235.417,216.68,233.988,216.684z"/>
						<path style="fill:#CC3333;" d="M227.947,219.863c-1.099-0.59-2.24-1.066-3.387-1.553c-0.331-0.141-0.554,0.367-0.225,0.511
							c1.142,0.499,2.273,1.001,3.457,1.395C228.027,220.294,228.167,219.981,227.947,219.863z"/>
						<path style="fill:#CC3333;" d="M232.03,226.37c-0.57-0.539-1.332-0.897-2.002-1.296c-0.368-0.219-0.634,0.394-0.268,0.61
							c0.649,0.383,1.305,0.857,2.026,1.091C232.044,226.858,232.232,226.561,232.03,226.37z"/>
						<path style="fill:#CC3333;" d="M225.265,229.385c-0.15-0.181-0.335-0.337-0.536-0.456c-0.445-0.264-0.958-0.348-1.466-0.249
							c-0.35,0.068-0.293,0.561,0.063,0.549c0.386-0.013,0.762,0.121,1.072,0.349c0.249,0.183,0.537,0.444,0.696,0.708
							c0.122,0.204,0.498,0.059,0.442-0.176C225.474,229.849,225.44,229.597,225.265,229.385z"/>
						<path style="fill:#CC3333;" d="M224.943,237.938c-0.313-0.245-0.585-0.483-0.931-0.687c-0.353-0.208-0.705-0.415-1.058-0.623
							c-0.371-0.219-0.641,0.4-0.27,0.615c0.333,0.193,0.666,0.386,0.999,0.579c0.345,0.2,0.683,0.319,1.047,0.47
							C224.945,238.381,225.133,238.086,224.943,237.938z"/>
						<path style="fill:#CC3333;" d="M219.432,242.302c-0.347-0.214-0.709-0.274-1.111-0.242c-0.285,0.023-0.289,0.456-0.01,0.499
							c0.515,0.079,1.102,0.446,1.408,0.868c0.149,0.205,0.439,0.015,0.37-0.208C219.966,242.824,219.796,242.526,219.432,242.302z"
							/>
					</g>
				</g>
				<g>
					<g>
						<path style="fill:#669933;" d="M220.183,171.186c0.784-0.643,2.923-0.431,3.064-1.858c0.027-0.271,0.06-0.541,0.096-0.81
							c0.098-0.738-0.039-1.48-0.36-2.151c-0.052-0.109-0.102-0.22-0.151-0.331c-0.518-1.176-1.134-2.17-2.53-2.383
							c-1.179-0.18-2.461,0.247-3.402,1c-1.39,1.113-1.978,2.981-3.442,4.008c-1.914,1.342-3.387-0.41-4.888-1.266
							c-1.016-0.579-2.35-0.898-3.387-0.059c-1.051,0.851-1.564,2.423-1.715,3.672c-0.191,1.575,0.169,3.193,1.06,4.471
							c0.724,1.038,1.625,1.773,1.447,3.195c-0.098,0.781-0.386,1.544-0.371,2.333c0.084,4.503,7.25,2.452,8.702,5.844
							c-0.268,0.049-0.233,0.465,0.062,0.48c3.755,0.185,3.405-5.191,5.122-7.159c0.003-0.004,0.008-0.007,0.011-0.011
							C222.574,178.445,221.276,174.77,220.183,171.186z"/>
						<path style="opacity:0.21;fill:#66FF66;" d="M207.392,171.078c-1.276,0.088-1.385,1.734-0.96,2.595
							c0.805,1.631,3.81,2.135,2.987,4.405c-0.46,1.269-0.902,2.293,0.142,3.37c1.065,1.099,2.696,1.069,4.168,0.995
							c0.339-0.017,0.323-0.514-0.011-0.51c-1.37,0.016-3.161,0.037-3.952-1.23c-0.769-1.232,0.469-2.208,0.537-3.443
							c0.142-2.571-4.618-3.082-2.715-5.762C207.712,171.324,207.637,171.061,207.392,171.078z"/>
						<path style="opacity:0.21;fill:#66FF66;" d="M219.499,167.087c-1.211,0.387-2.098,1.348-2.33,2.583
							c-0.106,0.565-0.02,1.092,0.161,1.619c0.088,0.255,0.306,0.566,0.314,0.847c0.026,0.926-0.843,1.11-1.396,1.534
							c-2.434,1.864-2.08,5.892-0.602,8.05c0.163,0.238,0.643,0.128,0.603-0.201c-0.175-1.438-0.918-2.687-0.862-4.189
							c0.027-0.732,0.214-1.492,0.617-2.136c0.468-0.747,1.175-1.006,1.837-1.523c0.73-0.571,0.825-1.293,0.56-2.096
							c-0.226-0.685-0.53-1.266-0.324-2.026c0.216-0.796,0.857-1.453,1.633-1.753C220.174,167.618,219.977,166.935,219.499,167.087z
							"/>
						<path style="opacity:0.21;fill:#66FF66;" d="M211.569,171.909c-0.401,0.735-0.576,1.539-0.408,2.343
							c0.081,0.385,0.455,0.8,0.497,1.159c0.06,0.514-0.503,0.9-0.688,1.346c-0.463,1.114,0.188,3.079,1.663,2.799
							c0.288-0.055,0.392-0.392,0.132-0.544c-0.637-0.371-1.167-0.793-1.051-1.624c0.086-0.616,0.634-0.866,0.834-1.409
							c0.147-0.4,0.023-0.699-0.133-1.057c-0.41-0.94-0.621-1.618-0.064-2.64C212.625,171.78,211.843,171.405,211.569,171.909z"/>
						<path style="opacity:0.21;fill:#66FF66;" d="M205.294,171.114c-0.9,0.425-1.024,1.416-0.839,2.269
							c0.298,1.375,1.41,2.196,2.112,3.339c0.613,0.997,0.394,1.671,0.165,2.765c-0.111,0.533-0.105,1.035,0.129,1.524
							c0.413,0.864,1.286,1.319,2.258,1.305c0.246-0.004,0.223-0.35-0.008-0.364c-0.781-0.045-1.374-0.498-1.67-1.173
							c-0.278-0.633-0.069-1.17,0.138-1.796c0.269-0.813,0.279-1.529-0.081-2.292c-0.413-0.875-1.152-1.519-1.669-2.324
							c-0.631-0.983-0.66-1.765-0.186-2.848C205.733,171.314,205.556,170.99,205.294,171.114z"/>
					</g>
					<g>
						<path style="fill:#FF6633;" d="M206.818,194.316c-0.404,4.811,0.436,10.837,0.863,14.985
							c0.718,6.972,1.793,13.68,3.321,20.495c0.546,2.433,1.404,11.972,5.184,12.311c3.897,0.349,4.723-9.407,5.474-11.824
							c3.301-10.617,7.513-32.852-1.079-42.37c-2.428-2.689-4.957-3.754-8.405-2.824
							C205.459,186.902,207.153,190.327,206.818,194.316z"/>
						<path style="opacity:0.19;fill:#FFFFCC;" d="M211.472,186.681c-3.156,1.058-3.6,4.618-3.686,7.543
							c-0.142,4.805,0.263,9.76,0.797,14.533c0.53,4.733,1.721,9.327,2.626,13.993c0.96,4.949,1.985,9.821,3.488,14.639
							c0.18,0.578,1.181,0.444,1.079-0.19c-1.404-8.75-2.563-17.26-2.988-26.111c-0.201-4.191-0.542-8.37-0.658-12.566
							c-0.058-2.125-0.178-4.281,0.133-6.391c0.221-1.497,0.689-2.913,0.657-4.435C212.906,186.984,212.144,186.456,211.472,186.681
							z"/>
						<path style="opacity:0.34;fill:#FF9966;" d="M215.81,188.876c-0.289,4.1,0.925,8.136,1.392,12.218
							c0.448,3.922,0.533,7.856,0.848,11.786c0.673,8.41-0.397,16.464-2.119,24.685c-0.253,1.21,1.436,1.491,1.821,0.393
							c2.874-8.195,4.461-17.134,5.228-25.775c0.365-4.116,0.02-8.353-0.472-12.447c-0.5-4.164-0.911-8.377-3.091-12.01
							C218.32,185.901,215.935,187.094,215.81,188.876z"/>
						<path style="fill:#CC3333;" d="M212.371,192.743c-0.899-0.414-1.894-0.387-2.807-0.032c-0.181,0.07-0.097,0.348,0.091,0.289
							c0.87-0.271,1.757-0.24,2.635-0.029C212.423,193.003,212.498,192.801,212.371,192.743z"/>
						<path style="fill:#CC3333;" d="M220.121,196.987c-1.155-0.3-2.4-0.321-3.584-0.432c-0.24-0.022-0.331,0.338-0.081,0.376
							c1.192,0.181,2.422,0.464,3.632,0.453C220.322,197.381,220.336,197.043,220.121,196.987z"/>
						<path style="fill:#CC3333;" d="M214.229,201.322c-1.164-0.465-2.331-0.387-3.492,0.046c-0.232,0.087-0.125,0.429,0.115,0.367
							c1.053-0.27,2.179-0.216,3.242-0.033C214.311,201.739,214.454,201.412,214.229,201.322z"/>
						<path style="fill:#CC3333;" d="M218.469,206.592c-0.265,0.132-0.051,0.595,0.223,0.476c1.334-0.58,2.496-0.219,3.778,0.281
							c0.227,0.088,0.39-0.163,0.233-0.342C221.672,205.833,219.748,205.956,218.469,206.592z"/>
						<path style="fill:#CC3333;" d="M214.459,212.116c-1.246-0.042-2.481,0.035-3.725,0.106c-0.359,0.02-0.334,0.574,0.025,0.557
							c1.245-0.058,2.482-0.108,3.717-0.279C214.721,212.467,214.708,212.125,214.459,212.116z"/>
						<path style="fill:#CC3333;" d="M220.999,216.144c-0.75-0.231-1.591-0.215-2.369-0.276c-0.427-0.033-0.394,0.634,0.029,0.666
							c0.752,0.056,1.55,0.191,2.3,0.081C221.228,216.576,221.265,216.226,220.999,216.144z"/>
						<path style="fill:#CC3333;" d="M216.268,221.842c-0.215-0.096-0.449-0.154-0.683-0.172c-0.516-0.039-1.014,0.112-1.425,0.425
							c-0.283,0.216-0.015,0.633,0.299,0.464c0.341-0.183,0.737-0.228,1.116-0.162c0.304,0.054,0.678,0.16,0.937,0.327
							c0.2,0.129,0.473-0.168,0.318-0.353C216.66,222.165,216.519,221.954,216.268,221.842z"/>
						<path style="fill:#CC3333;" d="M219.764,229.654c-0.389-0.081-0.739-0.174-1.139-0.204c-0.408-0.03-0.817-0.06-1.225-0.09
							c-0.43-0.032-0.398,0.642,0.03,0.671c0.384,0.026,0.768,0.051,1.152,0.077c0.398,0.027,0.753-0.016,1.147-0.042
							C219.963,230.051,220,229.703,219.764,229.654z"/>
						<path style="fill:#CC3333;" d="M216.754,236.006c-0.406-0.038-0.757,0.068-1.103,0.275c-0.245,0.147-0.057,0.537,0.212,0.452
							c0.497-0.157,1.185-0.087,1.647,0.156c0.225,0.118,0.4-0.181,0.239-0.35C217.464,236.238,217.179,236.046,216.754,236.006z"/>
					</g>
				</g>
				<g>
					<path style="fill:#FF3333;" d="M251.056,217.576c8.189-4.609,18.67,4.035,13.248,16.349
						c-4.797,10.894-17.102,9.96-27.208,6.627C213.659,232.821,243.649,196.582,251.056,217.576z"/>
					<path style="fill:#669933;" d="M251.836,220.22c-1.893-3.247-8.653-2.391-10.86-0.238c1.268-3.547,4.582-7.106,7.459-5.236
						c1.516-2.031,0.882-4.933,0.345-7.323c2.522,1.982,4.632,4.294,4.144,8.379c2.46-1.216,5.396-2.338,7.813-0.108
						c-2.152,1.263-5.036,1.169-6.87,3.476c2.339,1.531,3.629,5.668,1.697,8.186C255.144,224.269,251.836,220.22,251.836,220.22z"/>
					<path style="opacity:0.29;fill:#FF0000;" d="M238.467,221.8c0.383-0.351,1.048-0.289,1.43,0.063
						c1.976,1.826,3.917,4.367,6.04,5.83c3.033,2.09,6.347,1.232,9.567,1.932c2.885,0.628,3.515,7.132,0.806,8.52
						c-4.871,2.495-11.232,1.078-15.573-3.064C237.664,232.152,234.461,225.469,238.467,221.8z"/>
					<path style="opacity:0.05;fill:#FF9999;" d="M257.46,219.979c0.194-1.305,1.187-1.522,2.049-1.35
						c1.363,0.272,2.324,1.357,3.142,2.785c1.589,2.774,2.387,7.371-0.002,9.625c-0.826,0.78-1.92-0.19-2.189-1.281
						c-0.393-1.597-0.112-3.22-0.66-4.792c-0.25-0.717-0.625-1.271-0.983-1.891c-0.193-0.333-0.385-0.681-0.547-1.041
						c-0.051-0.137-0.102-0.274-0.154-0.411c-0.106-0.175-0.149-0.277-0.155-0.338C257.581,221.076,257.374,220.552,257.46,219.979z
						"/>
					<path style="opacity:0.26;fill:#FF9999;" d="M258.85,218.524c1.734,0.583,3.214,2.112,4.134,4.15
						c0.975,2.16,1.209,4.294,0.238,6.445c-0.38,0.841-1.39,0.615-1.584-0.341c-0.144-0.711-0.415-1.345-0.572-2.05
						c-0.16-0.714-0.268-1.378-0.549-2.037c-0.534-1.252-1.351-2.289-2.363-2.828C256.59,221.029,257.173,217.96,258.85,218.524z"/>
					<path style="opacity:0.26;fill:#FF9999;" d="M239.749,214.664c0.29-0.65,0.693-1.124,1.15-1.564
						c0.836-0.807,1.768-1.369,2.777-1.702c1.031-0.341,1.774,1.839,0.732,2.385c-0.793,0.416-1.501,0.975-2.106,1.771
						c-0.289,0.379-0.558,0.773-0.87,1.12c-0.308,0.342-0.647,0.556-0.868,0.845c-0.53,0.689-1.429-0.079-1.244-1.01
						C239.451,215.846,239.476,215.277,239.749,214.664z"/>
					<path style="opacity:0.26;fill:#FF9999;" d="M247.237,221.681c0.736-1.026,1.576-1.268,2.596-1.288
						c0.838-0.017,1.375,1.573,0.702,2.298c-0.838,0.902-1.122,2.378-1.738,3.491c-0.67,1.211-2.144,1.048-2.485-0.536
						C245.991,224.158,246.48,222.734,247.237,221.681z"/>
					<path style="opacity:0.26;fill:#66FF66;" d="M252.356,217.314c0.476-1.117,1.566-1.614,2.451-1.979
						c1.031-0.425,2.041-0.507,3.12-0.319c0.729,0.127,0.734,1.429,0.001,1.505c-0.869,0.09-1.773,0.341-2.595,0.711
						c-0.782,0.352-1.474,1.128-2.292,1.302C252.521,218.646,252.084,217.952,252.356,217.314z"/>
					<path style="opacity:0.26;fill:#66FF66;" d="M251.218,209.954c0.642,1.542,1.286,3.93,0.481,5.527
						c-0.282,0.559-0.834,0.363-1.01-0.218c-0.2-0.659-0.245-1.466-0.33-2.162c-0.091-0.749-0.279-1.458-0.544-2.133
						C249.331,209.736,250.709,208.731,251.218,209.954z"/>
					<path style="opacity:0.26;fill:#66FF66;" d="M245.802,215.327c0.802,0.084,1.602,0.191,2.4,0.33
						c0.695,0.122,1.318,0.159,1.857,0.811c0.233,0.282,0.173,0.884-0.112,1.052c-0.634,0.374-1.216,0.163-1.893,0.039
						c-0.748-0.136-1.499-0.243-2.25-0.331C244.886,217.122,244.877,215.23,245.802,215.327z"/>
					<path style="opacity:0.26;fill:#66FF66;" d="M252.959,218.788c0.776-0.001,1.237,0.88,1.657,1.64
						c0.422,0.763,0.804,1.573,1.17,2.385c0.26,0.577-0.37,1.21-0.711,0.687c-0.445-0.684-0.921-1.272-1.473-1.803
						c-0.518-0.499-1.147-0.914-1.293-1.808C252.216,219.316,252.509,218.788,252.959,218.788z"/>
				</g>
				<g>
					<path style="fill:#FBDE3B;" d="M297.566,211.506c-3.756-4.179-11.74-3.858-15.575,0.055c-5.886,6.005-1.47,18.189,2.255,24.168
						c14.992,24.058,43.224-8.84,30.444-25.274C308.083,201.957,302.46,208.065,297.566,211.506z"/>
					<path style="fill:#669900;" d="M315.225,198.369c-4.865-1.883-11.008-0.951-14.755,2.234c0.043-0.219,0.083-0.438,0.112-0.659
						c0.094-0.709-0.877-1.311-1.542-0.682c-3.744,3.538-2.862,9.636-0.775,13.584c0.58,1.098,2.668,0.593,2.173-0.607
						c-0.817-1.98-1.217-4.04-1.147-6.151c0.014-0.423,0.069-0.836,0.14-1.247c2.267,1.359,5.469,0.474,7.966-0.265
						c3.078-0.91,5.944-2.506,8.151-4.551C316.073,199.54,315.962,198.654,315.225,198.369z"/>
					<path style="opacity:0.13;fill:#F7931E;" d="M301.574,231.346c-0.801,0.852-1.023,1.218-2.311,1.084
						c-2.201-0.229-4.546-1.234-5.721-2.762c-1.062-1.381-4.036-0.321-3.224,1.31c0.793,1.592,1.112,3.358,1.911,4.904
						c0.922,1.784,2.927,2.99,5.103,3.488c4.099,0.938,9.716-0.726,11.218-4.417C310.223,230.85,304.998,227.705,301.574,231.346z"
						/>
					<g style="opacity:0.23;">
						<path style="fill:#FFFFFF;" d="M289.932,214.523c-4.048-1.692-7.262,1.689-7.956,4.846c-0.77,3.501,0.302,7.933,3.162,10.526
							c0.785,0.712,2.093,0.176,2.383-0.641c0.851-2.4,0.38-4.863,0.749-7.309c0.254-1.681,1.114-2.473,2.395-3.672
							C291.874,217.142,291.575,215.21,289.932,214.523z"/>
						<path style="fill:#FFFFFF;" d="M313.046,212.889c-1.495-0.698-3.196,0.373-3.206,1.733c-0.022,2.812,1.864,5.108,0.982,7.942
							c-0.791,2.544,3.504,3.17,4.531,0.86C316.934,219.865,317.481,214.962,313.046,212.889z"/>
						<path style="fill:#FFFFFF;" d="M304.432,211.669c-1.945,2.41-5.859,0.939-8.492,0.566c-0.969-0.137-1.771,0.578-1.509,1.394
							c0.728,2.262,3.941,2.932,6.348,2.348c2.266-0.55,3.854-2.01,4.803-3.797C305.936,211.514,304.904,211.083,304.432,211.669z"
							/>
					</g>
				</g>
				<g>
					<path style="fill:#FFC98C;" d="M183.206,246.129c-4.294-13.392-7.575-23.971-1.455-36.494
						c7.496,7.143,21.168,10.653,30.94,13.904c19.973,6.644,41.231,10.904,62.269,11.706c12.851,0.49,33.133,2.575,40.149-10.557
						c3.781-7.076,5.13-17.263,8.691-24.783c3.486,28.063-8.045,59.497-13.236,87.431c-3.19,17.165,13.662,61.198-11.048,63.084
						c-18.041,0.378-34.225,3.82-52.486-0.864c-14.766-3.619-31.733,0.466-47.141-3.937
						C160.704,332.099,195.652,284.946,183.206,246.129z"/>
					<path style="opacity:0.16;fill:#FFFFCC;" d="M196.992,277.945c-0.361-6.491-0.969-12.96-1.71-19.418
						c-0.736-6.414-1.815-13.622-0.061-19.948c0.013-0.048,0.034-0.09,0.048-0.137c-2.083-1.208-4.106-2.523-6.047-3.973
						c-2.444-1.827,0.57-5.638,3.132-4.222c8.714,4.813,18.206,6.811,27.794,9.063c9.241,2.171,18.573,3.99,27.888,5.821
						c9.152,1.799,18.314,3.196,27.636,3.683c4.473,0.234,8.958,0.241,13.429-0.029c4.542-0.275,9.619-1.123,13.867,0.932
						c0.002,0.001,0.005,0.001,0.007,0.001c2.061-0.506,4.383,0.495,4.294,3.246c-0.636,19.747-3.165,39.191-5.973,58.73
						c-1.411,9.82-3.314,19.572-5.082,29.334c-0.275,1.517-0.547,3.038-0.819,4.56c-0.001,0.005-0.006,0.01-0.011,0.01
						c-6.121,0.31-12.21,0.916-18.302,1.337c-0.006-0.007-0.007-0.008-0.013-0.015c1.918-10.421,3.97-20.817,5.987-31.219
						c3.715-19.154,8.624-38.216,14.772-56.755c0.003-0.009-0.005-0.017-0.014-0.015c-2.574,0.715-5.348,0.955-7.817,1.127
						c-5.026,0.35-10.078,0.35-15.107,0.054c-7.171-0.423-14.345-1.417-21.426-2.778c-0.008-0.002-0.016,0.006-0.014,0.014
						c0.139,0.649,0.266,1.291,0.389,1.911c0.796,4.015,1.393,8.068,1.708,12.149c0.868,11.237,0.3,22.464-0.376,33.681
						c-0.83,13.781-2.077,27.557-2.635,41.354c0,0.007-0.007,0.013-0.014,0.012c-2.159-0.332-4.324-0.763-6.497-1.321
						c-3.712-0.91-7.393-1.68-11.068-2.393c-0.006-0.001-0.01-0.006-0.01-0.012c0.046-0.919,0.091-1.837,0.142-2.756
						c1.171-21.216,3.25-42.353,3.997-63.598c0.19-5.399,0.441-10.795,0.705-16.19c0.094-1.925,0.12-3.922,0.438-5.833
						c0.001-0.006-0.003-0.012-0.008-0.013c-7.823-2.056-15.516-4.565-23.252-6.926c-3.547-1.082-7.078-2.271-10.533-3.636
						c-0.01-0.004-0.019,0.005-0.015,0.015c1.271,3.303,2.134,6.835,2.866,10.087c1.253,5.563,2.375,11.162,3.407,16.77
						c2.188,11.89,3.206,23.764,2.902,35.859c-0.27,10.749-1.455,21.456-1.678,32.206c0,0.007-0.007,0.013-0.014,0.012
						c-4.044-0.858-8.137-1.828-12.317-3.022c0,0-0.001,0-0.001,0c-1.783-0.615-3.531-1.357-5.233-2.21
						c-0.004-0.002-0.007-0.007-0.007-0.011c0.244-5.357,0.638-10.711,0.98-16.064C198.175,304.163,197.728,291.188,196.992,277.945
						z"/>
					<g style="opacity:0.22;">
						<path style="fill:#FFCC99;" d="M266.191,300.745c1.992-12.038,3.484-24.374,7.159-36.045c1.134-3.602,6.03-3.009,6.462,0.679
							c1.337,11.42,0.673,23.026,0.386,34.511c-0.336,13.404-1.121,26.79-2.302,40.146c-0.026,0.294-0.052,0.589-0.077,0.883
							c-0.301,3.47-3.114,6.204-6.594,6.346c-0.958,0.039-1.916,0.07-2.875,0.091c-4.139,0.088-7.43-3.472-7.041-7.594
							c0.064-0.674,0.128-1.348,0.194-2.021C262.715,325.328,264.155,313.048,266.191,300.745z"/>
						<path style="fill:#FFCC99;" d="M224.275,286.825c0.589-4.925,8.749-3.991,8.662,0.911c-0.269,15.32-0.147,30.696,0.627,46.018
							c0.227,4.486-3.77,8.016-8.188,7.203c-0.049-0.009-0.098-0.018-0.147-0.027c-3.398-0.626-5.836-3.66-5.681-7.112
							C220.256,318.103,222.4,302.496,224.275,286.825z"/>
					</g>
				</g>
			</g>
			<g>
				<path style="fill:#9FC42D;" d="M261.207,276.758c-10.398,1.494-16.707,9.424-20.21,13.107
					c-2.301-4.377-6.512-13.94-14.907-18.743c-1.479-0.846-2.754-0.627-2.796,0.903c-0.175,6.44,1.124,13.801,3.678,20.951
					c1.216,3.405,5.729,8.693,9.559,10.963c2.661,3.914,14.39-1.576,17.635-5.856c4.606-6.074,7.995-12.858,9.628-19.315
					C264.182,277.233,262.947,276.508,261.207,276.758z"/>
				<path style="opacity:0.22;fill:#FFFFFF;" d="M225.452,277.239c2.176,1.136,4.104,2.781,5.689,4.705
					c1.592,1.926,2.806,4.14,3.673,6.438c0.865,2.307,1.336,4.71,2.172,6.965c0.412,1.128,0.902,2.226,1.523,3.229
					c0.622,1.003,1.459,1.832,2.383,2.392l-0.779,0.184c0.554-1.06,1.096-2.129,1.673-3.179c0.564-1.057,1.225-2.061,1.851-3.084
					c1.271-2.036,2.633-4.035,4.194-5.9c1.599-1.822,3.358-3.613,5.564-4.856c1.081-0.645,2.294-1.046,3.371-1.432
					c1.084-0.378,2.035-0.986,2.914-1.807l0.155,0.124c-0.613,1.037-1.546,1.966-2.627,2.591c-1.07,0.629-2.077,1.131-2.969,1.831
					c-1.798,1.355-3.327,3.094-4.786,4.9c-1.444,1.824-2.895,3.671-4.26,5.597c-1.36,1.927-2.709,3.875-4.12,5.793l-0.37,0.504
					l-0.41-0.32c-1.065-0.832-1.787-1.902-2.377-2.99c-0.567-1.1-1.053-2.219-1.522-3.34c-0.927-2.245-2.015-4.422-3.084-6.545
					c-1.062-2.125-2.079-4.24-3.407-6.175c-1.305-1.953-2.856-3.718-4.566-5.46L225.452,277.239z"/>
			</g>
		</g>
		<g>
			<path style="fill:#FF3333;" d="M280.163,340.615c6.015-4.214,14.832,1.704,11.561,11.698c-2.894,8.842-12.537,9.061-20.654,7.245
				C252.247,355.346,272.788,324.855,280.163,340.615z"/>
			<path style="fill:#669933;" d="M280.973,342.612c-1.722-2.38-6.914-1.195-8.465,0.649c0.714-2.856,3.018-5.879,5.4-4.646
				c1.023-1.696,0.307-3.905-0.295-5.722c2.114,1.348,3.933,2.984,3.867,6.199c1.82-1.135,4.018-2.233,6.069-0.685
				c-1.577,1.148-3.828,1.296-5.076,3.231c1.937,1.011,3.258,4.13,1.949,6.237C283.857,345.507,280.973,342.612,280.973,342.612z"/>
			<path style="opacity:0.29;fill:#FF0000;" d="M270.696,344.868c0.271-0.303,0.793-0.305,1.117-0.061
				c1.677,1.269,3.382,3.095,5.146,4.07c2.519,1.393,5.031,0.47,7.59,0.768c2.293,0.266,3.282,5.277,1.282,6.565
				c-3.597,2.315-8.653,1.701-12.348-1.186C270.867,352.981,267.862,348.029,270.696,344.868z"/>
			<path style="opacity:0.05;fill:#FF9999;" d="M285.328,341.992c0.051-1.03,0.806-1.275,1.49-1.207
				c1.081,0.107,1.912,0.877,2.658,1.924c1.449,2.035,2.423,5.55,0.738,7.487c-0.583,0.67-1.508,0-1.801-0.828
				c-0.429-1.212-0.335-2.496-0.881-3.676c-0.25-0.539-0.584-0.941-0.91-1.395c-0.175-0.244-0.352-0.5-0.506-0.768
				c-0.05-0.103-0.101-0.205-0.151-0.307c-0.096-0.128-0.137-0.204-0.147-0.251C285.507,342.836,285.306,342.444,285.328,341.992z"
				/>
			<path style="opacity:0.26;fill:#FF9999;" d="M286.298,340.753c1.394,0.32,2.662,1.396,3.534,2.91
				c0.925,1.605,1.271,3.247,0.681,4.994c-0.231,0.684-1.034,0.585-1.258-0.144c-0.167-0.542-0.426-1.014-0.603-1.551
				c-0.179-0.543-0.315-1.051-0.584-1.542c-0.512-0.933-1.227-1.677-2.056-2.018C284.732,342.875,284.951,340.443,286.298,340.753z"
				/>
			<path style="opacity:0.26;fill:#FF9999;" d="M271.145,339.219c0.175-0.528,0.453-0.927,0.774-1.305
				c0.589-0.692,1.27-1.2,2.029-1.538c0.776-0.345,1.521,1.294,0.753,1.799c-0.585,0.385-1.092,0.874-1.502,1.539
				c-0.195,0.317-0.375,0.644-0.591,0.938c-0.213,0.29-0.46,0.482-0.61,0.724c-0.359,0.577-1.117,0.048-1.045-0.69
				C271.003,340.161,270.979,339.717,271.145,339.219z"/>
			<path style="opacity:0.26;fill:#FF9999;" d="M277.508,344.101c0.494-0.854,1.129-1.107,1.921-1.201
				c0.65-0.077,1.191,1.118,0.723,1.734c-0.583,0.766-0.69,1.936-1.083,2.849c-0.428,0.993-1.587,0.98-1.974-0.226
				C276.729,346.124,277,344.979,277.508,344.101z"/>
			<path style="opacity:0.26;fill:#66FF66;" d="M281.154,340.311c0.285-0.906,1.094-1.376,1.754-1.727
				c0.769-0.41,1.548-0.551,2.402-0.487c0.576,0.043,0.681,1.055,0.117,1.171c-0.669,0.137-1.353,0.402-1.964,0.753
				c-0.581,0.334-1.06,0.991-1.682,1.189C281.384,341.335,280.991,340.829,281.154,340.311z"/>
			<path style="opacity:0.26;fill:#66FF66;" d="M279.703,334.674c0.618,1.15,1.303,2.958,0.799,4.262
				c-0.176,0.457-0.621,0.346-0.803-0.092c-0.206-0.497-0.303-1.122-0.423-1.657c-0.128-0.576-0.329-1.113-0.587-1.617
				C278.219,334.65,279.213,333.762,279.703,334.674z"/>
			<path style="opacity:0.26;fill:#66FF66;" d="M275.903,339.27c0.63,0.004,1.26,0.025,1.892,0.072
				c0.55,0.041,1.037,0.022,1.507,0.488c0.203,0.201,0.202,0.674-0.006,0.827c-0.465,0.34-0.934,0.22-1.469,0.176
				c-0.593-0.048-1.184-0.074-1.776-0.084C275.329,340.736,275.176,339.265,275.903,339.27z"/>
			<path style="opacity:0.26;fill:#66FF66;" d="M281.736,341.411c0.603-0.06,1.03,0.59,1.415,1.148
				c0.387,0.561,0.746,1.162,1.093,1.765c0.246,0.429-0.195,0.97-0.5,0.589c-0.398-0.498-0.814-0.918-1.284-1.289
				c-0.441-0.348-0.962-0.622-1.144-1.307C281.199,341.879,281.387,341.446,281.736,341.411z"/>
		</g>
		<g>
			<g>
				<path style="fill:#669933;" d="M348.221,342.976c0.834,0.559,1.246,2.648,2.639,2.373c0.264-0.052,0.53-0.098,0.795-0.141
					c0.727-0.118,1.392-0.461,1.937-0.957c0.088-0.08,0.179-0.16,0.271-0.238c0.967-0.828,1.733-1.697,1.535-3.082
					c-0.167-1.169-0.939-2.262-1.923-2.939c-1.454-1-3.393-1.021-4.786-2.115c-1.82-1.43-0.581-3.328-0.2-4.997
					c0.258-1.129,0.178-2.485-0.914-3.228c-1.107-0.753-2.745-0.789-3.972-0.574c-1.548,0.27-2.979,1.074-3.935,2.286
					c-0.777,0.984-1.215,2.049-2.615,2.287c-0.769,0.131-1.574,0.077-2.318,0.317c-4.245,1.37-0.249,7.576-3.048,9.924
					c-0.124-0.24-0.508-0.087-0.437,0.196c0.9,3.613,5.896,1.742,8.254,2.806c0.005,0.002,0.009,0.005,0.013,0.007
					C342.022,347.322,345.135,345.039,348.221,342.976z"/>
				<path style="opacity:0.21;fill:#66FF66;" d="M344.659,330.818c-0.449-1.185-2.041-0.817-2.736-0.167
					c-1.316,1.23-0.933,4.223-3.321,4.094c-1.335-0.073-2.432-0.199-3.155,1.1c-0.736,1.324-0.241,2.863,0.25,4.237
					c0.113,0.316,0.579,0.159,0.48-0.156c-0.407-1.295-0.94-2.987,0.035-4.099c0.948-1.082,2.228-0.188,3.418-0.477
					c2.478-0.602,1.599-5.261,4.685-4.224C344.517,331.191,344.745,331.045,344.659,330.818z"/>
				<path style="opacity:0.21;fill:#66FF66;" d="M351.91,341.153c-0.713-1.037-1.879-1.603-3.117-1.469
					c-0.566,0.061-1.041,0.293-1.488,0.617c-0.217,0.157-0.449,0.452-0.714,0.54c-0.871,0.29-1.294-0.481-1.854-0.884
					c-2.465-1.774-6.182-0.284-7.805,1.736c-0.179,0.223,0.063,0.646,0.363,0.514c1.313-0.578,2.284-1.64,3.725-2.017
					c0.702-0.184,1.476-0.224,2.202-0.026c0.842,0.23,1.29,0.826,1.97,1.305c0.75,0.529,1.462,0.412,2.147-0.069
					c0.585-0.41,1.048-0.865,1.828-0.888c0.817-0.024,1.623,0.396,2.13,1.046C351.6,341.945,352.191,341.562,351.91,341.153z"/>
				<path style="opacity:0.21;fill:#66FF66;" d="M345.067,335.016c-0.812-0.169-1.624-0.106-2.339,0.285
					c-0.342,0.187-0.628,0.66-0.956,0.803c-0.47,0.204-0.998-0.219-1.473-0.267c-1.188-0.12-2.866,1.06-2.177,2.378
					c0.135,0.258,0.484,0.26,0.554-0.03c0.169-0.71,0.417-1.333,1.238-1.461c0.608-0.095,1.003,0.353,1.574,0.387
					c0.421,0.025,0.669-0.178,0.964-0.428c0.773-0.657,1.356-1.052,2.485-0.816C345.492,335.98,345.624,335.132,345.067,335.016z"/>
				<path style="opacity:0.21;fill:#66FF66;" d="M344.024,328.839c-0.66-0.732-1.636-0.565-2.392-0.146
					c-1.219,0.676-1.678,1.966-2.561,2.959c-0.77,0.867-1.471,0.852-2.574,0.949c-0.537,0.047-1.011,0.197-1.408,0.559
					c-0.701,0.639-0.882,1.597-0.591,2.514c0.074,0.232,0.396,0.111,0.343-0.111c-0.181-0.753,0.079-1.445,0.634-1.919
					c0.521-0.445,1.09-0.4,1.742-0.384c0.848,0.022,1.53-0.173,2.15-0.733c0.712-0.643,1.11-1.527,1.725-2.248
					c0.751-0.88,1.484-1.131,2.647-0.993C343.96,329.313,344.216,329.052,344.024,328.839z"/>
			</g>
			<g>
				<path style="fill:#FF6633;" d="M322.463,336.929c-4.677,0.995-10.149,3.517-13.96,5.11c-6.404,2.678-12.457,5.619-18.479,9.019
					c-2.15,1.214-10.949,4.76-10.188,8.441c0.785,3.795,10.272,1.783,12.778,1.803c11.011,0.089,35.334-1.768,41.896-12.64
					c1.854-3.072,1.869-6.295,0-9.297C330.868,333.517,326.34,336.104,322.463,336.929z"/>
				<path style="opacity:0.19;fill:#FFFFCC;" d="M331.034,339.155c-1.907-2.689-5.409-2.09-8.207-1.335
					c-4.596,1.242-9.178,3.045-13.55,4.918c-4.335,1.858-8.35,4.304-12.514,6.498c-4.417,2.327-8.742,4.695-12.88,7.501
					c-0.496,0.336-0.082,1.247,0.489,0.969c7.894-3.837,15.63-7.374,23.9-10.312c3.916-1.391,7.78-2.912,11.725-4.223
					c1.998-0.664,4.007-1.395,6.097-1.705c1.482-0.219,2.958-0.181,4.393-0.647C331.158,340.602,331.441,339.728,331.034,339.155z"
					/>
				<path style="opacity:0.34;fill:#FF9966;" d="M330.196,343.896c-3.97,0.901-7.449,3.208-11.185,4.819
					c-3.59,1.548-7.295,2.756-10.931,4.18c-7.781,3.047-15.723,4.339-24.01,5.062c-1.219,0.106-1.002,1.789,0.15,1.839
					c8.593,0.377,17.523-0.678,25.934-2.426c4.007-0.833,7.925-2.374,11.665-4.013c3.805-1.667,7.681-3.263,10.501-6.371
					C333.736,345.424,331.921,343.505,330.196,343.896z"/>
				<path style="fill:#CC3333;" d="M325.545,341.744c0.135-0.971-0.176-1.907-0.773-2.671c-0.118-0.151-0.358,0.008-0.248,0.169
					c0.507,0.747,0.731,1.597,0.783,2.49C325.313,341.868,325.526,341.881,325.545,341.744z"/>
				<path style="fill:#CC3333;" d="M323.741,350.307c-0.047-1.181-0.383-2.367-0.617-3.522c-0.047-0.234-0.415-0.217-0.38,0.031
					c0.169,1.182,0.254,2.429,0.611,3.573C323.425,350.61,323.749,350.526,323.741,350.307z"/>
				<path style="fill:#CC3333;" d="M317.943,345.963c0.108-1.237-0.3-2.321-1.044-3.297c-0.149-0.195-0.442,0.004-0.315,0.214
					c0.558,0.921,0.829,2.004,0.96,3.064C317.571,346.159,317.922,346.201,317.943,345.963z"/>
				<path style="fill:#CC3333;" d="M314.161,351.492c-0.201-0.214-0.579,0.122-0.388,0.348c0.932,1.099,0.923,2.304,0.816,3.662
					c-0.019,0.24,0.266,0.323,0.391,0.123C315.798,354.312,315.131,352.522,314.161,351.492z"/>
				<path style="fill:#CC3333;" d="M307.775,349.272c-0.317-1.194-0.744-2.342-1.167-3.501c-0.122-0.334-0.64-0.152-0.521,0.183
					c0.412,1.164,0.814,2.322,1.329,3.444C307.518,349.621,307.838,349.511,307.775,349.272z"/>
				<path style="fill:#CC3333;" d="M305.83,356.627c0.004-0.777-0.252-1.57-0.417-2.325c-0.091-0.414-0.714-0.192-0.623,0.219
					c0.162,0.729,0.263,1.524,0.582,2.204C305.486,356.968,305.828,356.903,305.83,356.627z"/>
				<path style="fill:#CC3333;" d="M299.073,353.773c0.03-0.231,0.017-0.47-0.033-0.697c-0.11-0.501-0.396-0.929-0.811-1.229
					c-0.286-0.207-0.604,0.168-0.354,0.417c0.271,0.271,0.428,0.634,0.473,1.012c0.036,0.304,0.042,0.689-0.041,0.982
					c-0.065,0.226,0.294,0.4,0.426,0.201C298.878,354.238,299.038,354.043,299.073,353.773z"/>
				<path style="fill:#CC3333;" d="M292.668,359.325c-0.034-0.392-0.047-0.75-0.133-1.138c-0.088-0.396-0.177-0.791-0.265-1.187
					c-0.093-0.417-0.723-0.193-0.628,0.22c0.086,0.372,0.171,0.743,0.257,1.115c0.089,0.385,0.231,0.71,0.368,1.076
					C292.348,359.627,292.688,359.563,292.668,359.325z"/>
				<path style="fill:#CC3333;" d="M285.783,358.291c-0.08-0.396-0.281-0.698-0.577-0.967c-0.21-0.19-0.525,0.1-0.368,0.33
					c0.291,0.427,0.422,1.099,0.324,1.606c-0.048,0.247,0.286,0.328,0.401,0.126C285.766,359.03,285.866,358.706,285.783,358.291z"
					/>
			</g>
		</g>
		<g>
			<g>
				<path style="fill:#669933;" d="M362.166,349.174c0.834,0.559,1.246,2.648,2.639,2.373c0.264-0.052,0.53-0.098,0.795-0.141
					c0.727-0.118,1.392-0.461,1.937-0.957c0.088-0.08,0.179-0.16,0.271-0.238c0.967-0.828,1.733-1.697,1.535-3.082
					c-0.167-1.169-0.939-2.262-1.923-2.939c-1.454-0.999-3.393-1.021-4.786-2.115c-1.82-1.43-0.581-3.328-0.2-4.997
					c0.258-1.129,0.178-2.485-0.914-3.228c-1.107-0.753-2.745-0.789-3.972-0.575c-1.548,0.27-2.979,1.074-3.935,2.286
					c-0.777,0.984-1.215,2.049-2.615,2.288c-0.769,0.131-1.574,0.076-2.319,0.317c-4.245,1.37-0.249,7.576-3.048,9.924
					c-0.124-0.24-0.508-0.087-0.437,0.196c0.9,3.613,5.897,1.742,8.254,2.806c0.005,0.002,0.009,0.005,0.013,0.007
					C355.968,353.52,359.08,351.237,362.166,349.174z"/>
				<path style="opacity:0.21;fill:#66FF66;" d="M358.604,337.016c-0.449-1.185-2.041-0.817-2.736-0.167
					c-1.316,1.23-0.933,4.223-3.321,4.094c-1.335-0.073-2.432-0.199-3.155,1.1c-0.737,1.324-0.241,2.863,0.25,4.237
					c0.113,0.316,0.579,0.159,0.48-0.156c-0.407-1.295-0.941-2.987,0.034-4.099c0.948-1.082,2.228-0.188,3.419-0.477
					c2.478-0.602,1.599-5.261,4.685-4.225C358.463,337.389,358.691,337.243,358.604,337.016z"/>
				<path style="opacity:0.21;fill:#66FF66;" d="M365.855,347.351c-0.713-1.037-1.879-1.603-3.117-1.469
					c-0.566,0.061-1.041,0.294-1.488,0.617c-0.217,0.157-0.449,0.452-0.714,0.54c-0.871,0.29-1.294-0.481-1.854-0.884
					c-2.465-1.774-6.182-0.284-7.805,1.736c-0.179,0.223,0.063,0.646,0.363,0.514c1.313-0.578,2.284-1.64,3.725-2.017
					c0.702-0.184,1.476-0.225,2.202-0.027c0.842,0.23,1.29,0.826,1.97,1.306c0.75,0.529,1.462,0.412,2.147-0.069
					c0.585-0.41,1.048-0.865,1.828-0.887c0.817-0.024,1.623,0.396,2.13,1.046C365.546,348.143,366.137,347.76,365.855,347.351z"/>
				<path style="opacity:0.21;fill:#66FF66;" d="M359.013,341.214c-0.812-0.169-1.624-0.105-2.339,0.285
					c-0.342,0.186-0.628,0.66-0.956,0.803c-0.47,0.204-0.998-0.219-1.473-0.267c-1.188-0.12-2.866,1.06-2.177,2.378
					c0.135,0.258,0.484,0.26,0.554-0.03c0.17-0.71,0.418-1.333,1.238-1.461c0.608-0.095,1.003,0.353,1.574,0.387
					c0.421,0.025,0.669-0.178,0.964-0.428c0.773-0.658,1.356-1.052,2.485-0.817C359.438,342.178,359.569,341.33,359.013,341.214z"/>
				<path style="opacity:0.21;fill:#66FF66;" d="M357.969,335.037c-0.661-0.732-1.636-0.565-2.392-0.146
					c-1.219,0.676-1.678,1.966-2.561,2.959c-0.77,0.867-1.471,0.852-2.574,0.949c-0.537,0.047-1.011,0.197-1.408,0.559
					c-0.701,0.639-0.882,1.597-0.59,2.514c0.074,0.232,0.396,0.111,0.343-0.111c-0.181-0.753,0.079-1.445,0.634-1.919
					c0.521-0.445,1.09-0.4,1.742-0.383c0.848,0.022,1.53-0.173,2.15-0.733c0.712-0.643,1.11-1.527,1.725-2.248
					c0.751-0.88,1.484-1.131,2.647-0.993C357.905,335.51,358.161,335.25,357.969,335.037z"/>
			</g>
			<g>
				<path style="fill:#FF6633;" d="M336.408,343.127c-4.677,0.995-10.149,3.517-13.96,5.11c-6.405,2.678-12.457,5.619-18.479,9.019
					c-2.151,1.214-10.949,4.76-10.188,8.441c0.785,3.795,10.272,1.783,12.778,1.803c11.011,0.089,35.333-1.768,41.896-12.64
					c1.855-3.072,1.869-6.295,0-9.297C344.813,339.715,340.285,342.302,336.408,343.127z"/>
				<path style="opacity:0.19;fill:#FFFFCC;" d="M344.98,345.353c-1.907-2.689-5.41-2.09-8.207-1.335
					c-4.596,1.242-9.178,3.045-13.55,4.918c-4.336,1.858-8.35,4.304-12.514,6.498c-4.417,2.327-8.742,4.695-12.88,7.501
					c-0.496,0.336-0.082,1.247,0.489,0.969c7.894-3.837,15.63-7.374,23.9-10.312c3.916-1.391,7.78-2.911,11.725-4.223
					c1.998-0.664,4.008-1.395,6.097-1.705c1.482-0.219,2.959-0.181,4.393-0.647C345.103,346.8,345.386,345.926,344.98,345.353z"/>
				<path style="opacity:0.34;fill:#FF9966;" d="M344.141,350.094c-3.97,0.901-7.449,3.208-11.185,4.819
					c-3.59,1.548-7.295,2.756-10.931,4.18c-7.781,3.047-15.723,4.339-24.01,5.061c-1.219,0.106-1.003,1.789,0.149,1.839
					c8.593,0.377,17.522-0.678,25.934-2.426c4.007-0.833,7.925-2.374,11.665-4.013c3.805-1.667,7.681-3.263,10.501-6.371
					C347.681,351.622,345.866,349.703,344.141,350.094z"/>
				<path style="fill:#CC3333;" d="M339.49,347.942c0.135-0.971-0.176-1.907-0.773-2.671c-0.118-0.151-0.358,0.008-0.248,0.169
					c0.507,0.747,0.731,1.597,0.783,2.49C339.259,348.066,339.471,348.079,339.49,347.942z"/>
				<path style="fill:#CC3333;" d="M337.686,356.505c-0.047-1.181-0.383-2.367-0.617-3.522c-0.047-0.234-0.415-0.217-0.38,0.031
					c0.17,1.182,0.254,2.429,0.611,3.573C337.37,356.808,337.695,356.724,337.686,356.505z"/>
				<path style="fill:#CC3333;" d="M331.888,352.161c0.107-1.237-0.3-2.321-1.044-3.297c-0.149-0.195-0.442,0.004-0.315,0.214
					c0.558,0.921,0.829,2.004,0.96,3.064C331.516,352.357,331.868,352.399,331.888,352.161z"/>
				<path style="fill:#CC3333;" d="M328.107,357.69c-0.201-0.214-0.579,0.122-0.388,0.348c0.932,1.099,0.923,2.304,0.816,3.662
					c-0.019,0.24,0.266,0.323,0.391,0.123C329.743,360.51,329.076,358.72,328.107,357.69z"/>
				<path style="fill:#CC3333;" d="M321.72,355.47c-0.317-1.194-0.744-2.342-1.167-3.501c-0.122-0.334-0.64-0.153-0.521,0.183
					c0.412,1.164,0.813,2.322,1.329,3.444C321.463,355.819,321.784,355.709,321.72,355.47z"/>
				<path style="fill:#CC3333;" d="M319.775,362.825c0.004-0.777-0.252-1.57-0.417-2.325c-0.091-0.414-0.714-0.192-0.623,0.219
					c0.162,0.729,0.263,1.524,0.582,2.204C319.431,363.166,319.774,363.1,319.775,362.825z"/>
				<path style="fill:#CC3333;" d="M313.018,359.971c0.03-0.231,0.017-0.47-0.033-0.697c-0.11-0.501-0.396-0.929-0.811-1.229
					c-0.286-0.207-0.604,0.167-0.354,0.417c0.271,0.271,0.428,0.634,0.473,1.012c0.036,0.304,0.042,0.689-0.042,0.982
					c-0.065,0.226,0.294,0.4,0.426,0.201C312.824,360.436,312.983,360.241,313.018,359.971z"/>
				<path style="fill:#CC3333;" d="M306.613,365.523c-0.034-0.392-0.046-0.75-0.133-1.138c-0.088-0.396-0.177-0.791-0.265-1.187
					c-0.093-0.417-0.723-0.193-0.628,0.22c0.086,0.371,0.171,0.743,0.257,1.115c0.089,0.385,0.231,0.709,0.368,1.075
					C306.293,365.825,306.634,365.761,306.613,365.523z"/>
				<path style="fill:#CC3333;" d="M299.728,364.489c-0.08-0.396-0.281-0.698-0.576-0.967c-0.21-0.191-0.525,0.1-0.368,0.33
					c0.291,0.427,0.422,1.099,0.324,1.606c-0.048,0.247,0.286,0.328,0.401,0.126C299.711,365.228,299.812,364.903,299.728,364.489z"
					/>
			</g>
		</g>
		<g>
			<path style="fill:#663366;" d="M156.937,324.519c2.116-5.042,14.547-3.158,19.182-2.17c11.98,2.552,20.979,8.816,33.909,8.092
				c10.149-0.568,24.038-6.908,33.714-3.152c10.09,3.917,11.75,13.805,7.041,21.729c-12.727,21.42-58.148,11.792-77.506,4.786
				c-8.541-3.091-18.166-7.801-20.432-16.142C151.506,332.728,151.728,326.937,156.937,324.519z"/>
			<path style="opacity:0.23;fill:#330033;" d="M162.134,334.407c2.85,1.822,6.285,2.893,9.368,4.404
				c3.261,1.597,6.573,3.043,10.077,4.22c7.366,2.474,15.261,4.116,23.149,4.749c7.834,0.629,15.925,0.349,23.668-0.962
				c3.407-0.577,7-1.258,10.048-2.76c3.138-1.545,4.577-3.519,8.493-3.067c1.318,0.152,2.41,1.24,2.789,2.27
				c2.784,7.554-12.353,11.016-18.347,12.044c-9.451,1.621-18.994,2.023-28.555,1.177c-9.538-0.844-18.759-2.912-27.542-6.188
				c-7.83-2.921-15.567-6.648-15.811-14.85C159.435,334.163,161.095,333.743,162.134,334.407z"/>
			<path style="opacity:0.22;fill:#FFFFFF;" d="M165.297,323.357c6.612-2.364,13.221-0.299,19.07,2.581
				c7.555,3.721,14.575,6.764,23.583,6.363c11.57-0.515,30.712-11.123,39.528-0.006c1.05,1.324-0.845,2.683-2.317,2.118
				c-6.564-2.519-12.791-2.562-19.689-0.955c-6.722,1.566-13.218,3.538-20.27,3.192c-6.315-0.31-12.231-1.967-17.635-4.738
				c-6.378-3.271-13.266-7.908-21.076-5.159C164.02,327.621,162.862,324.227,165.297,323.357z"/>
			<path style="fill:#669900;" d="M153.994,322.125c2.518-0.775,5.137-1.33,7.712-2.142c0.879-0.277,1.708,0.518,1.246,1.222
				c-0.698,1.064-1.21,2.229-1.614,3.426c-0.172,0.509-0.831,0.78-1.385,0.559c-3.857-1.54-4.771,2.216-4.479,5.395
				c0.061,0.658-0.726,1.168-1.411,0.878c-1.035-0.437-1.865,0.242-2.781,0.937c-0.739,0.56-1.858-0.1-1.51-0.893
				c0.644-1.467,1.209-3.113,1.083-4.37c-0.202-2.021-3.214-3.844-3.183-5.597c0.069-3.989,3.931-1.369,5.747,0.6L153.994,322.125z"
				/>
			<path style="opacity:0.25;fill:#669900;" d="M149.196,321.958c0.082-0.236,0.123-0.335,0.378-0.449
				c0.347-0.155,0.736-0.146,1.033,0.085c2.266,1.76,4.388,5.236,2.688,7.794c-0.145,0.218-0.563,0.203-0.642-0.054
				c-0.338-1.103-0.375-2.253-0.758-3.343c-0.462-1.315-1.323-2.384-2.46-3.326C149.225,322.491,149.109,322.207,149.196,321.958z"
				/>
		</g>
		<g>
			<path style="fill:#FF3333;" d="M138.297,347.7c-3.824-7.045,2.389-14.622,11.996-9.04c8.499,4.938,8.75,15.797,2.594,20.246
				C142.203,366.629,122.536,351.581,138.297,347.7z"/>
			<path style="fill:#669933;" d="M140.288,347.334c-2.41,1.202-1.505,6.725,0.221,8.714c-2.757-1.371-5.598-4.39-4.276-6.52
				c-1.607-1.421-3.801-1.198-5.607-1.002c1.421-1.833,3.108-3.302,6.246-2.504c-1.02-2.1-1.986-4.573-0.372-6.297
				c1.045,1.856,1.079,4.168,2.91,5.871c1.083-1.73,4.195-2.358,6.19-0.554C143.259,345.074,140.288,347.334,140.288,347.334z"/>
			<path style="opacity:0.29;fill:#FF0000;" d="M141.991,358.247c-0.283-0.343-0.26-0.872-0.005-1.144
				c1.322-1.409,3.19-2.719,4.229-4.282c1.484-2.233,0.705-4.984,1.121-7.506c0.372-2.259,5.317-2.122,6.478,0.195
				c2.087,4.166,1.24,9.143-1.762,12.226C149.928,359.918,144.942,361.833,141.991,358.247z"/>
			<path style="opacity:0.05;fill:#FF9999;" d="M139.896,342.786c-1.004-0.285-1.206-1.106-1.107-1.782
				c0.157-1.07,0.95-1.736,2.01-2.252c2.06-1.004,5.542-1.191,7.352,0.955c0.626,0.742-0.074,1.526-0.897,1.634
				c-1.205,0.158-2.455-0.229-3.636,0.056c-0.539,0.13-0.948,0.377-1.408,0.604c-0.247,0.122-0.506,0.242-0.775,0.337
				c-0.103,0.028-0.205,0.055-0.308,0.083c-0.13,0.068-0.206,0.092-0.252,0.092C140.729,342.797,140.337,342.911,139.896,342.786z"
				/>
			<path style="opacity:0.26;fill:#FF9999;" d="M138.732,341.523c0.381-1.337,1.494-2.376,3.017-2.915
				c1.613-0.571,3.235-0.548,4.914,0.446c0.657,0.389,0.521,1.179-0.202,1.241c-0.538,0.046-1.012,0.2-1.545,0.258
				c-0.539,0.058-1.043,0.079-1.535,0.24c-0.937,0.306-1.698,0.86-2.073,1.621C140.73,343.59,138.364,342.816,138.732,341.523z"/>
			<path style="opacity:0.26;fill:#FF9999;" d="M136.493,356.509c-0.508-0.297-0.884-0.669-1.237-1.08
				c-0.647-0.753-1.111-1.558-1.404-2.403c-0.299-0.863,1.339-1.245,1.795-0.353c0.347,0.68,0.801,1.304,1.431,1.87
				c0.3,0.27,0.611,0.526,0.887,0.811c0.273,0.281,0.449,0.576,0.677,0.782c0.546,0.495-0.008,1.142-0.725,0.901
				C137.407,356.866,136.972,356.789,136.493,356.509z"/>
			<path style="opacity:0.26;fill:#FF9999;" d="M141.575,351.179c-0.811-0.694-1.027-1.394-1.08-2.217
				c-0.044-0.676,1.151-0.951,1.729-0.337c0.72,0.764,1.858,1.138,2.731,1.744c0.95,0.659,0.88,1.829-0.317,1.946
				C143.513,352.427,142.408,351.892,141.575,351.179z"/>
			<path style="opacity:0.26;fill:#66FF66;" d="M138.049,346.628c-0.871-0.494-1.291-1.42-1.602-2.168
				c-0.363-0.872-0.463-1.692-0.359-2.542c0.07-0.574,1.064-0.449,1.15,0.148c0.101,0.708,0.327,1.461,0.639,2.158
				c0.298,0.664,0.917,1.298,1.08,1.973C139.061,346.628,138.547,346.91,138.049,346.628z"/>
			<path style="opacity:0.26;fill:#66FF66;" d="M132.469,346.815c1.154-0.364,2.954-0.646,4.204,0.16
				c0.438,0.282,0.308,0.707-0.129,0.791c-0.496,0.095-1.111,0.052-1.639,0.051c-0.569-0.001-1.103,0.08-1.609,0.227
				C132.373,348.312,131.554,347.103,132.469,346.815z"/>
			<path style="opacity:0.26;fill:#66FF66;" d="M136.775,351.704c0.035-0.637,0.086-1.27,0.163-1.898
				c0.067-0.547,0.072-1.045,0.55-1.414c0.207-0.16,0.669-0.051,0.808,0.194c0.309,0.547,0.169,0.995,0.1,1.527
				c-0.076,0.589-0.13,1.181-0.169,1.778C138.18,352.619,136.735,352.439,136.775,351.704z"/>
			<path style="opacity:0.26;fill:#66FF66;" d="M139.153,346.289c-0.029-0.624,0.627-0.908,1.191-1.171
				c0.567-0.264,1.172-0.491,1.778-0.705c0.431-0.152,0.938,0.418,0.551,0.64c-0.506,0.29-0.937,0.615-1.322,1.006
				c-0.361,0.367-0.655,0.832-1.333,0.861C139.584,346.939,139.169,346.651,139.153,346.289z"/>
		</g>
		<g>
			<path style="fill:#FBDE3B;" d="M161.895,336.73c-3.606-2.506-9.623-0.832-11.839,2.831c-3.403,5.623,2.14,14.101,6.045,17.983
				c15.715,15.618,31.301-14.468,18.635-24.681C168.185,327.582,165.001,333.237,161.895,336.73z"/>
			<path style="fill:#669900;" d="M172.976,323.573c-4.039-0.561-8.545,1.249-10.825,4.343c-0.007-0.174-0.015-0.348-0.033-0.522
				c-0.055-0.556-0.902-0.84-1.296-0.243c-2.215,3.363-0.451,7.843,1.843,10.474c0.638,0.731,2.136-0.027,1.545-0.851
				c-0.977-1.36-1.649-2.855-1.974-4.474c-0.065-0.324-0.097-0.649-0.117-0.973c1.968,0.627,4.245-0.619,6.013-1.629
				c2.179-1.244,4.073-2.971,5.386-4.922C173.831,324.312,173.588,323.658,172.976,323.573z"/>
			<path style="opacity:0.13;fill:#F7931E;" d="M168.498,351.107c-0.457,0.792-0.561,1.11-1.564,1.239
				c-1.716,0.221-3.68-0.125-4.847-1.076c-1.055-0.86-3.129,0.479-2.218,1.574c0.889,1.069,1.447,2.355,2.332,3.389
				c1.022,1.192,2.763,1.751,4.508,1.74c3.287-0.021,7.261-2.293,7.743-5.37C174.989,349.18,170.45,347.724,168.498,351.107z"/>
			<g style="opacity:0.23;">
				<path style="fill:#FFFFFF;" d="M156.627,340.394c-3.383-0.562-5.222,2.586-5.185,5.112c0.042,2.801,1.651,5.981,4.291,7.442
					c0.725,0.401,1.624-0.241,1.698-0.914c0.218-1.978-0.582-3.768-0.739-5.695c-0.108-1.325,0.405-2.081,1.164-3.223
					C158.574,342.039,158,340.622,156.627,340.394z"/>
				<path style="fill:#FFFFFF;" d="M173.919,335.01c-1.262-0.263-2.365,0.856-2.129,1.893c0.487,2.144,2.333,3.552,2.17,5.866
					c-0.146,2.077,3.234,1.784,3.601-0.158C178.127,339.621,177.665,335.793,173.919,335.01z"/>
				<path style="fill:#FFFFFF;" d="M167.147,335.625c-1.048,2.182-4.289,1.764-6.359,1.952c-0.761,0.069-1.244,0.757-0.898,1.331
					c0.959,1.591,3.524,1.525,5.25,0.649c1.626-0.824,2.572-2.219,2.974-3.749C168.264,335.237,167.402,335.095,167.147,335.625z"/>
			</g>
		</g>
	</g>
	<g>
		<g>
			<path style="fill:#B0D932;" d="M97.591,200.193c-1.397,0.515-2.793,1.056-4.186,1.622c-9.995,4.063-17.299,12.951-19.026,23.601
				l-0.027,0.165c1.914-1.349,3.845-2.641,5.791-3.877c7.958-5.054,13.986-12.58,17.393-21.37L97.591,200.193z"/>
			<path style="fill:#B0D932;" d="M128.514,152.892c-1.493-0.045-2.993-0.066-4.5-0.064c-11.216,0.017-21.754,5.618-27.774,15.081
				l-0.092,0.146c2.914-0.669,5.823-1.245,8.72-1.73c8.32-1.393,15.922-5.446,21.772-11.524
				C127.257,154.161,127.882,153.524,128.514,152.892z"/>
			<path style="fill:#B0D932;" d="M105.49,183.371c-1.466,0.335-2.935,0.695-4.404,1.081c-10.498,2.76-18.95,10.658-22.098,21.046
				l-0.049,0.161c2.025-1.061,4.06-2.068,6.103-3.02c8.664-4.037,15.739-10.774,20.372-19.134L105.49,183.371z"/>
			<path style="fill:#B0D932;" d="M115.806,167.504c-1.505,0.147-3.015,0.319-4.528,0.516c-10.902,1.421-20.428,8.226-25.004,18.222
				l-0.07,0.154c2.842-1.048,5.689-1.999,8.536-2.855c7.875-2.366,14.696-7.281,19.518-13.941
				C114.766,168.898,115.283,168.199,115.806,167.504z"/>
			<path style="fill:#B0D932;" d="M88.994,235.763c-1.208,0.852-2.409,1.728-3.601,2.629c-8.565,6.471-13.289,16.901-12.185,27.579
				l0.017,0.165c1.552-1.866,3.137-3.677,4.754-5.433c6.289-6.829,10.046-15.557,10.999-24.792L88.994,235.763z"/>
			<path style="fill:#B0D932;" d="M92.093,217.736c-1.32,0.694-2.635,1.413-3.945,2.158c-9.337,5.309-15.386,15.034-15.694,25.77
				l-0.005,0.166c1.738-1.601,3.5-3.147,5.285-4.637c7.189-6.001,12.138-14.206,14.323-23.311L92.093,217.736z"/>
			<path style="fill:#B0D932;" d="M117.3,358.524c-0.093-2.585-0.11-5.142-0.054-7.67c0.211-9.505-2.36-18.837-7.478-26.849
				c-0.066-0.103-0.132-0.207-0.198-0.311c-0.325,1.175-0.634,2.361-0.928,3.557c-2.739,11.159,0.415,23.013,8.531,31.147
				L117.3,358.524z"/>
			<path style="fill:#B0D932;" d="M100.65,307.252c-0.536,1.216-1.056,2.446-1.559,3.69c-4.193,10.372-2.768,22.239,3.957,31.18
				l0.105,0.139c0.323-2.499,0.713-4.963,1.165-7.389c1.692-9.075,0.597-18.436-3.294-26.807
				C100.899,307.794,100.774,307.523,100.65,307.252z"/>
			<path style="fill:#B0D932;" d="M90.014,272.122c-0.92,1.113-1.826,2.248-2.719,3.403c-6.632,8.583-8.453,20.013-4.53,30.126
				l0.061,0.157c0.989-2.213,2.027-4.381,3.11-6.502c4.253-8.33,5.602-17.803,4.102-27.035L90.014,272.122z"/>
			<path style="fill:#B0D932;" d="M94.133,289.985c-0.738,1.19-1.461,2.398-2.168,3.625c-5.479,9.505-5.727,21.215-0.407,30.81
				l0.083,0.149c0.67-2.349,1.396-4.659,2.174-6.927c3.055-8.896,3.091-18.513,0.361-27.513L94.133,289.985z"/>
			<path style="fill:#B0D932;" d="M88.303,253.97c-1.071,0.989-2.131,2.001-3.179,3.035c-7.677,7.572-10.996,18.588-8.476,29.073
				l0.039,0.163c1.299-2.082,2.64-4.113,4.021-6.09c5.313-7.609,7.869-16.755,7.599-26.031L88.303,253.97z"/>
			<path style="fill:#B0D932;" d="M61.176,281.245c-1.612-1.182-3.213-2.403-4.799-3.661c0.01,0.061,0.02,0.123,0.03,0.184
				c1.939,11.926,9.726,22.114,20.648,27.279c1.181,0.559,2.365,1.1,3.551,1.624c-0.021-0.053-0.041-0.106-0.062-0.16
				C76.622,296.404,69.92,287.656,61.176,281.245z"/>
			<path style="fill:#B0D932;" d="M77.916,175.521c-0.82-2.841-1.565-5.738-2.229-8.688c-0.031,0.056-0.062,0.111-0.093,0.167
				c-5.954,10.744-6.137,23.799-0.6,34.764c0.545,1.079,1.101,2.147,1.667,3.202c0.273-0.906,0.555-1.809,0.845-2.711
				C80.302,193.571,80.447,184.287,77.916,175.521z"/>
			<path style="fill:#B0D932;" d="M63.482,217.419c-1.562-2.497-3.068-5.065-4.512-7.701c-0.015,0.061-0.029,0.121-0.044,0.182
				c-2.818,11.742,0.447,24.144,8.56,33.087c0.853,0.94,1.714,1.865,2.583,2.775c0.026-0.938,0.06-1.876,0.103-2.813
				C70.583,233.945,68.261,225.061,63.482,217.419z"/>
			<path style="fill:#B0D932;" d="M69.244,196.06c-1.205-2.683-2.345-5.428-3.414-8.234c-0.023,0.059-0.046,0.117-0.068,0.176
				c-4.389,11.323-2.809,24.127,4.073,34.133c0.712,1.035,1.434,2.057,2.166,3.065c0.15-0.93,0.308-1.859,0.475-2.786
				C74.079,213.491,72.959,204.329,69.244,196.06z"/>
			<path style="fill:#B0D932;" d="M104.025,135.515c0.078-2.22,0.209-4.459,0.392-6.715c-0.047,0.047-0.095,0.095-0.142,0.142
				c-9.095,9.117-13.104,22.195-10.733,34.852c0.188,1.002,0.385,1.997,0.593,2.986c0.031-0.049,0.063-0.099,0.094-0.148
				C100.175,157.287,103.634,146.584,104.025,135.515z"/>
			<path style="fill:#B0D932;" d="M89.198,153.743c-0.262-2.211-0.475-4.448-0.639-6.708l-0.118,0.156
				c-7.489,9.953-9.624,22.97-5.623,34.766c0.393,1.16,0.8,2.31,1.219,3.449c0.024-0.052,0.048-0.104,0.072-0.156
				C88.624,175.387,90.473,164.514,89.198,153.743z"/>
			<path style="fill:#B0D932;" d="M75.092,323.667c-1.817-0.712-3.631-1.461-5.441-2.247c0.026,0.057,0.052,0.115,0.079,0.172
				c5.126,11.19,15.471,19.139,27.568,21.41c1.319,0.248,2.637,0.477,3.952,0.689c-0.094-0.124-0.187-0.249-0.281-0.374
				C94.34,334.471,85.384,327.701,75.092,323.667z"/>
			<path style="fill:#B0D932;" d="M66.591,302.785c-1.698-0.934-3.39-1.905-5.073-2.912c0.018,0.06,0.036,0.12,0.054,0.18
				c3.528,11.631,12.634,20.758,24.198,24.499c1.263,0.409,2.526,0.799,3.789,1.172c-0.028-0.051-0.056-0.101-0.084-0.152
				C84.143,315.957,76.223,308.083,66.591,302.785z"/>
			<path style="fill:#B0D932;" d="M60.567,239.175c-1.868-2.247-3.691-4.568-5.464-6.963c-0.006,0.062-0.013,0.123-0.019,0.185
				c-1.233,11.959,3.62,23.765,12.796,31.532c0.986,0.834,1.978,1.652,2.976,2.454c-0.098-0.934-0.187-1.869-0.268-2.804
				C69.814,254.6,66.33,246.104,60.567,239.175z"/>
			<path style="fill:#B0D932;" d="M111.052,359.938c1.526,0.112,3.047,0.201,4.563,0.268c-0.163-0.163-0.326-0.327-0.489-0.491
				c-7.869-7.938-17.758-13.504-28.599-16.225c-1.913-0.48-3.829-0.997-5.744-1.552c0.034,0.053,0.067,0.106,0.101,0.159
				C87.503,352.497,98.758,359.039,111.052,359.938z"/>
			<path style="fill:#B0D932;" d="M60.506,261.046c-2.124-1.961-4.214-3.999-6.264-6.114c0.002,0.062,0.004,0.124,0.005,0.186
				c0.349,12.021,6.706,23.092,16.814,29.608c1.099,0.709,2.203,1.4,3.311,2.074c-0.222-0.918-0.435-1.838-0.64-2.76
				C71.766,275.195,67.164,267.192,60.506,261.046z"/>
		</g>
		<g>
			<path style="fill:#B0D932;" d="M402.165,200.193c1.397,0.515,2.793,1.056,4.186,1.622c9.995,4.063,17.298,12.951,19.026,23.601
				l0.027,0.165c-1.914-1.349-3.845-2.641-5.791-3.877c-7.958-5.054-13.986-12.58-17.393-21.37L402.165,200.193z"/>
			<path style="fill:#B0D932;" d="M371.242,152.892c1.493-0.045,2.993-0.066,4.5-0.064c11.216,0.017,21.754,5.618,27.774,15.081
				l0.093,0.146c-2.914-0.669-5.823-1.245-8.72-1.73c-8.32-1.393-15.922-5.446-21.772-11.524
				C372.498,154.161,371.874,153.524,371.242,152.892z"/>
			<path style="fill:#B0D932;" d="M394.266,183.371c1.466,0.335,2.935,0.695,4.403,1.081c10.498,2.76,18.95,10.658,22.098,21.046
				l0.049,0.161c-2.025-1.061-4.06-2.068-6.103-3.02c-8.664-4.037-15.739-10.774-20.373-19.134L394.266,183.371z"/>
			<path style="fill:#B0D932;" d="M383.949,167.504c1.505,0.147,3.015,0.319,4.528,0.516c10.902,1.421,20.428,8.226,25.004,18.222
				l0.07,0.154c-2.842-1.048-5.689-1.999-8.536-2.855c-7.875-2.366-14.696-7.281-19.518-13.941
				C384.989,168.898,384.473,168.199,383.949,167.504z"/>
			<path style="fill:#B0D932;" d="M410.761,235.763c1.208,0.852,2.409,1.728,3.601,2.629c8.565,6.471,13.289,16.901,12.185,27.579
				l-0.017,0.165c-1.552-1.866-3.138-3.677-4.754-5.433c-6.289-6.829-10.046-15.557-10.999-24.792L410.761,235.763z"/>
			<path style="fill:#B0D932;" d="M407.663,217.736c1.32,0.694,2.635,1.413,3.945,2.158c9.337,5.309,15.386,15.034,15.694,25.77
				l0.005,0.166c-1.738-1.601-3.5-3.147-5.285-4.637c-7.189-6.001-12.138-14.206-14.323-23.311L407.663,217.736z"/>
			<path style="fill:#B0D932;" d="M382.456,358.524c0.093-2.585,0.11-5.142,0.054-7.67c-0.211-9.505,2.36-18.837,7.478-26.849
				c0.066-0.103,0.132-0.207,0.198-0.311c0.325,1.175,0.634,2.361,0.928,3.557c2.739,11.159-0.415,23.013-8.53,31.147
				L382.456,358.524z"/>
			<path style="fill:#B0D932;" d="M399.105,307.252c0.536,1.216,1.056,2.446,1.559,3.69c4.193,10.372,2.768,22.239-3.957,31.18
				l-0.105,0.139c-0.323-2.499-0.713-4.963-1.165-7.389c-1.692-9.075-0.597-18.436,3.294-26.807
				C398.856,307.794,398.981,307.523,399.105,307.252z"/>
			<path style="fill:#B0D932;" d="M409.742,272.122c0.92,1.113,1.827,2.248,2.719,3.403c6.632,8.583,8.453,20.013,4.53,30.126
				l-0.061,0.157c-0.989-2.213-2.027-4.381-3.11-6.502c-4.253-8.33-5.602-17.803-4.102-27.035L409.742,272.122z"/>
			<path style="fill:#B0D932;" d="M405.622,289.985c0.738,1.19,1.461,2.398,2.168,3.625c5.479,9.505,5.727,21.215,0.407,30.81
				l-0.083,0.149c-0.67-2.349-1.396-4.659-2.174-6.927c-3.055-8.896-3.091-18.513-0.36-27.513L405.622,289.985z"/>
			<path style="fill:#B0D932;" d="M411.453,253.97c1.071,0.989,2.131,2.001,3.179,3.035c7.677,7.572,10.996,18.588,8.476,29.073
				l-0.039,0.163c-1.299-2.082-2.64-4.113-4.021-6.09c-5.312-7.609-7.869-16.755-7.599-26.031L411.453,253.97z"/>
			<path style="fill:#B0D932;" d="M438.579,281.245c1.613-1.182,3.213-2.403,4.799-3.661c-0.01,0.061-0.02,0.123-0.03,0.184
				c-1.939,11.926-9.726,22.114-20.648,27.279c-1.181,0.559-2.365,1.1-3.55,1.624c0.021-0.053,0.041-0.106,0.062-0.16
				C423.133,296.404,429.836,287.656,438.579,281.245z"/>
			<path style="fill:#B0D932;" d="M421.84,175.521c0.82-2.841,1.565-5.738,2.229-8.688c0.031,0.056,0.062,0.111,0.093,0.167
				c5.954,10.744,6.137,23.799,0.6,34.764c-0.545,1.079-1.101,2.147-1.667,3.202c-0.273-0.906-0.555-1.809-0.845-2.711
				C419.453,193.571,419.309,184.287,421.84,175.521z"/>
			<path style="fill:#B0D932;" d="M436.274,217.419c1.562-2.497,3.068-5.065,4.512-7.701c0.015,0.061,0.029,0.121,0.044,0.182
				c2.818,11.742-0.447,24.144-8.56,33.087c-0.853,0.94-1.714,1.865-2.583,2.775c-0.026-0.938-0.06-1.876-0.103-2.813
				C429.172,233.945,431.494,225.061,436.274,217.419z"/>
			<path style="fill:#B0D932;" d="M430.512,196.06c1.205-2.683,2.345-5.428,3.414-8.234c0.023,0.059,0.046,0.117,0.068,0.176
				c4.389,11.323,2.809,24.127-4.073,34.133c-0.712,1.035-1.434,2.057-2.166,3.065c-0.15-0.93-0.308-1.859-0.475-2.786
				C425.676,213.491,426.796,204.329,430.512,196.06z"/>
			<path style="fill:#B0D932;" d="M395.73,135.515c-0.078-2.22-0.209-4.459-0.392-6.715c0.047,0.047,0.095,0.095,0.142,0.142
				c9.095,9.117,13.104,22.195,10.733,34.852c-0.188,1.002-0.385,1.997-0.593,2.986c-0.031-0.049-0.063-0.099-0.094-0.148
				C399.581,157.287,396.121,146.584,395.73,135.515z"/>
			<path style="fill:#B0D932;" d="M410.557,153.743c0.262-2.211,0.475-4.448,0.639-6.708l0.117,0.156
				c7.489,9.953,9.624,22.97,5.623,34.766c-0.394,1.16-0.8,2.31-1.219,3.449c-0.024-0.052-0.048-0.104-0.072-0.156
				C411.131,175.387,409.283,164.514,410.557,153.743z"/>
			<path style="fill:#B0D932;" d="M424.664,323.667c1.817-0.712,3.631-1.461,5.441-2.247c-0.026,0.057-0.053,0.115-0.079,0.172
				c-5.126,11.19-15.471,19.139-27.568,21.41c-1.319,0.248-2.637,0.477-3.952,0.689c0.094-0.124,0.187-0.249,0.281-0.374
				C405.415,334.471,414.372,327.701,424.664,323.667z"/>
			<path style="fill:#B0D932;" d="M433.165,302.785c1.698-0.934,3.39-1.905,5.073-2.912c-0.018,0.06-0.036,0.12-0.054,0.18
				c-3.528,11.631-12.634,20.758-24.198,24.499c-1.263,0.409-2.526,0.799-3.789,1.172c0.028-0.051,0.056-0.101,0.084-0.152
				C415.613,315.957,423.533,308.083,433.165,302.785z"/>
			<path style="fill:#B0D932;" d="M439.188,239.175c1.868-2.247,3.691-4.568,5.464-6.963c0.006,0.062,0.013,0.123,0.019,0.185
				c1.233,11.959-3.621,23.765-12.796,31.532c-0.986,0.834-1.978,1.652-2.976,2.454c0.098-0.934,0.187-1.869,0.268-2.804
				C429.942,254.6,433.426,246.104,439.188,239.175z"/>
			<path style="fill:#B0D932;" d="M388.703,359.938c-1.526,0.112-3.047,0.201-4.563,0.268c0.163-0.163,0.326-0.327,0.489-0.491
				c7.869-7.938,17.758-13.504,28.599-16.225c1.913-0.48,3.829-0.997,5.744-1.552c-0.034,0.053-0.067,0.106-0.101,0.159
				C412.253,352.497,400.997,359.039,388.703,359.938z"/>
			<path style="fill:#B0D932;" d="M439.25,261.046c2.124-1.961,4.214-3.999,6.264-6.114c-0.002,0.062-0.004,0.124-0.005,0.186
				c-0.349,12.021-6.706,23.092-16.814,29.608c-1.099,0.709-2.203,1.4-3.311,2.074c0.222-0.918,0.435-1.838,0.64-2.76
				C427.99,275.195,432.591,267.192,439.25,261.046z"/>
		</g>
	</g>
	<path id="SVGID_x5F_1_x5F_" style="fill:none;" d="M413.038,250c0,90.043-72.995,163.038-163.038,163.038
		S86.962,340.043,86.962,250S159.957,86.962,250,86.962S413.038,159.957,413.038,250z"/>
	<text>	<textPath  xlink:href="#SVGID_x5F_1_x5F_" startOffset="84.5417%">
<tspan  style="fill:#543E36; font-family:'Barrio-Regular'; font-size:40px; letter-spacing:100;">buy</tspan><tspan  style="font-family:'Barrio-Regular'; font-size:40px; letter-spacing:100;"> </tspan><tspan  style="fill:#FF9933; font-family:'Barrio-Regular'; font-size:40px; letter-spacing:100;">local</tspan><tspan  style="opacity:0.64;fill:#FF9933; font-family:'Barrio-Regular'; font-size:40px; letter-spacing:100;"> </tspan>	</textPath>
</text>
	<path id="SVGID_x5F_00000060731722907548238660000010753774359683033788_x5F_" style="fill:none;" d="M413.038,242
		c0,90.043-72.995,163.038-163.038,163.038S86.962,332.043,86.962,242S159.957,78.962,250,78.962S413.038,151.957,413.038,242z"/>
	<text>	<textPath  xlink:href="#SVGID_x5F_00000060731722907548238660000010753774359683033788_x5F_" startOffset="151.6847%">
<tspan  style="fill:#543E36; font-family:'Barrio-Regular'; font-size:40px; letter-spacing:100;">eat</tspan><tspan  style="font-family:'Barrio-Regular'; font-size:40px; letter-spacing:100;"> </tspan><tspan  style="fill:#B0D932; font-family:'Barrio-Regular'; font-size:40px; letter-spacing:100;">fresh </tspan>	</textPath>
</text>
</g>
</svg>
